<svg width="67" height="16" viewBox="0 0 67 16" fill="none" xmlns="http://www.w3.org/2000/svg">
<path d="M47.2736 7.47242C47.371 5.79448 47.3153 4.81085 47.3153 4.79639C47.3153 4.69513 47.3292 4.59388 47.3571 4.52155C45.6451 4.20332 43.9748 3.72598 42.3463 2.97379C40.4117 2.07696 38.296 1.59962 36.2639 1.18013C31.963 0.297764 27.6065 0.0373935 23.2639 0.00846343C17.1536 -0.0493967 15.2189 0.196509 9.12249 0.529205C9.09465 0.529205 9.08074 0.529205 9.0529 0.529205C7.53576 0.615995 6.00471 0.702785 4.48758 0.80404C3.06787 0.905295 1.63425 0.94869 0.214545 1.06441C0.131033 1.07888 0.0475213 1.09334 0.019684 1.16567C0.019684 1.18013 0.0057653 1.1946 0.0057653 1.20906C-0.00815337 1.25246 0.0057653 1.31032 0.019684 1.36818C0.228464 2.3084 0.743455 4.21779 1.39763 6.28629C2.85909 6.09824 29.6525 2.98826 47.2736 7.47242Z" fill="white"/>
<path d="M66.3561 9.83022C65.7575 8.90446 65.0199 8.09442 64.3518 7.24098C63.7811 6.51773 63.2383 5.67876 62.4588 5.2882C61.1366 4.63728 59.6194 4.98444 58.2415 4.9989C56.432 5.02783 54.6226 5.07123 52.8271 5.02783C51.2265 4.98444 49.598 4.86872 48.0113 4.62281C48.0113 4.65174 48.0252 4.68067 48.0252 4.7096C48.0391 4.83979 48.1922 7.84851 47.4267 12.4773C47.9556 12.405 48.4706 12.3471 48.9716 12.3037C51.1012 12.1012 53.2308 11.9855 55.3742 11.9277C56.3346 11.8987 64.9224 11.8264 66.4117 11.7396C66.5509 11.7251 66.704 11.7107 66.8154 11.6239C67.3443 11.2044 66.5927 10.1918 66.3561 9.83022Z" fill="white"/>
<path d="M46.7446 12.2603C46.9952 10.7704 47.1344 9.45413 47.2318 8.34032C30.2371 4.00081 4.585 6.76363 1.66208 7.09633C2.69206 10.2786 3.9865 13.5767 4.93297 14.1553C6.21348 14.9219 19.812 15.515 22.9576 15.6886C27.523 15.9489 27.9266 16.0791 32.4919 15.9489C35.7489 15.8477 39.1311 15.8187 42.1376 14.054C43.5155 13.2584 45.144 12.8245 46.7446 12.5641C46.7307 12.4773 46.7168 12.3761 46.7446 12.2603Z" fill="white"/>
</svg>
