<svg width="50" height="30" viewBox="0 0 50 30" fill="none" xmlns="http://www.w3.org/2000/svg">
<path d="M25.0701 12.1757C25.0701 5.45091 21.8795 0 17.9433 0C14.0521 0 10.8947 5.33053 10.8227 11.949C10.822 11.9699 10.8158 11.9902 10.8158 12.0111C10.8158 12.0233 10.8202 12.0344 10.8202 12.0467C10.8202 12.0897 10.8158 12.132 10.8158 12.1757H10.8333C11.018 13.9156 14.0884 15.3019 17.8594 15.3019C21.6297 15.3019 24.8854 13.9163 25.0701 12.1757Z" fill="white"/>
<path d="M39.1567 12.1757C39.1567 5.45091 35.9654 0 32.0292 0C28.1381 0 24.9806 5.33053 24.9092 11.949C24.9086 11.9699 24.9023 11.9902 24.9023 12.0111C24.9023 12.0233 24.9061 12.0344 24.9061 12.0467C24.9061 12.0897 24.9023 12.132 24.9023 12.1757H24.9199C25.1045 13.9156 28.1744 15.3019 31.9453 15.3019C35.7162 15.3019 38.9714 13.9163 39.1567 12.1757Z" fill="white"/>
<path d="M50 12.2285C50 7.03368 47.5349 2.82281 44.4945 2.82281C41.4878 2.82281 39.0496 6.94094 38.9939 12.0534C38.9933 12.07 38.9883 12.0854 38.9883 12.1013C38.9883 12.1106 38.992 12.1198 38.992 12.1284C38.992 12.1622 38.9883 12.1947 38.9883 12.2285H39.0021C39.1448 13.5729 41.5166 14.6435 44.4294 14.6435C47.3421 14.6435 49.8567 13.5729 50 12.2285Z" fill="white"/>
<path d="M11.0117 12.2555C11.0117 7.06069 8.54721 2.84982 5.50617 2.84982C2.49956 2.84982 0.0619725 6.96795 0.00563376 12.0804C0.00563376 12.097 0 12.1124 0 12.1284C0 12.1376 0.00375564 12.1468 0.00375564 12.1554C0.00375564 12.1892 0 12.2217 0 12.2555H0.0143975C0.157122 13.5999 2.52836 14.6705 5.44044 14.6705C8.35441 14.6705 10.8684 13.5999 11.0117 12.2555Z" fill="white"/>
<path d="M24.7997 19.3082C24.7997 25.2136 27.6022 30 31.0583 30C34.4749 30 37.248 25.3205 37.3106 19.5072C37.3106 19.4894 37.3169 19.471 37.3169 19.4532C37.3169 19.4421 37.3131 19.4323 37.3131 19.4218C37.3131 19.3832 37.3169 19.3463 37.3169 19.3076H37.3006C37.1385 17.7795 34.4436 16.5628 31.1322 16.5628C27.8213 16.5634 24.9612 17.7801 24.7997 19.3082Z" fill="white"/>
<path d="M12.4302 19.3082C12.4302 25.2136 15.2321 30 18.6882 30C22.1048 30 24.8773 25.3205 24.9405 19.5072C24.9412 19.4894 24.9468 19.471 24.9468 19.4532C24.9468 19.4421 24.9424 19.4323 24.9424 19.4218C24.9424 19.3832 24.9468 19.3463 24.9468 19.3076H24.9311C24.7684 17.7795 22.0729 16.5628 18.762 16.5628C15.4518 16.5634 12.5917 17.7801 12.4302 19.3082Z" fill="white"/>
<path d="M2.90707 19.2621C2.90707 23.8243 5.07173 27.5217 7.74282 27.5217C10.382 27.5217 12.5235 23.9054 12.5723 19.4157C12.5729 19.4022 12.5773 19.3881 12.5773 19.3733C12.5773 19.3659 12.5742 19.3586 12.5742 19.3506C12.5742 19.3205 12.5773 19.2916 12.5773 19.2621H12.5648C12.4396 18.0811 10.3563 17.1414 7.79915 17.1414C5.24075 17.1407 3.0329 18.0811 2.90707 19.2621Z" fill="white"/>
<path d="M37.1454 19.2388C37.1454 23.7998 39.3094 27.4978 41.9799 27.4978C44.6196 27.4978 46.7618 23.8821 46.8106 19.3924C46.8112 19.3782 46.815 19.3635 46.815 19.3506C46.815 19.342 46.8125 19.3346 46.8125 19.3266C46.8125 19.2966 46.815 19.2677 46.815 19.2388H46.8031C46.6773 18.0577 44.5952 17.118 42.0368 17.118C39.4784 17.1174 37.2706 18.0577 37.1454 19.2388Z" fill="white"/>
</svg>
