<svg width="70" height="55" viewBox="0 0 70 55" fill="none" xmlns="http://www.w3.org/2000/svg">
<path d="M4.94185 39.6505C4.86185 40.5954 3.06758 41.0103 3.19329 44.3291C3.31901 47.6479 3.05615 49.9987 3.05615 49.9987C24.3131 59.8976 35.2273 50.8054 35.2273 50.8054C35.2273 50.8054 45.9016 59.8976 67.1585 49.9987C67.1585 49.9987 67.1357 47.6479 67.2614 44.3291C67.3871 41.0103 65.5928 40.6069 65.5128 39.6505L61.2957 31.9411L61.5357 31.5724H8.2904L4.94185 39.6505Z" fill="#F8C8B9"/>
<path d="M48.633 55C40.7359 55 36.3016 52.096 35.2274 51.2894C34.1416 52.0845 29.6274 55 21.6503 55C15.8332 55 9.52468 53.4328 2.89616 50.3444C2.74759 50.2753 2.65616 50.114 2.66759 49.9411C2.66759 49.9181 2.91901 47.5787 2.80473 44.3291C2.7133 41.9552 3.57044 40.9411 4.14186 40.2727C4.38186 39.9962 4.54186 39.7887 4.56472 39.6044C4.56472 39.5583 4.57614 39.5237 4.599 39.4891L7.93612 31.411C7.99326 31.2612 8.14183 31.169 8.30183 31.169H61.5472C61.6957 31.169 61.8214 31.2497 61.89 31.3764C61.9586 31.5032 61.9472 31.6645 61.8672 31.7798L61.7529 31.9411L65.8557 39.4315C65.8786 39.4776 65.9014 39.5352 65.9014 39.5928C65.9128 39.7772 66.0843 39.9846 66.3243 40.2612C66.8843 40.9296 67.7414 41.9437 67.6614 44.3175C67.5357 47.5903 67.5585 49.9411 67.5585 49.9642C67.5585 50.114 67.4671 50.2638 67.33 50.3214C60.6786 53.4328 54.3929 55 48.633 55ZM35.2274 50.3905C35.3188 50.3905 35.4102 50.4251 35.4788 50.4827C35.5245 50.5173 39.9702 54.2049 48.633 54.2049C54.2215 54.2049 60.3243 52.6953 66.7585 49.7337C66.7585 49.0307 66.77 46.968 66.8614 44.306C66.9414 42.2433 66.2328 41.4021 65.7186 40.7913C65.4443 40.4686 65.1928 40.169 65.1243 39.7657L60.9414 32.1255C60.9186 32.0794 60.8957 32.0218 60.8957 31.9642H8.55326L5.33042 39.7542C5.27328 40.1575 5.01043 40.4686 4.73614 40.8028C4.22186 41.4136 3.5133 42.2548 3.59329 44.3175C3.69615 47.0026 3.54758 49.0307 3.47901 49.7567C9.91325 52.7183 16.0275 54.2164 21.6503 54.2164C30.3817 54.2164 34.9302 50.5288 34.9759 50.4942C35.0445 50.4251 35.1359 50.3905 35.2274 50.3905Z" fill="#595757"/>
<path d="M62.8615 31.388C62.8615 31.388 63.7644 32.1831 64.5644 34.1191C65.3643 36.055 65.5815 39.6735 65.1815 39.4545C64.7815 39.2356 62.4272 37.3688 60.8387 34.7759C59.2387 32.1831 57.9358 27.8502 62.8615 31.388Z" fill="white"/>
<path d="M65.2157 39.8579C65.1357 39.8579 65.0672 39.8348 64.9986 39.8003C64.53 39.5352 62.1186 37.5992 60.5072 34.9834C59.7301 33.7157 58.5758 31.2843 59.1815 30.1895C59.3644 29.8553 59.7072 29.6594 60.1301 29.6594C60.8043 29.6594 61.7758 30.1204 63.09 31.0653C63.1015 31.0768 63.1129 31.0768 63.1243 31.0883C63.1586 31.1229 64.1072 31.9641 64.93 33.9693C65.6157 35.6287 66.0157 39.0166 65.6043 39.6389C65.5129 39.7772 65.3643 39.8579 65.2157 39.8579ZM60.1301 30.4545C59.9358 30.4545 59.8901 30.5352 59.8672 30.5698C59.5701 31.0999 60.1758 32.9321 61.1701 34.5685C62.4158 36.5967 64.1757 38.1985 64.9872 38.8323C65.0215 37.8873 64.77 35.6402 64.21 34.2689C63.5129 32.5749 62.7243 31.7913 62.6215 31.6991C61.1015 30.6159 60.4043 30.4545 60.1301 30.4545Z" fill="#595757"/>
<path d="M59.3187 29.8208C59.3187 29.8208 62.1529 32.4827 62.1529 34.9258C62.1529 37.3688 62.3586 40.1114 61.9244 40.1114C61.4901 40.1114 57.5015 37.1844 55.9815 35.7324C54.4616 34.2689 56.8158 26.8707 59.3187 29.8208Z" fill="white"/>
<path d="M61.9244 40.5032C61.7872 40.5032 61.4672 40.5032 59.1358 38.7862C58.0387 37.9795 56.5644 36.8272 55.7187 36.009C54.8044 35.1332 55.033 32.8515 55.7073 31.146C56.313 29.6133 57.193 28.726 58.1187 28.726C58.6444 28.726 59.1358 29.0026 59.6044 29.5327C59.8672 29.7862 62.5415 32.4021 62.5415 34.9142C62.5415 35.5365 62.5529 36.1818 62.5643 36.8041C62.6101 39.1549 62.5986 40.0077 62.2786 40.3419C62.1872 40.4456 62.0615 40.5032 61.9244 40.5032ZM58.1187 29.5327C57.5472 29.5327 56.9072 30.2702 56.4387 31.4571C55.7987 33.0589 55.7187 34.9257 56.2558 35.4443C57.6387 36.7695 60.7929 39.0858 61.7529 39.6159C61.8329 39.0973 61.8101 37.8528 61.7872 36.8387C61.7758 36.2164 61.7643 35.5711 61.7643 34.9373C61.7643 32.7017 59.0787 30.1434 59.0558 30.1204C59.0444 30.1088 59.0329 30.0973 59.0215 30.0858C58.7015 29.717 58.4044 29.5327 58.1187 29.5327Z" fill="#595757"/>
<path d="M55.0101 28.9219C55.5929 29.5096 57.1129 31.1114 57.1129 34.2574C57.1129 37.4033 57.1129 40.0999 55.8444 40.653C54.5758 41.2062 51.8673 39.5583 49.673 34.1997C48.1301 30.42 53.5358 27.4353 55.0101 28.9219Z" fill="white"/>
<path d="M55.3187 41.137C53.833 41.137 51.3644 39.3508 49.3073 34.338C48.6559 32.7362 49.1702 31.4225 49.7188 30.5928C50.6559 29.1869 52.4502 28.1268 53.9016 28.1268C54.4844 28.1268 54.953 28.2996 55.2844 28.6338C55.833 29.1869 57.5015 30.8579 57.5015 34.2458C57.5015 37.6568 57.5015 40.3534 55.993 41.0102C55.7987 41.0909 55.5701 41.137 55.3187 41.137ZM53.9016 28.9219C52.8502 28.9219 51.2502 29.717 50.3702 31.0307C49.9245 31.6991 49.513 32.7593 50.0387 34.0269C51.8102 38.3598 54.0273 40.3419 55.3301 40.3419C55.4673 40.3419 55.593 40.3188 55.6958 40.2727C56.7244 39.8233 56.7244 37.1152 56.7244 34.2458C56.7244 31.1921 55.2273 29.694 54.7359 29.1985C54.5073 28.968 54.153 28.9219 53.9016 28.9219Z" fill="#595757"/>
<path d="M7.58189 31.388C7.58189 31.388 6.67904 32.1831 5.87905 34.1191C5.07906 36.055 4.86191 39.6735 5.26191 39.4545C5.66191 39.2356 8.01618 37.3688 9.60473 34.7759C11.2047 32.1831 12.5076 27.8502 7.58189 31.388Z" fill="white"/>
<path d="M5.23907 39.8579C5.07907 39.8579 4.94193 39.7772 4.8505 39.6389C4.43907 39.0166 4.83907 35.6287 5.52478 33.9693C6.34763 31.9757 7.2962 31.1229 7.33048 31.0883C7.34191 31.0768 7.35334 31.0768 7.36476 31.0653C8.67904 30.1204 9.65047 29.6594 10.3247 29.6594C10.7476 29.6594 11.0905 29.8438 11.2733 30.1895C11.879 31.2843 10.7247 33.7273 9.9476 34.9834C8.33619 37.5992 5.92478 39.5352 5.45621 39.8003C5.38764 39.8348 5.30764 39.8579 5.23907 39.8579ZM7.83333 31.6991C7.73048 31.7913 6.94191 32.5749 6.24477 34.2689C5.68478 35.6402 5.43335 37.8758 5.46764 38.8323C6.27906 38.1985 8.03905 36.5967 9.28475 34.5685C10.2905 32.9321 10.8847 31.1114 10.5876 30.5698C10.5647 30.5237 10.519 30.4545 10.3247 30.4545C10.039 30.4545 9.34189 30.6159 7.83333 31.6991Z" fill="#595757"/>
<path d="M11.1361 29.8208C11.1361 29.8208 8.30186 32.4827 8.30186 34.9258C8.30186 37.3688 8.09615 40.1114 8.53043 40.1114C8.96471 40.1114 12.9533 37.1844 14.4732 35.7324C15.9932 34.2689 13.639 26.8707 11.1361 29.8208Z" fill="white"/>
<path d="M8.53046 40.5032C8.39331 40.5032 8.2676 40.4456 8.16474 40.3419C7.84474 40.0077 7.83332 39.1549 7.87903 36.8041C7.89046 36.1818 7.90189 35.5365 7.90189 34.9142C7.90189 32.4021 10.5876 29.7862 10.839 29.5327C11.2962 28.991 11.799 28.726 12.3247 28.726C13.2504 28.726 14.1304 29.6018 14.7361 31.146C15.4104 32.8515 15.639 35.1332 14.7247 36.009C13.879 36.8272 12.4047 37.968 11.3076 38.7862C8.98759 40.5032 8.6676 40.5032 8.53046 40.5032ZM12.3361 29.5327C12.0504 29.5327 11.7419 29.717 11.4333 30.0858C11.4219 30.0973 11.4104 30.1088 11.399 30.1204C11.3761 30.1434 8.69045 32.6901 8.69045 34.9373C8.69045 35.5711 8.67903 36.2164 8.6676 36.8387C8.64474 37.8643 8.62188 39.0973 8.70188 39.6159C9.66188 39.0858 12.8161 36.7695 14.199 35.4443C14.7361 34.9257 14.6561 33.0589 14.0161 31.4571C13.5476 30.2586 12.9076 29.5327 12.3361 29.5327Z" fill="#595757"/>
<path d="M15.4448 28.9219C14.8619 29.5096 13.3419 31.1114 13.3419 34.2574C13.3419 37.4033 13.3419 40.0999 14.6105 40.653C15.879 41.2062 18.5876 39.5583 20.7819 34.1997C22.3247 30.42 16.919 27.4353 15.4448 28.9219Z" fill="white"/>
<path d="M15.1247 41.1373C14.8847 41.1373 14.6562 41.0912 14.4505 40.9991C12.9419 40.3422 12.9419 37.6457 12.9419 34.2346C12.9419 30.8467 14.6105 29.1757 15.159 28.6226C15.4904 28.2999 15.959 28.1156 16.5419 28.1156C17.9933 28.1156 19.799 29.1757 20.7247 30.5816C21.2733 31.4113 21.7875 32.725 21.1361 34.3268C19.0904 39.3627 16.6219 41.1373 15.1247 41.1373ZM16.5533 28.9222C16.3019 28.9222 15.9476 28.9683 15.719 29.1988C15.2276 29.6943 13.7305 31.1924 13.7305 34.2462C13.7305 37.1156 13.7305 39.8236 14.759 40.2731C14.8619 40.3192 14.9876 40.3422 15.1247 40.3422C16.4276 40.3422 18.6333 38.3717 20.4161 34.0272C20.9418 32.7481 20.519 31.6879 20.0847 31.0311C19.2047 29.7174 17.5933 28.9222 16.5533 28.9222Z" fill="#595757"/>
<path d="M42.5188 29.9475C42.5188 27.8848 35.2274 27.8848 35.2274 29.9475C35.2274 33.5199 35.8217 39.0973 38.8731 39.0973C41.9245 39.0973 42.5188 33.5199 42.5188 29.9475Z" fill="white"/>
<path d="M38.8731 39.4891C35.2274 39.4891 34.8274 32.8169 34.8274 29.9475C34.8274 28.5992 36.8617 28 38.8731 28C40.8845 28 42.9188 28.5992 42.9188 29.9475C42.9188 32.8169 42.5188 39.4891 38.8731 39.4891ZM38.8731 28.7951C37.0788 28.7951 35.616 29.3137 35.616 29.9475C35.616 31.9987 35.856 38.694 38.8731 38.694C41.8902 38.694 42.1302 31.9987 42.1302 29.9475C42.1302 29.3137 40.6673 28.7951 38.8731 28.7951Z" fill="#595757"/>
<path d="M49.8559 30.5698C49.8559 28.3803 42.5188 28.3803 42.5188 30.5698C42.5188 34.3611 44.0616 40.2727 46.8959 40.2727C49.5245 40.2727 49.8559 34.3496 49.8559 30.5698Z" fill="white"/>
<path d="M46.8959 40.6645C45.4445 40.6645 44.1988 39.3854 43.2845 36.977C42.576 35.0986 42.1302 32.644 42.1302 30.5698C42.1302 29.1639 44.1645 28.5301 46.1874 28.5301C48.2102 28.5301 50.2445 29.1639 50.2445 30.5698C50.2445 37.3688 49.1588 40.6645 46.8959 40.6645ZM46.1874 29.3252C44.3474 29.3252 42.9074 29.8668 42.9074 30.5698C42.9074 34.3611 44.4617 39.8809 46.8959 39.8809C48.5531 39.8809 49.4673 36.5736 49.4673 30.5698C49.4673 29.8668 48.0273 29.3252 46.1874 29.3252Z" fill="#595757"/>
<path d="M27.9246 29.9475C27.9246 27.8848 35.2159 27.8848 35.2159 29.9475C35.2159 33.5199 34.6217 39.0973 31.5702 39.0973C28.5188 39.0973 27.9246 33.5199 27.9246 29.9475Z" fill="white"/>
<path d="M31.5817 39.4891C27.936 39.4891 27.536 32.8169 27.536 29.9475C27.536 28.5992 29.5703 28 31.5817 28C33.5931 28 35.6274 28.5992 35.6274 29.9475C35.616 32.8169 35.2274 39.4891 31.5817 39.4891ZM31.5817 28.7951C29.7874 28.7951 28.3246 29.3137 28.3246 29.9475C28.3246 31.9987 28.5646 38.694 31.5817 38.694C34.5988 38.694 34.8388 31.9987 34.8388 29.9475C34.8274 29.3137 33.376 28.7951 31.5817 28.7951Z" fill="#595757"/>
<path d="M20.5875 30.5698C20.5875 28.3803 27.9246 28.3803 27.9246 30.5698C27.9246 34.3611 26.3818 40.2727 23.5475 40.2727C20.9304 40.2727 20.5875 34.3496 20.5875 30.5698Z" fill="white"/>
<path d="M23.5474 40.6645C21.296 40.6645 20.1989 37.3572 20.1989 30.5698C20.1989 29.1639 22.2331 28.5301 24.256 28.5301C26.2788 28.5301 28.3131 29.1639 28.3131 30.5698C28.3131 32.644 27.8674 35.1101 27.1588 36.977C26.256 39.3969 24.9988 40.6645 23.5474 40.6645ZM24.256 29.3252C22.416 29.3252 20.976 29.8668 20.976 30.5698C20.976 36.5736 21.8903 39.8809 23.5474 39.8809C25.9817 39.8809 27.5359 34.3726 27.5359 30.5698C27.5359 29.8668 26.096 29.3252 24.256 29.3252Z" fill="#595757"/>
<path d="M67.7508 16.8073C67.8423 15.8381 69.7762 15.4126 69.6389 12.0086C69.5016 8.60466 68.9752 5.12977 68.9752 5.12977C46.0085 -5.02303 35.0229 4.30242 35.0229 4.30242C35.0229 4.30242 24.0373 -5.02303 1.07055 5.12977C1.07055 5.12977 0.544161 8.60466 0.406841 12.0086C0.269522 15.4126 2.21489 15.8263 2.29499 16.8073L7.76489 23.3079H63.471L67.7508 16.8073Z" fill="#F8C8B9"/>
<path d="M63.4709 23.7096H7.76487C7.65043 23.7096 7.54745 23.6623 7.46734 23.5677L1.99744 17.0671C1.94022 17.008 1.90589 16.9253 1.90589 16.8425C1.89445 16.6534 1.69991 16.4407 1.44816 16.1688C0.841662 15.4833 -0.0852476 14.4432 0.00629895 11.9966C0.143619 8.60447 0.670012 5.10595 0.670012 5.07049C0.692898 4.92866 0.784445 4.81047 0.898878 4.76319C8.0624 1.59561 14.7911 0 20.9132 0C29.3126 0 33.9128 2.99029 35 3.80582C36.0871 2.99029 40.6873 0 49.0867 0C55.2089 0 61.949 1.60743 69.1011 4.76319C69.2269 4.82229 69.3185 4.94048 69.3299 5.07049C69.3299 5.10595 69.8678 8.61629 69.9936 11.9966C70.0852 14.4432 69.1697 15.4833 68.5518 16.1688C68.3115 16.4407 68.1169 16.6653 68.094 16.8425C68.0826 16.9135 68.0597 16.9726 68.0254 17.0317L63.7456 23.5323C63.7227 23.6387 63.5968 23.7096 63.4709 23.7096ZM7.94796 22.894H63.265L67.3731 16.6534C67.4532 16.2516 67.7279 15.9443 68.0139 15.6133C68.5747 14.9869 69.3299 14.1359 69.2498 12.0203C69.1354 9.15998 68.7349 6.21697 68.6204 5.40143C61.6286 2.34023 55.0715 0.791895 49.1096 0.791895C39.8977 0.791895 35.3089 4.57408 35.2632 4.60954C35.1144 4.72773 34.9084 4.72773 34.7597 4.60954C34.7139 4.57408 30.1251 0.791895 20.9132 0.791895C14.9513 0.791895 8.39425 2.34023 1.40238 5.40143C1.28795 6.21697 0.887434 9.15998 0.773001 12.0203C0.692898 14.1241 1.44816 14.9869 2.00888 15.6133C2.29496 15.9325 2.55816 16.2398 2.64971 16.618L7.94796 22.894Z" fill="#595757"/>
<path d="M63.2421 19.443C63.2421 19.443 65.176 17.1501 66.4577 16.11C67.7393 15.0699 67.8766 16.4409 67.6592 17.7765C67.4303 19.1121 66.9841 21.8778 66.4004 24.3244C65.8168 26.771 64.4436 28.6739 62.6013 26.8774C60.7589 25.0808 60.2668 22.587 63.2421 19.443Z" fill="white"/>
<path d="M64.0202 28C63.4595 28 62.8987 27.7282 62.338 27.1727C61.2852 26.1444 60.7474 25.0097 60.7245 23.7923C60.7016 22.3149 61.4454 20.7548 62.956 19.171C63.1162 18.9819 64.9471 16.8189 66.2173 15.7907C66.5949 15.4834 66.9153 15.3415 67.2129 15.3415C67.4646 15.3415 67.6706 15.4479 67.8308 15.637C68.2313 16.1334 68.1627 17.1144 68.0482 17.8472L67.991 18.19C67.7622 19.5728 67.3273 22.1613 66.7895 24.4306C66.2402 26.6999 65.2332 28 64.0202 28ZM67.2129 16.1571C67.1785 16.1571 67.0183 16.1807 66.7094 16.4407C65.4735 17.4454 63.5625 19.7029 63.551 19.7265C63.551 19.7383 63.5396 19.7383 63.5396 19.7501C62.1778 21.1803 61.5027 22.5395 61.5255 23.7923C61.5484 24.7852 62.0062 25.7307 62.8873 26.6053C63.2993 27.0072 63.6769 27.2081 64.0202 27.2081C64.8212 27.2081 65.5879 26.0735 66.0228 24.2533C66.5606 22.0076 66.984 19.4428 67.2129 18.0718L67.2701 17.729C67.4417 16.6889 67.293 16.228 67.2243 16.1689C67.2243 16.1571 67.2129 16.1571 67.2129 16.1571Z" fill="#595757"/>
<path d="M55.6551 18.3442C55.6551 18.3442 58.1727 14.5739 59.3055 13.3328C60.427 12.0918 62.3266 11.3826 63.0132 12.7891C63.6998 14.2075 63.4137 21.1809 62.5326 23.592C61.6514 26.0031 59.8319 27.847 57.8637 26.3223C55.8726 24.8094 53.0575 22.5283 55.6551 18.3442Z" fill="white"/>
<path d="M59.3056 27.2913C58.7334 27.2913 58.1613 27.0785 57.612 26.653C56.6622 25.9202 55.3691 24.9274 54.6825 23.5209C53.8929 21.9016 54.0989 20.0933 55.3233 18.1313C55.3233 18.1313 55.3233 18.1195 55.3348 18.1195C55.4377 17.9658 57.8866 14.3136 59.0195 13.0608C59.8205 12.1862 60.8962 11.607 61.7773 11.607C62.4868 11.607 63.0476 11.9616 63.368 12.6117C64.1232 14.16 63.8257 21.2398 62.8988 23.7455C62.0749 25.9675 60.736 27.2913 59.3056 27.2913ZM55.9756 18.5686C53.7327 22.1853 55.6895 24.1473 58.0812 25.9911C58.4931 26.3103 58.8936 26.4639 59.2941 26.4639C60.5758 26.4639 61.6057 24.9038 62.1435 23.4382C63.0361 21.0034 63.2535 14.2073 62.647 12.9544C62.4639 12.5762 62.1779 12.3989 61.7659 12.3989C61.1022 12.3989 60.2325 12.8717 59.5802 13.5927C58.516 14.7982 56.09 18.4031 55.9756 18.5686Z" fill="#595757"/>
<path d="M55.9182 23.0837C55.9182 26.003 46.8551 26.003 46.8551 23.0837C46.8551 18.0486 48.6631 11.7607 51.3867 11.7607C55.1858 11.7607 55.9182 18.0486 55.9182 23.0837Z" fill="white"/>
<path d="M51.3982 25.6837C48.9493 25.6837 46.4775 24.88 46.4775 23.0953C46.4775 20.4832 46.9467 17.6111 47.7478 15.4009C48.6975 12.7652 49.9678 11.3587 51.3982 11.3587C53.2863 11.3587 54.6595 12.7297 55.4605 15.4127C56.0327 17.3156 56.3188 19.9041 56.3188 23.0835C56.3188 24.88 53.847 25.6837 51.3982 25.6837ZM51.3982 12.1742C49.0637 12.1742 47.2557 18.0484 47.2557 23.0953C47.2557 24.2536 49.3841 24.88 51.3982 24.88C53.4007 24.88 55.5406 24.2536 55.5406 23.0953C55.5292 18.1075 54.8083 12.1742 51.3982 12.1742Z" fill="#595757"/>
<path d="M6.80358 19.443C6.80358 19.443 4.86966 17.1501 3.58801 16.11C2.30635 15.0699 2.16903 16.4409 2.38646 17.7765C2.61532 19.1121 3.06161 21.8778 3.64522 24.3244C4.22883 26.771 5.60203 28.6739 7.4444 26.8774C9.28678 25.0808 9.77884 22.587 6.80358 19.443Z" fill="white"/>
<path d="M6.02542 28C4.81243 28 3.79398 26.6999 3.25614 24.4306C2.70686 22.1613 2.28346 19.5728 2.05459 18.19L1.99737 17.8472C1.8715 17.1144 1.81428 16.1334 2.2148 15.637C2.37501 15.4361 2.59243 15.3415 2.83274 15.3415C3.13026 15.3415 3.45068 15.4834 3.82831 15.7907C5.09851 16.8189 6.94089 18.9819 7.08965 19.171C8.60017 20.7548 9.34399 22.3149 9.3211 23.7923C9.29821 25.0097 8.76038 26.1444 7.70759 27.1727C7.14687 27.7164 6.58615 28 6.02542 28ZM2.83274 16.1571C2.82129 16.1571 2.8213 16.1571 2.8213 16.1571C2.75264 16.2043 2.59243 16.6653 2.77552 17.7172L2.83274 18.06C3.0616 19.431 3.48501 21.9958 4.02284 24.2415C4.45769 26.0617 5.22439 27.1963 6.02542 27.1963C6.36872 27.1963 6.7578 26.9954 7.15831 26.5935C8.05089 25.7189 8.50862 24.7852 8.52007 23.7805C8.54295 22.5277 7.8678 21.1685 6.50604 19.7383C6.50604 19.7383 6.4946 19.7265 6.4946 19.7147C6.47171 19.691 4.57212 17.4335 3.33624 16.4289C3.02727 16.1689 2.87851 16.1571 2.83274 16.1571Z" fill="#595757"/>
<path d="M14.3905 18.3442C14.3905 18.3442 11.873 14.5739 10.7401 13.3328C9.61866 12.0918 7.71907 11.3826 7.03247 12.7891C6.34587 14.2075 6.63196 21.1809 7.51309 23.592C8.39423 26.0031 10.2137 27.847 12.182 26.3223C14.1731 24.8094 16.9882 22.5283 14.3905 18.3442Z" fill="white"/>
<path d="M10.7401 27.2913C9.30967 27.2913 7.9708 25.9675 7.15833 23.7455C6.24286 21.2398 5.94533 14.16 6.68915 12.6117C6.99812 11.9616 7.57029 11.607 8.27977 11.607C9.16091 11.607 10.2366 12.1743 11.0376 13.0608C12.1705 14.3136 14.6194 17.9658 14.7224 18.1195C14.7224 18.1195 14.7224 18.1313 14.7338 18.1313C15.9468 20.0933 16.1642 21.9016 15.3746 23.5209C14.688 24.9274 13.3949 25.9202 12.4451 26.653C11.8844 27.0785 11.3123 27.2913 10.7401 27.2913ZM8.27977 12.4225C7.86781 12.4225 7.58173 12.5998 7.39864 12.9781C6.79214 14.2309 6.99812 21.027 7.90214 23.4618C8.43998 24.9274 9.46988 26.4875 10.7515 26.4875C11.152 26.4875 11.564 26.3339 11.9645 26.0148C14.3562 24.171 16.313 22.209 14.0701 18.5922C13.9557 18.4268 11.5411 14.8219 10.4654 13.6281C9.81318 12.8953 8.94348 12.4225 8.27977 12.4225Z" fill="#595757"/>
<path d="M14.1273 23.0836C14.1273 26.003 23.1904 26.003 23.1904 23.0836C23.1904 18.0486 21.3824 11.7607 18.6589 11.7607C14.8597 11.7607 14.1273 18.0486 14.1273 23.0836Z" fill="white"/>
<path d="M18.6474 25.6837C16.1986 25.6837 13.7268 24.88 13.7268 23.0953C13.7268 19.9159 14.0129 17.3275 14.5851 15.4245C15.3861 12.7297 16.7593 11.3705 18.6474 11.3705C20.0893 11.3705 21.3481 12.7652 22.2979 15.4127C23.0874 17.6229 23.5681 20.495 23.5681 23.1071C23.5795 24.88 21.1077 25.6837 18.6474 25.6837ZM18.6474 12.1742C15.2259 12.1742 14.505 18.1075 14.505 23.0953C14.505 24.2536 16.6334 24.88 18.6474 24.88C20.65 24.88 22.7899 24.2536 22.7899 23.0953C22.7899 18.0366 20.9819 12.1742 18.6474 12.1742Z" fill="#595757"/>
<path d="M46.8667 24.1234C46.8667 27.0665 35.0228 27.0665 35.0228 24.1234C35.0228 19.0411 35.9841 11.0985 40.939 11.0985C45.894 11.0985 46.8667 19.0411 46.8667 24.1234Z" fill="white"/>
<path d="M40.939 26.7353C38.021 26.7353 34.6223 26.0498 34.6223 24.1233C34.6223 20.081 35.2403 10.6965 40.939 10.6965C46.6378 10.6965 47.2557 20.0929 47.2557 24.1233C47.2557 26.0498 43.8571 26.7353 40.939 26.7353ZM40.939 11.5002C38.9364 11.5002 37.4374 12.954 36.4876 15.8261C35.5492 18.6864 35.4119 22.244 35.4119 24.1114C35.4119 25.1161 37.8379 25.908 40.939 25.908C44.0402 25.908 46.4661 25.1161 46.4661 24.1114C46.4661 22.244 46.3288 18.6864 45.3905 15.8261C44.4521 12.9658 42.9531 11.5002 40.939 11.5002Z" fill="#595757"/>
<path d="M23.179 24.1234C23.179 27.0665 35.0228 27.0665 35.0228 24.1234C35.0228 19.0411 34.0615 11.0985 29.1066 11.0985C24.1516 11.0985 23.179 19.0411 23.179 24.1234Z" fill="white"/>
<path d="M29.1066 26.7353C26.2 26.7353 22.7899 26.0498 22.7899 24.1233C22.7899 20.081 23.4079 10.6965 29.1066 10.6965C34.8054 10.6965 35.4233 20.0929 35.4233 24.1233C35.4119 26.0498 32.0132 26.7353 29.1066 26.7353ZM29.1066 11.5002C27.104 11.5002 25.605 12.954 24.6552 15.8261C23.7168 18.6864 23.5795 22.244 23.5795 24.1114C23.5795 25.1161 26.0055 25.908 29.1066 25.908C32.2078 25.908 34.6338 25.1161 34.6338 24.1114C34.6338 22.244 34.4964 18.6864 33.5581 15.8261C32.6083 12.9658 31.1092 11.5002 29.1066 11.5002Z" fill="#595757"/>
</svg>
