<svg width="23" height="22" viewBox="0 0 23 22" fill="none" xmlns="http://www.w3.org/2000/svg">
<path d="M10.727 11.0002L6.8809 7.15407L6.08775 6.36092C5.97075 6.24391 5.97075 6.05378 6.08775 5.93678L6.9364 5.08813C7.05341 4.97112 7.24354 4.97112 7.36054 5.08813L11.9998 9.7274L16.6391 5.08775C16.7561 4.97075 16.9462 4.97075 17.0632 5.08775L17.9122 5.9364C18.0293 6.05341 18.0293 6.24354 17.9122 6.36054L13.2726 11.0002L17.9122 15.6395C18.0293 15.7565 18.0293 15.9466 17.9122 16.0636L17.0636 16.9122C16.9466 17.0293 16.7565 17.0293 16.6395 16.9122L11.9998 12.273L8.15369 16.1191L7.36054 16.9122C7.24354 17.0293 7.05341 17.0293 6.9364 16.9122L6.08775 16.0636C5.97075 15.9466 5.97075 15.7565 6.08775 15.6395L10.727 11.0002Z" fill="#DDDDDD"/>
</svg>
