<svg width="31" height="34" viewBox="0 0 31 34" fill="none" xmlns="http://www.w3.org/2000/svg">
<path d="M25.19 11.6301H19.94V13.7001H25.19C26.94 13.7001 28.48 14.6401 28.48 15.7001V29.5001C28.48 30.5701 26.94 31.5001 25.19 31.5001H5.36C3.61 31.5001 2.07 30.5701 2.07 29.5001V15.7001C2.07 14.6301 3.61 13.7001 5.36 13.7001H10.6V11.6301H5.36C2.36 11.6301 0 13.4201 0 15.7101V29.5101C0 31.8001 2.36 33.5901 5.36 33.5901H25.19C28.2 33.5901 30.55 31.8001 30.55 29.5101V15.7101C30.55 13.4201 28.2 11.6301 25.19 11.6301Z" fill="white"/>
<path d="M19.9901 18.98C19.5901 18.98 19.1901 19.13 18.8901 19.44L16.9401 21.39L16.9401 14.11L16.9401 12.04L16.9401 1.56001C16.9401 0.700005 16.2401 6.18604e-06 15.3801 6.26123e-06C14.5201 6.33641e-06 13.8201 0.700005 13.8201 1.56001L13.8201 12.04L13.8201 14.11L13.8201 21.49L11.7701 19.44C11.4701 19.14 11.0701 18.98 10.6701 18.98C10.2701 18.98 9.87011 19.13 9.57011 19.44C8.96011 20.05 8.96011 21.03 9.57011 21.64L14.2201 26.29C14.5201 26.59 14.9201 26.74 15.3201 26.74L15.3301 26.74L15.3401 26.74C15.7401 26.74 16.1401 26.59 16.4401 26.29L21.0901 21.64C21.7001 21.03 21.7001 20.05 21.0901 19.44C20.7801 19.13 20.3901 18.98 19.9901 18.98Z" fill="white"/>
</svg>
