<svg width="30" height="30" viewBox="0 0 30 30" fill="none" xmlns="http://www.w3.org/2000/svg">
<path d="M29.0585 6.55855L23.4414 0.941451C22.8387 0.338654 22.0211 4.45765e-06 21.1686 0H3.21429C1.43906 0 0 1.43906 0 3.21429V26.7857C0 28.5609 1.43906 30 3.21429 30H26.7857C28.5609 30 30 28.5609 30 26.7857V8.83138C30 7.9789 29.6613 7.16134 29.0585 6.55855V6.55855ZM19.2857 2.14286V8.57143H6.42857V2.14286H19.2857ZM27.8571 26.7857C27.8571 27.3765 27.3765 27.8571 26.7857 27.8571H3.21429C2.62353 27.8571 2.14286 27.3765 2.14286 26.7857V3.21429C2.14286 2.62353 2.62353 2.14286 3.21429 2.14286H4.28571V9.10714C4.28571 9.99475 5.00525 10.7143 5.89286 10.7143H19.8214C20.709 10.7143 21.4286 9.99475 21.4286 9.10714V2.17574C21.617 2.22223 21.7891 2.31938 21.9262 2.45665L27.5433 8.07375C27.6431 8.17301 27.7223 8.29109 27.7761 8.42113C27.83 8.55118 27.8575 8.69062 27.8571 8.83138V26.7857ZM15 13.3929C11.7507 13.3929 9.10714 16.0364 9.10714 19.2857C9.10714 22.535 11.7507 25.1786 15 25.1786C18.2493 25.1786 20.8929 22.535 20.8929 19.2857C20.8929 16.0364 18.2493 13.3929 15 13.3929ZM15 23.0357C12.9322 23.0357 11.25 21.3535 11.25 19.2857C11.25 17.2179 12.9322 15.5357 15 15.5357C17.0678 15.5357 18.75 17.2179 18.75 19.2857C18.75 21.3535 17.0678 23.0357 15 23.0357Z" fill="white"/>
</svg>
