<svg width="32" height="32" viewBox="0 0 32 32" fill="none" xmlns="http://www.w3.org/2000/svg">
<path d="M31.1938 18.792L29.0082 17.5774C29.1456 16.53 29.1456 15.47 29.0082 14.4226L31.1938 13.208C31.8356 12.8513 32.1452 12.1175 31.9342 11.4337C31.1826 8.99828 29.8447 6.80608 28.078 5.00821C27.5664 4.48756 26.7498 4.37363 26.1051 4.73195L23.9226 5.94473C23.0497 5.30523 22.0962 4.77456 21.085 4.36537V1.93866C21.085 1.22059 20.5721 0.596461 19.8461 0.431106C17.3231 -0.14367 14.6774 -0.143734 12.1539 0.431106C11.428 0.596461 10.915 1.22053 10.915 1.93866V4.36537C9.90375 4.77455 8.95029 5.30521 8.07735 5.94473L5.89495 4.73195C5.25012 4.37363 4.43358 4.48756 3.922 5.00821C2.15527 6.80608 0.817426 8.99834 0.0658304 11.4337C-0.145225 12.1175 0.164354 12.8513 0.806166 13.208L2.99178 14.4226C2.85439 15.47 2.85439 16.53 2.99178 17.5774L0.806166 18.792C0.164354 19.1487 -0.145225 19.8825 0.0658304 20.5663C0.817426 23.0017 2.15527 25.1939 3.922 26.9918C4.43365 27.5124 5.25019 27.6264 5.89495 27.2681L8.07735 26.0553C8.95028 26.6948 9.90375 27.2255 10.915 27.6346V30.0613C10.915 30.7794 11.4279 31.4035 12.1539 31.5689C14.677 32.1437 17.3226 32.1437 19.8461 31.5689C20.572 31.4035 21.085 30.7795 21.085 30.0613V27.6346C22.0962 27.2255 23.0497 26.6948 23.9226 26.0553L26.1051 27.2681C26.7498 27.6264 27.5664 27.5125 28.078 26.9918C29.8447 25.1939 31.1826 23.0017 31.9342 20.5663C32.1452 19.8825 31.8356 19.1487 31.1938 18.792ZM26.8052 25.2734L23.7015 23.5482C21.8927 25.0367 21.2512 25.4112 18.9402 26.1972V29.6475C17.0005 30.0326 14.9995 30.0326 13.0598 29.6475V26.1972C10.8064 25.4308 10.154 25.075 8.29853 23.5482L5.19476 25.2734C3.87374 23.8482 2.8698 22.1773 2.25051 20.3729L5.35562 18.6477C4.91762 16.3627 4.91742 15.6384 5.35562 13.3523L2.25051 11.6271C2.8698 9.82267 3.87381 8.1517 5.19476 6.72589L8.29853 8.45234C10.1334 6.94047 10.7826 6.57718 13.0598 5.80273V2.35253C14.9994 1.96672 17.0006 1.96672 18.9402 2.35253V5.80279C21.2175 6.57731 21.8668 6.94066 23.7015 8.45241L26.8052 6.72595C28.1262 8.1517 29.1302 9.82267 29.7495 11.6272L26.6444 13.3524C27.0824 15.6379 27.0826 16.3616 26.6444 18.6478L29.7495 20.3729C29.1302 22.1773 28.1263 23.8483 26.8052 25.2734ZM16 9.80647C12.4521 9.80647 9.5658 12.5849 9.5658 16C9.5658 19.4152 12.4521 22.1936 16 22.1936C19.5479 22.1936 22.4342 19.4152 22.4342 16C22.4342 12.5849 19.5479 9.80647 16 9.80647ZM16 20.1291C13.6348 20.1291 11.7105 18.2768 11.7105 16C11.7105 13.7233 13.6348 11.871 16 11.871C18.3652 11.871 20.2895 13.7233 20.2895 16C20.2895 18.2768 18.3652 20.1291 16 20.1291Z" fill="white"/>
</svg>
