<svg width="97" height="65" viewBox="0 0 97 65" fill="none" xmlns="http://www.w3.org/2000/svg">
<path d="M3.15028 43.397C3.03951 44.7269 0.55513 45.3107 0.729195 49.9817C0.90326 54.6526 0.539307 57.9612 0.539307 57.9612C29.9721 71.8929 45.084 59.0965 45.084 59.0965C45.084 59.0965 59.8637 71.8929 89.2965 57.9612C89.2965 57.9612 89.2648 54.6526 89.4389 49.9817C89.6129 45.3107 87.1286 44.7431 87.0178 43.397L81.1787 32.5468L81.511 32.0278H7.78672L3.15028 43.397Z" fill="#F8C8B9"/>
<path d="M63.6457 65C52.7113 65 46.5715 60.9129 45.0841 59.7776C43.5808 60.8967 37.3303 65 26.2851 65C18.2306 65 9.49577 62.7943 0.317811 58.4477C0.112098 58.3504 -0.0144943 58.1233 0.00132973 57.8801C0.00132973 57.8476 0.349459 54.5553 0.191218 49.9816C0.0646255 46.6406 1.25143 45.2134 2.04263 44.2727C2.37494 43.8835 2.59648 43.5915 2.62812 43.332C2.62812 43.2672 2.64395 43.2185 2.6756 43.1698L7.29622 31.8007C7.37534 31.5898 7.58106 31.4601 7.80259 31.4601H81.5269C81.7326 31.4601 81.9067 31.5736 82.0016 31.752C82.0966 31.9304 82.0807 32.1575 81.97 32.3197L81.8117 32.5467L87.4926 43.0888C87.5242 43.1536 87.5559 43.2347 87.5559 43.3158C87.5717 43.5753 87.809 43.8672 88.1413 44.2565C88.9167 45.1972 90.1035 46.6244 89.9928 49.9654C89.8187 54.5715 89.8503 57.8801 89.8503 57.9125C89.8503 58.1233 89.7238 58.3342 89.5339 58.4153C80.3243 62.7943 71.621 65 63.6457 65ZM45.0841 58.5126C45.2107 58.5126 45.3373 58.5612 45.4322 58.6423C45.4955 58.691 51.6511 63.8809 63.6457 63.8809C71.3837 63.8809 79.8337 61.7563 88.7427 57.5881C88.7427 56.5988 88.7585 53.6957 88.8851 49.9492C88.9958 47.0461 88.0148 45.8621 87.3027 45.0026C86.9229 44.5484 86.5748 44.1267 86.4798 43.5591L80.6882 32.8062C80.6566 32.7413 80.6249 32.6602 80.6249 32.5792H8.15072L3.68834 43.5429C3.60922 44.1105 3.24526 44.5484 2.86549 45.0188C2.1534 45.8783 1.17231 47.0623 1.28308 49.9654C1.4255 53.7443 1.21978 56.5988 1.12484 57.6206C10.0338 61.7887 18.4997 63.8971 26.2851 63.8971C38.3747 63.8971 44.6727 58.7072 44.7359 58.6585C44.8309 58.5612 44.9575 58.5126 45.0841 58.5126Z" fill="#595757"/>
<path d="M83.3467 31.7682C83.3467 31.7682 84.5968 32.8873 85.7045 35.612C86.8122 38.3367 87.1129 43.4293 86.559 43.1212C86.0052 42.813 82.7454 40.1856 80.5459 36.5365C78.3305 32.8873 76.5266 26.7891 83.3467 31.7682Z" fill="white"/>
<path d="M86.6065 43.6888C86.4958 43.6888 86.4008 43.6564 86.3059 43.6078C85.6571 43.2347 82.3182 40.51 80.087 36.8284C79.011 35.0444 77.4127 31.6223 78.2514 30.0815C78.5046 29.6112 78.9793 29.3354 79.5648 29.3354C80.4984 29.3354 81.8435 29.9842 83.6633 31.3141C83.6791 31.3303 83.6949 31.3303 83.7107 31.3466C83.7582 31.3952 85.0716 32.5792 86.2109 35.4012C87.1604 37.7366 87.7142 42.5049 87.1445 43.3807C87.018 43.5753 86.8122 43.6888 86.6065 43.6888ZM79.5648 30.4545C79.2958 30.4545 79.2325 30.5681 79.2009 30.6167C78.7894 31.3628 79.6281 33.9415 81.0048 36.2445C82.7296 39.099 85.1665 41.3534 86.29 42.2454C86.3375 40.9155 85.9894 37.7529 85.214 35.8229C84.2487 33.4387 83.1569 32.3359 83.0145 32.2061C80.9099 30.6816 79.9446 30.4545 79.5648 30.4545Z" fill="#595757"/>
<path d="M78.4413 29.5626C78.4413 29.5626 82.3657 33.309 82.3657 36.7474C82.3657 40.1857 82.6505 44.0457 82.0492 44.0457C81.4479 44.0457 75.9253 39.9262 73.8207 37.8827C71.7161 35.8229 74.9759 25.4106 78.4413 29.5626Z" fill="white"/>
<path d="M82.0491 44.5971C81.8592 44.5971 81.4162 44.5971 78.1881 42.1806C76.669 41.0453 74.6277 39.4234 73.4567 38.2719C72.1908 37.0393 72.5072 33.828 73.4408 31.4277C74.2795 29.2706 75.498 28.0218 76.7797 28.0218C77.5076 28.0218 78.1881 28.411 78.8369 29.1571C79.2008 29.5139 82.9036 33.1955 82.9036 36.7311C82.9036 37.6069 82.9195 38.5152 82.9353 39.391C82.9986 42.6996 82.9828 43.8997 82.5397 44.3701C82.4131 44.516 82.239 44.5971 82.0491 44.5971ZM76.7797 29.1571C75.9885 29.1571 75.1024 30.1951 74.4536 31.8656C73.5674 34.12 73.4567 36.7474 74.2004 37.4772C76.1151 39.3423 80.4826 42.6022 81.8118 43.3483C81.9225 42.6185 81.8909 40.8669 81.8592 39.4396C81.8434 38.5638 81.8276 37.6556 81.8276 36.7636C81.8276 33.6172 78.1089 30.0167 78.0773 29.9842C78.0615 29.968 78.0456 29.9518 78.0298 29.9356C77.5867 29.4166 77.1753 29.1571 76.7797 29.1571Z" fill="#595757"/>
<path d="M72.4757 28.2975C73.2827 29.1247 75.3873 31.379 75.3873 35.8067C75.3873 40.2343 75.3873 44.0295 73.6308 44.808C71.8743 45.5865 68.124 43.2672 65.0858 35.7256C62.9496 30.4059 70.4344 26.2053 72.4757 28.2975Z" fill="white"/>
<path d="M72.9029 45.4891C70.8458 45.4891 67.4278 42.9753 64.5794 35.9202C63.6775 33.6658 64.3896 31.8169 65.1491 30.6492C66.4467 28.6705 68.9311 27.1784 70.9407 27.1784C71.7477 27.1784 72.3965 27.4217 72.8554 27.892C73.615 28.6705 75.9253 31.0222 75.9253 35.7904C75.9253 40.5911 75.9253 44.3863 73.8365 45.3107C73.5675 45.4242 73.251 45.4891 72.9029 45.4891ZM70.9407 28.2975C69.4849 28.2975 67.2695 29.4166 66.0511 31.2655C65.4339 32.2062 64.8643 33.6983 65.5922 35.4823C68.0449 41.5805 71.1148 44.37 72.9187 44.37C73.1086 44.37 73.2827 44.3376 73.4251 44.2727C74.8493 43.6402 74.8493 39.8289 74.8493 35.7904C74.8493 31.4925 72.7763 29.3841 72.0959 28.6867C71.7794 28.3624 71.2888 28.2975 70.9407 28.2975Z" fill="#595757"/>
<path d="M6.80591 31.7682C6.80591 31.7682 5.5558 32.8873 4.44812 35.612C3.34044 38.3367 3.03978 43.4293 3.59362 43.1212C4.14746 42.813 7.40722 40.1856 9.60676 36.5365C11.8221 32.8873 13.6261 26.7891 6.80591 31.7682Z" fill="white"/>
<path d="M3.56185 43.6888C3.34031 43.6888 3.15043 43.5753 3.02383 43.3807C2.45417 42.5049 3.00801 37.7366 3.95745 35.4012C5.09678 32.5954 6.41018 31.3952 6.45765 31.3466C6.47348 31.3303 6.4893 31.3303 6.50512 31.3141C8.32489 29.9842 9.66994 29.3354 10.6036 29.3354C11.1891 29.3354 11.6638 29.595 11.917 30.0815C12.7556 31.6223 11.1574 35.0606 10.0814 36.8284C7.85017 40.51 4.5113 43.2347 3.86251 43.6078C3.76756 43.6564 3.6568 43.6888 3.56185 43.6888ZM7.15391 32.2061C7.0115 32.3359 5.91964 33.4387 4.95437 35.8229C4.17899 37.7529 3.83086 40.8993 3.87833 42.2454C5.00184 41.3534 7.43875 39.099 9.16357 36.2445C10.5561 33.9415 11.3789 31.379 10.9675 30.6167C10.9359 30.5518 10.8726 30.4545 10.6036 30.4545C10.208 30.4545 9.24269 30.6816 7.15391 32.2061Z" fill="#595757"/>
<path d="M11.727 29.5626C11.727 29.5626 7.80264 33.309 7.80264 36.7474C7.80264 40.1857 7.51781 44.0457 8.11912 44.0457C8.72044 44.0457 14.243 39.9262 16.3476 37.8827C18.4522 35.8229 15.1925 25.4106 11.727 29.5626Z" fill="white"/>
<path d="M8.11913 44.5971C7.92924 44.5971 7.75517 44.516 7.61276 44.3701C7.16968 43.8997 7.15386 42.6996 7.21716 39.391C7.23298 38.5152 7.24881 37.6069 7.24881 36.7311C7.24881 33.1955 10.9675 29.5139 11.3156 29.1571C11.9486 28.3948 12.6448 28.0218 13.3727 28.0218C14.6545 28.0218 15.8729 29.2544 16.7116 31.4277C17.6452 33.828 17.9617 37.0393 16.6958 38.2719C15.5248 39.4234 13.4835 41.029 11.9644 42.1806C8.75209 44.5971 8.30902 44.5971 8.11913 44.5971ZM13.3885 29.1571C12.9929 29.1571 12.5657 29.4166 12.1384 29.9356C12.1226 29.9518 12.1068 29.968 12.091 29.9842C12.0593 30.0167 8.34067 33.601 8.34067 36.7636C8.34067 37.6556 8.32484 38.5638 8.30902 39.4396C8.27737 40.8831 8.24572 42.6185 8.35649 43.3483C9.68571 42.6022 14.0532 39.3423 15.9679 37.4772C16.7116 36.7474 16.6008 34.12 15.7147 31.8656C15.0659 30.1789 14.1797 29.1571 13.3885 29.1571Z" fill="#595757"/>
<path d="M17.6928 28.2975C16.8857 29.1247 14.7811 31.379 14.7811 35.8067C14.7811 40.2343 14.7811 44.0295 16.5376 44.808C18.2941 45.5865 22.0444 43.2672 25.0826 35.7256C27.2188 30.4059 19.7341 26.2053 17.6928 28.2975Z" fill="white"/>
<path d="M17.2497 45.4896C16.9174 45.4896 16.6009 45.4247 16.3161 45.295C14.2273 44.3705 14.2273 40.5754 14.2273 35.7747C14.2273 31.0064 16.5376 28.6548 17.2972 27.8763C17.7561 27.4221 18.4048 27.1627 19.2119 27.1627C21.2215 27.1627 23.7217 28.6548 25.0035 30.6334C25.763 31.8012 26.4751 33.6501 25.5731 35.9044C22.7406 42.9919 19.3226 45.4896 17.2497 45.4896ZM19.2277 28.298C18.8796 28.298 18.389 28.3628 18.0725 28.6872C17.3921 29.3846 15.3192 31.493 15.3192 35.7909C15.3192 39.8293 15.3192 43.6407 16.7433 44.2732C16.8857 44.3381 17.0598 44.3705 17.2497 44.3705C19.0536 44.3705 22.1077 41.5971 24.5762 35.4828C25.3041 33.6825 24.7186 32.1904 24.1173 31.2659C22.8989 29.417 20.6677 28.298 19.2277 28.298Z" fill="#595757"/>
<path d="M55.1799 29.7409C55.1799 26.8378 45.0841 26.8378 45.0841 29.7409C45.0841 34.7687 45.907 42.6185 50.132 42.6185C54.357 42.6185 55.1799 34.7687 55.1799 29.7409Z" fill="white"/>
<path d="M50.132 43.1699C45.0841 43.1699 44.5303 33.7793 44.5303 29.7409C44.5303 27.8434 47.347 27 50.132 27C52.917 27 55.7337 27.8434 55.7337 29.7409C55.7337 33.7793 55.1799 43.1699 50.132 43.1699ZM50.132 28.1191C47.6476 28.1191 45.6221 28.8489 45.6221 29.7409C45.6221 32.6278 45.9544 42.0508 50.132 42.0508C54.3095 42.0508 54.6418 32.6278 54.6418 29.7409C54.6418 28.8489 52.6164 28.1191 50.132 28.1191Z" fill="#595757"/>
<path d="M65.339 30.6167C65.339 27.5352 55.1799 27.5352 55.1799 30.6167C55.1799 35.9526 57.3162 44.2727 61.2405 44.2727C64.8801 44.2727 65.339 35.9364 65.339 30.6167Z" fill="white"/>
<path d="M61.2407 44.8241C59.2311 44.8241 57.5062 43.0239 56.2403 39.6342C55.2592 36.9906 54.6421 33.536 54.6421 30.6167C54.6421 28.6381 57.4588 27.746 60.2596 27.746C63.0605 27.746 65.8772 28.6381 65.8772 30.6167C65.8772 40.1856 64.3739 44.8241 61.2407 44.8241ZM60.2596 28.8651C57.712 28.8651 55.7181 29.6274 55.7181 30.6167C55.7181 35.9526 57.8702 43.7213 61.2407 43.7213C63.5352 43.7213 64.8011 39.0666 64.8011 30.6167C64.8011 29.6274 62.8073 28.8651 60.2596 28.8651Z" fill="#595757"/>
<path d="M34.9725 29.7409C34.9725 26.8378 45.0683 26.8378 45.0683 29.7409C45.0683 34.7687 44.2454 42.6185 40.0204 42.6185C35.7954 42.6185 34.9725 34.7687 34.9725 29.7409Z" fill="white"/>
<path d="M40.0362 43.1699C34.9883 43.1699 34.4344 33.7793 34.4344 29.7409C34.4344 27.8434 37.2511 27 40.0362 27C42.8212 27 45.6379 27.8434 45.6379 29.7409C45.6221 33.7793 45.084 43.1699 40.0362 43.1699ZM40.0362 28.1191C37.5518 28.1191 35.5263 28.8489 35.5263 29.7409C35.5263 32.6278 35.8586 42.0508 40.0362 42.0508C44.2137 42.0508 44.546 32.6278 44.546 29.7409C44.5302 28.8489 42.5205 28.1191 40.0362 28.1191Z" fill="#595757"/>
<path d="M24.8136 30.6167C24.8136 27.5352 34.9726 27.5352 34.9726 30.6167C34.9726 35.9526 32.8364 44.2727 28.912 44.2727C25.2883 44.2727 24.8136 35.9364 24.8136 30.6167Z" fill="white"/>
<path d="M28.9118 44.8241C25.7945 44.8241 24.2754 40.1694 24.2754 30.6167C24.2754 28.6381 27.0921 27.746 29.8929 27.746C32.6938 27.746 35.5105 28.6381 35.5105 30.6167C35.5105 33.536 34.8933 37.0068 33.9122 39.6342C32.6621 43.0401 30.9215 44.8241 28.9118 44.8241ZM29.8929 28.8651C27.3453 28.8651 25.3514 29.6274 25.3514 30.6167C25.3514 39.0666 26.6173 43.7213 28.9118 43.7213C32.2824 43.7213 34.4344 35.9688 34.4344 30.6167C34.4344 29.6274 32.4406 28.8651 29.8929 28.8651Z" fill="#595757"/>
</svg>
