<svg width="97" height="65" viewBox="0 0 97 65" fill="none" xmlns="http://www.w3.org/2000/svg">
<path d="M87.1081 49.8096C87.2258 48.4943 89.7123 47.9168 89.5358 43.2971C89.3592 38.6775 88.6824 33.9616 88.6824 33.9616C59.1538 20.1828 45.0294 32.8387 45.0294 32.8387C45.0294 32.8387 30.9051 20.1828 1.37643 33.9616C1.37643 33.9616 0.699636 38.6775 0.523082 43.2971C0.346528 47.9168 2.84771 48.4782 2.9507 49.8096L9.98344 58.6319H81.6055L87.1081 49.8096Z" fill="#F8C8B9"/>
<path d="M81.6055 59.1773H9.9834C9.83627 59.1773 9.70386 59.1131 9.60087 58.9848L2.56813 50.1625C2.49457 50.0823 2.45043 49.97 2.45043 49.8577C2.43572 49.6011 2.1856 49.3124 1.86192 48.9434C1.08214 48.0131 -0.109604 46.6015 0.00809865 43.2811C0.184653 38.6775 0.861444 33.9295 0.861444 33.8814C0.890869 33.6889 1.00857 33.5285 1.1557 33.4643C10.3659 29.1655 19.0171 27 26.8885 27C37.6877 27 43.6022 31.0583 45 32.165C46.3977 31.0583 52.3122 27 63.1115 27C70.9828 27 79.6487 29.1815 88.8442 33.4643C89.0061 33.5445 89.1238 33.7049 89.1385 33.8814C89.1385 33.9295 89.83 38.6935 89.9918 43.2811C90.1095 46.6015 88.9325 48.0131 88.138 48.9434C87.829 49.3124 87.5789 49.6171 87.5495 49.8577C87.5348 49.954 87.5053 50.0342 87.4612 50.1144L81.9586 58.9367C81.9292 59.081 81.7673 59.1773 81.6055 59.1773ZM10.2188 58.0705H81.3407L86.6226 49.6011C86.7256 49.0557 87.0787 48.6387 87.4465 48.1895C88.1674 47.3394 89.1385 46.1845 89.0355 43.3132C88.8883 39.4314 88.3734 35.4373 88.2263 34.3305C79.2367 30.176 70.8063 28.0747 63.1409 28.0747C51.297 28.0747 45.3972 33.2077 45.3384 33.2558C45.1471 33.4162 44.8823 33.4162 44.691 33.2558C44.6321 33.2077 38.7323 28.0747 26.8885 28.0747C19.2231 28.0747 10.7926 30.176 1.80306 34.3305C1.65594 35.4373 1.14099 39.4314 0.993858 43.3132C0.890868 46.1684 1.86192 47.3394 2.58285 48.1895C2.95067 48.6226 3.28906 49.0397 3.40676 49.553L10.2188 58.0705Z" fill="#595757"/>
<path d="M81.3112 53.3867C81.3112 53.3867 83.7977 50.2748 85.4455 48.8632C87.0934 47.4517 87.2699 49.3124 86.9904 51.125C86.6961 52.9375 86.1223 56.691 85.372 60.0114C84.6216 63.3318 82.8561 65.9143 80.4873 63.4762C78.1185 61.038 77.4859 57.6534 81.3112 53.3867Z" fill="white"/>
<path d="M82.3117 65C81.5908 65 80.8698 64.6311 80.1489 63.8772C78.7953 62.4817 78.1038 60.9418 78.0744 59.2896C78.045 57.2845 79.0013 55.1672 80.9434 53.0177C81.1494 52.7611 83.5034 49.8257 85.1366 48.4302C85.6221 48.0131 86.034 47.8206 86.4166 47.8206C86.7403 47.8206 87.0051 47.965 87.2111 48.2216C87.726 48.8953 87.6377 50.2267 87.4906 51.2212L87.417 51.6864C87.1228 53.5631 86.5637 57.076 85.8722 60.1558C85.166 63.2356 83.8713 65 82.3117 65ZM86.4166 48.9274C86.3724 48.9274 86.1665 48.9595 85.7692 49.3124C84.1802 50.6758 81.7232 53.7396 81.7085 53.7717C81.7085 53.7877 81.6938 53.7877 81.6938 53.8037C79.9429 55.7446 79.0749 57.5893 79.1043 59.2896C79.1337 60.637 79.7222 61.9202 80.8551 63.1072C81.3848 63.6526 81.8703 63.9253 82.3117 63.9253C83.3416 63.9253 84.3274 62.3854 84.8864 59.9152C85.5779 56.8675 86.1223 53.3867 86.4166 51.526L86.4901 51.0608C86.7108 49.6492 86.5196 49.0237 86.4313 48.9435C86.4313 48.9274 86.4166 48.9274 86.4166 48.9274Z" fill="#595757"/>
<path d="M71.5565 51.895C71.5565 51.895 74.7934 46.778 76.2499 45.0938C77.6918 43.4095 80.1341 42.4471 81.0169 44.3559C81.8997 46.2808 81.5319 55.7447 80.399 59.0169C79.2661 62.2892 76.9267 64.7915 74.3961 62.7223C71.8361 60.6691 68.2167 57.5733 71.5565 51.895Z" fill="white"/>
<path d="M76.25 64.0376C75.5144 64.0376 74.7787 63.7489 74.0725 63.1714C72.8513 62.1769 71.1888 60.8295 70.306 58.9207C69.2908 56.7231 69.5557 54.2689 71.1299 51.6062C71.1299 51.6062 71.1299 51.5902 71.1446 51.5902C71.2771 51.3816 74.4256 46.4251 75.8822 44.7248C76.9121 43.5378 78.2951 42.7518 79.428 42.7518C80.3402 42.7518 81.0611 43.233 81.4731 44.1153C82.4441 46.2166 82.0616 55.8249 80.8698 59.2254C79.8105 62.2411 78.0891 64.0376 76.25 64.0376ZM71.9686 52.1997C69.0848 57.1081 71.6007 59.7708 74.6757 62.2731C75.2054 62.7062 75.7203 62.9148 76.2353 62.9148C77.8831 62.9148 79.2073 60.7974 79.8988 58.8084C81.0464 55.504 81.3259 46.2807 80.5462 44.5804C80.3108 44.0672 79.9429 43.8265 79.4133 43.8265C78.5599 43.8265 77.4417 44.4682 76.6031 45.4466C75.2348 47.0828 72.1157 51.9751 71.9686 52.1997Z" fill="#595757"/>
<path d="M71.8947 58.3271C71.8947 62.2892 60.2422 62.2892 60.2422 58.3271C60.2422 51.4939 62.5668 42.9603 66.0685 42.9603C70.9531 42.9603 71.8947 51.4939 71.8947 58.3271Z" fill="white"/>
<path d="M66.0834 61.856C62.9348 61.856 59.7568 60.7653 59.7568 58.3432C59.7568 54.7982 60.3601 50.9004 61.39 47.9008C62.6111 44.3237 64.2443 42.4149 66.0834 42.4149C68.511 42.4149 70.2765 44.2756 71.3064 47.9168C72.0421 50.4993 72.4099 54.0122 72.4099 58.3271C72.4099 60.7653 69.2319 61.856 66.0834 61.856ZM66.0834 43.5217C63.0819 43.5217 60.7573 51.4939 60.7573 58.3432C60.7573 59.9151 63.4939 60.7653 66.0834 60.7653C68.6581 60.7653 71.4094 59.9151 71.4094 58.3432C71.3947 51.5741 70.4678 43.5217 66.0834 43.5217Z" fill="#595757"/>
<path d="M8.74742 53.3867C8.74742 53.3867 6.26095 50.2748 4.61312 48.8632C2.96528 47.4517 2.78872 49.3124 3.06827 51.125C3.36252 52.9375 3.93633 56.691 4.68668 60.0114C5.43703 63.3318 7.20257 65.9143 9.57134 63.4762C11.9401 61.038 12.5728 57.6534 8.74742 53.3867Z" fill="white"/>
<path d="M7.74694 65C6.18738 65 4.87793 63.2356 4.18643 60.1558C3.48021 57.076 2.93584 53.5631 2.64158 51.6864L2.56802 51.2212C2.40618 50.2267 2.33261 48.8953 2.84756 48.2216C3.05354 47.9489 3.33309 47.8206 3.64206 47.8206C4.02459 47.8206 4.43655 48.0131 4.92207 48.4302C6.5552 49.8257 8.92396 52.7611 9.11523 53.0177C11.0573 55.1672 12.0137 57.2845 11.9842 59.2896C11.9548 60.9418 11.2633 62.4817 9.90972 63.8772C9.18879 64.615 8.46787 65 7.74694 65ZM3.64206 48.9274C3.62734 48.9274 3.62734 48.9274 3.62734 48.9274C3.53907 48.9916 3.33309 49.6172 3.56849 51.0448L3.64206 51.5099C3.93631 53.3706 4.48069 56.8514 5.17219 59.8991C5.73128 62.3694 6.71704 63.9093 7.74694 63.9093C8.18832 63.9093 8.68856 63.6366 9.20351 63.0912C10.3511 61.9042 10.9396 60.637 10.9543 59.2735C10.9838 57.5733 10.1157 55.7286 8.36488 53.7877C8.36488 53.7877 8.35016 53.7717 8.35016 53.7556C8.32074 53.7235 5.87841 50.6598 4.28942 49.2963C3.89218 48.9435 3.70091 48.9274 3.64206 48.9274Z" fill="#595757"/>
<path d="M18.5021 51.895C18.5021 51.895 15.2653 46.778 13.8087 45.0938C12.3669 43.4095 9.92455 42.4471 9.04178 44.3559C8.15901 46.2808 8.52684 55.7447 9.65973 59.0169C10.7926 62.2892 13.132 64.7915 15.6626 62.7223C18.2226 60.6691 21.842 57.5733 18.5021 51.895Z" fill="white"/>
<path d="M13.8087 64.0376C11.9696 64.0376 10.2482 62.2411 9.20358 59.2254C8.02655 55.8249 7.64402 46.2166 8.60035 44.1153C8.9976 43.233 9.73324 42.7518 10.6454 42.7518C11.7783 42.7518 13.1613 43.5218 14.1912 44.7248C15.6478 46.4251 18.7964 51.3816 18.9288 51.5902C18.9288 51.5902 18.9288 51.6062 18.9435 51.6062C20.503 54.2689 20.7826 56.7231 19.7674 58.9207C18.8846 60.8295 17.2221 62.1769 16.0009 63.1714C15.28 63.7489 14.5443 64.0376 13.8087 64.0376ZM10.6454 43.8586C10.1158 43.8586 9.74796 44.0992 9.51255 44.6125C8.73277 46.3128 8.9976 55.5361 10.1599 58.8405C10.8514 60.8295 12.1756 62.9468 13.8234 62.9468C14.3384 62.9468 14.868 62.7383 15.383 62.3052C18.458 59.8029 20.9739 57.1402 18.0901 52.2318C17.943 52.0072 14.8386 47.1149 13.4556 45.4948C12.617 44.5002 11.4988 43.8586 10.6454 43.8586Z" fill="#595757"/>
<path d="M18.1636 58.3271C18.1636 62.2892 29.8161 62.2892 29.8161 58.3271C29.8161 51.4939 27.4915 42.9603 23.9899 42.9603C19.1052 42.9603 18.1636 51.4939 18.1636 58.3271Z" fill="white"/>
<path d="M23.9752 61.856C20.8267 61.856 17.6487 60.7653 17.6487 58.3432C17.6487 54.0283 18.0165 50.5154 18.7521 47.9329C19.782 44.2756 21.5476 42.431 23.9752 42.431C25.829 42.431 27.4474 44.3238 28.6686 47.9168C29.6838 50.9164 30.3017 54.8142 30.3017 58.3592C30.3164 60.7653 27.1385 61.856 23.9752 61.856ZM23.9752 43.5217C19.5761 43.5217 18.6492 51.5741 18.6492 58.3432C18.6492 59.9151 21.3857 60.7653 23.9752 60.7653C26.5499 60.7653 29.3013 59.9151 29.3013 58.3432C29.3013 51.4778 26.9766 43.5217 23.9752 43.5217Z" fill="#595757"/>
<path d="M60.2571 59.7387C60.2571 63.7328 45.0293 63.7328 45.0293 59.7387C45.0293 52.8413 46.2652 42.0621 52.6358 42.0621C59.0065 42.0621 60.2571 52.8413 60.2571 59.7387Z" fill="white"/>
<path d="M52.6359 63.2836C48.8841 63.2836 44.5144 62.3533 44.5144 59.7387C44.5144 54.2528 45.3089 41.5167 52.6359 41.5167C59.9629 41.5167 60.7574 54.2689 60.7574 59.7387C60.7574 62.3533 56.3877 63.2836 52.6359 63.2836ZM52.6359 42.6074C50.0611 42.6074 48.1338 44.5804 46.9126 48.4782C45.7061 52.3601 45.5296 57.1882 45.5296 59.7226C45.5296 61.0861 48.6487 62.1608 52.6359 62.1608C56.6231 62.1608 59.7422 61.0861 59.7422 59.7226C59.7422 57.1882 59.5656 52.3601 58.3592 48.4782C57.1527 44.5964 55.2254 42.6074 52.6359 42.6074Z" fill="#595757"/>
<path d="M29.8015 59.7387C29.8015 63.7328 45.0293 63.7328 45.0293 59.7387C45.0293 52.8413 43.7934 42.0621 37.4228 42.0621C31.0521 42.0621 29.8015 52.8413 29.8015 59.7387Z" fill="white"/>
<path d="M37.4228 63.2836C33.6857 63.2836 29.3013 62.3533 29.3013 59.7387C29.3013 54.2528 30.0958 41.5167 37.4228 41.5167C44.7497 41.5167 45.5442 54.2689 45.5442 59.7387C45.5295 62.3533 41.1598 63.2836 37.4228 63.2836ZM37.4228 42.6074C34.848 42.6074 32.9206 44.5804 31.6995 48.4782C30.493 52.3601 30.3165 57.1882 30.3165 59.7226C30.3165 61.0861 33.4356 62.1608 37.4228 62.1608C41.4099 62.1608 44.5291 61.0861 44.5291 59.7226C44.5291 57.1882 44.3525 52.3601 43.1461 48.4782C41.9249 44.5964 39.9975 42.6074 37.4228 42.6074Z" fill="#595757"/>
<path d="M81.1515 35.6465L73.3515 27.8016C72.8828 27.3303 72.8828 26.5662 73.3515 26.0948L75.0485 24.388C75.5171 23.9166 76.2769 23.9166 76.7455 24.388L82 29.6726L93.2545 18.3535C93.7231 17.8822 94.4829 17.8822 94.9515 18.3535L96.6485 20.0603C97.1172 20.5316 97.1172 21.2958 96.6485 21.7671L82.8485 35.6465C82.3799 36.1178 81.6201 36.1178 81.1515 35.6465V35.6465Z" fill="#726AA6"/>
</svg>
