<svg width="97" height="65" viewBox="0 0 97 65" fill="none" xmlns="http://www.w3.org/2000/svg">
<path d="M4.94185 49.6505C4.86185 50.5954 3.06758 51.0103 3.19329 54.3291C3.31901 57.6479 3.05615 59.9987 3.05615 59.9987C24.3131 69.8976 35.2273 60.8054 35.2273 60.8054C35.2273 60.8054 45.9016 69.8976 67.1585 59.9987C67.1585 59.9987 67.1357 57.6479 67.2614 54.3291C67.3871 51.0103 65.5928 50.6069 65.5128 49.6505L61.2957 41.9411L61.5357 41.5724H8.2904L4.94185 49.6505Z" fill="#FFE9E2"/>
<path d="M48.633 65C40.7359 65 36.3016 62.096 35.2274 61.2894C34.1416 62.0845 29.6274 65 21.6503 65C15.8332 65 9.52468 63.4328 2.89616 60.3444C2.74759 60.2753 2.65616 60.1139 2.66759 59.9411C2.66759 59.918 2.91901 57.5787 2.80473 54.3291C2.7133 51.9552 3.57044 50.9411 4.14186 50.2727C4.38186 49.9962 4.54186 49.7887 4.56472 49.6043C4.56472 49.5582 4.57614 49.5237 4.599 49.4891L7.93612 41.411C7.99326 41.2612 8.14183 41.169 8.30183 41.169H61.5472C61.6957 41.169 61.8214 41.2497 61.89 41.3764C61.9586 41.5032 61.9472 41.6645 61.8672 41.7798L61.7529 41.9411L65.8557 49.4315C65.8786 49.4776 65.9014 49.5352 65.9014 49.5928C65.9128 49.7772 66.0843 49.9846 66.3243 50.2612C66.8843 50.9296 67.7414 51.9437 67.6614 54.3175C67.5357 57.5903 67.5585 59.9411 67.5585 59.9641C67.5585 60.1139 67.4671 60.2638 67.33 60.3214C60.6786 63.4328 54.3929 65 48.633 65ZM35.2274 60.3905C35.3188 60.3905 35.4102 60.4251 35.4788 60.4827C35.5245 60.5173 39.9702 64.2049 48.633 64.2049C54.2215 64.2049 60.3243 62.6953 66.7585 59.7337C66.7585 59.0307 66.77 56.968 66.8614 54.306C66.9414 52.2433 66.2328 51.402 65.7186 50.7913C65.4443 50.4686 65.1928 50.169 65.1243 49.7657L60.9414 42.1255C60.9186 42.0794 60.8957 42.0218 60.8957 41.9641H8.55326L5.33042 49.7542C5.27328 50.1575 5.01043 50.4686 4.73614 50.8028C4.22186 51.4136 3.5133 52.2548 3.59329 54.3175C3.69615 57.0025 3.54758 59.0307 3.47901 59.7567C9.91325 62.7183 16.0275 64.2164 21.6503 64.2164C30.3817 64.2164 34.9302 60.5288 34.9759 60.4942C35.0445 60.4251 35.1359 60.3905 35.2274 60.3905Z" fill="#BCBCBC"/>
<path d="M62.8615 41.388C62.8615 41.388 63.7644 42.1831 64.5644 44.1191C65.3643 46.0551 65.5815 49.6735 65.1815 49.4546C64.7815 49.2356 62.4272 47.3688 60.8387 44.7759C59.2387 42.1831 57.9358 37.8502 62.8615 41.388Z" fill="white"/>
<path d="M65.2157 49.8579C65.1357 49.8579 65.0672 49.8348 64.9986 49.8003C64.53 49.5352 62.1186 47.5992 60.5072 44.9834C59.7301 43.7158 58.5758 41.2843 59.1815 40.1895C59.3644 39.8553 59.7072 39.6594 60.1301 39.6594C60.8043 39.6594 61.7758 40.1204 63.09 41.0653C63.1015 41.0768 63.1129 41.0768 63.1243 41.0884C63.1586 41.1229 64.1072 41.9642 64.93 43.9693C65.6157 45.6287 66.0157 49.0167 65.6043 49.6389C65.5129 49.7772 65.3643 49.8579 65.2157 49.8579ZM60.1301 40.4546C59.9358 40.4546 59.8901 40.5352 59.8672 40.5698C59.5701 41.0999 60.1758 42.9322 61.1701 44.5685C62.4158 46.5967 64.1757 48.1985 64.9872 48.8323C65.0215 47.8873 64.77 45.6402 64.21 44.2689C63.5129 42.5749 62.7243 41.7913 62.6215 41.6991C61.1015 40.6159 60.4043 40.4546 60.1301 40.4546Z" fill="#BCBCBC"/>
<path d="M59.3187 39.8208C59.3187 39.8208 62.1529 42.4827 62.1529 44.9257C62.1529 47.3688 62.3586 50.1114 61.9244 50.1114C61.4901 50.1114 57.5015 47.1844 55.9815 45.7324C54.4616 44.2689 56.8158 36.8707 59.3187 39.8208Z" fill="white"/>
<path d="M61.9244 50.5032C61.7872 50.5032 61.4672 50.5032 59.1358 48.7862C58.0387 47.9795 56.5644 46.8271 55.7187 46.009C54.8044 45.1332 55.033 42.8515 55.7073 41.146C56.313 39.6133 57.193 38.726 58.1187 38.726C58.6444 38.726 59.1358 39.0026 59.6044 39.5326C59.8672 39.7862 62.5415 42.402 62.5415 44.9142C62.5415 45.5365 62.5529 46.1818 62.5643 46.8041C62.6101 49.1549 62.5986 50.0077 62.2786 50.3419C62.1872 50.4456 62.0615 50.5032 61.9244 50.5032ZM58.1187 39.5326C57.5472 39.5326 56.9072 40.2702 56.4387 41.4571C55.7987 43.0589 55.7187 44.9257 56.2558 45.4443C57.6387 46.7695 60.7929 49.0858 61.7529 49.6159C61.8329 49.0973 61.8101 47.8527 61.7872 46.8387C61.7758 46.2164 61.7643 45.571 61.7643 44.9372C61.7643 42.7017 59.0787 40.1434 59.0558 40.1203C59.0444 40.1088 59.0329 40.0973 59.0215 40.0858C58.7015 39.717 58.4044 39.5326 58.1187 39.5326Z" fill="#BCBCBC"/>
<path d="M55.0101 38.9219C55.5929 39.5096 57.1129 41.1114 57.1129 44.2574C57.1129 47.4033 57.1129 50.0999 55.8444 50.653C54.5758 51.2062 51.8673 49.5583 49.673 44.1997C48.1301 40.42 53.5358 37.4353 55.0101 38.9219Z" fill="white"/>
<path d="M55.3187 51.137C53.833 51.137 51.3645 49.3508 49.3073 44.338C48.6559 42.7362 49.1702 41.4225 49.7188 40.5928C50.6559 39.187 52.4502 38.1268 53.9016 38.1268C54.4844 38.1268 54.953 38.2996 55.2844 38.6338C55.833 39.187 57.5015 40.8579 57.5015 44.2458C57.5015 47.6569 57.5015 50.3534 55.993 51.0103C55.7987 51.0909 55.5701 51.137 55.3187 51.137ZM53.9016 38.9219C52.8502 38.9219 51.2502 39.717 50.3702 41.0307C49.9245 41.6991 49.513 42.7593 50.0387 44.0269C51.8102 48.3598 54.0273 50.3419 55.3301 50.3419C55.4673 50.3419 55.593 50.3188 55.6959 50.2727C56.7244 49.8233 56.7244 47.1152 56.7244 44.2458C56.7244 41.1921 55.2273 39.694 54.7359 39.1985C54.5073 38.968 54.153 38.9219 53.9016 38.9219Z" fill="#BCBCBC"/>
<path d="M7.58189 41.388C7.58189 41.388 6.67904 42.1831 5.87905 44.1191C5.07906 46.0551 4.86191 49.6735 5.26191 49.4546C5.66191 49.2356 8.01618 47.3688 9.60473 44.7759C11.2047 42.1831 12.5076 37.8502 7.58189 41.388Z" fill="white"/>
<path d="M5.23907 49.8579C5.07907 49.8579 4.94193 49.7772 4.8505 49.6389C4.43907 49.0167 4.83907 45.6287 5.52478 43.9693C6.34763 41.9757 7.2962 41.1229 7.33048 41.0884C7.34191 41.0768 7.35334 41.0768 7.36476 41.0653C8.67904 40.1204 9.65047 39.6594 10.3247 39.6594C10.7476 39.6594 11.0905 39.8438 11.2733 40.1895C11.879 41.2843 10.7247 43.7273 9.9476 44.9834C8.33619 47.5992 5.92478 49.5352 5.45621 49.8003C5.38764 49.8348 5.30764 49.8579 5.23907 49.8579ZM7.83333 41.6991C7.73048 41.7913 6.94191 42.5749 6.24477 44.2689C5.68478 45.6402 5.43335 47.8758 5.46764 48.8323C6.27906 48.1985 8.03905 46.5967 9.28475 44.5685C10.2905 42.9322 10.8847 41.1114 10.5876 40.5698C10.5647 40.5237 10.519 40.4546 10.3247 40.4546C10.039 40.4546 9.34189 40.6159 7.83333 41.6991Z" fill="#BCBCBC"/>
<path d="M11.1361 39.8208C11.1361 39.8208 8.30186 42.4827 8.30186 44.9257C8.30186 47.3688 8.09615 50.1114 8.53043 50.1114C8.96471 50.1114 12.9533 47.1844 14.4732 45.7324C15.9932 44.2689 13.639 36.8707 11.1361 39.8208Z" fill="white"/>
<path d="M8.53046 50.5032C8.39331 50.5032 8.2676 50.4456 8.16474 50.3419C7.84474 50.0077 7.83332 49.1549 7.87903 46.8041C7.89046 46.1818 7.90189 45.5365 7.90189 44.9142C7.90189 42.402 10.5876 39.7862 10.839 39.5326C11.2962 38.991 11.799 38.726 12.3247 38.726C13.2504 38.726 14.1304 39.6018 14.7361 41.146C15.4104 42.8515 15.639 45.1332 14.7247 46.009C13.879 46.8271 12.4047 47.968 11.3076 48.7862C8.98759 50.5032 8.6676 50.5032 8.53046 50.5032ZM12.3361 39.5326C12.0504 39.5326 11.7419 39.717 11.4333 40.0858C11.4219 40.0973 11.4104 40.1088 11.399 40.1203C11.3761 40.1434 8.69045 42.6901 8.69045 44.9372C8.69045 45.571 8.67903 46.2164 8.6676 46.8387C8.64474 47.8643 8.62188 49.0973 8.70188 49.6159C9.66188 49.0858 12.8161 46.7695 14.199 45.4443C14.7361 44.9257 14.6561 43.0589 14.0161 41.4571C13.5476 40.2586 12.9076 39.5326 12.3361 39.5326Z" fill="#BCBCBC"/>
<path d="M15.4448 38.9219C14.8619 39.5096 13.3419 41.1114 13.3419 44.2574C13.3419 47.4033 13.3419 50.0999 14.6105 50.653C15.879 51.2062 18.5876 49.5583 20.7819 44.1997C22.3247 40.42 16.919 37.4353 15.4448 38.9219Z" fill="white"/>
<path d="M15.1247 51.1373C14.8847 51.1373 14.6562 51.0912 14.4505 50.9991C12.9419 50.3422 12.9419 47.6457 12.9419 44.2346C12.9419 40.8467 14.6105 39.1757 15.159 38.6226C15.4904 38.2999 15.959 38.1156 16.5419 38.1156C17.9933 38.1156 19.799 39.1757 20.7247 40.5816C21.2733 41.4113 21.7875 42.725 21.1361 44.3268C19.0904 49.3627 16.6219 51.1373 15.1247 51.1373ZM16.5533 38.9222C16.3019 38.9222 15.9476 38.9683 15.719 39.1988C15.2276 39.6943 13.7305 41.1924 13.7305 44.2462C13.7305 47.1156 13.7305 49.8236 14.759 50.2731C14.8619 50.3192 14.9876 50.3422 15.1247 50.3422C16.4276 50.3422 18.6333 48.3717 20.4161 44.0272C20.9418 42.7481 20.519 41.6879 20.0847 41.0311C19.2047 39.7174 17.5933 38.9222 16.5533 38.9222Z" fill="#BCBCBC"/>
<path d="M42.5188 39.9475C42.5188 37.8848 35.2274 37.8848 35.2274 39.9475C35.2274 43.5199 35.8217 49.0973 38.8731 49.0973C41.9245 49.0973 42.5188 43.5199 42.5188 39.9475Z" fill="white"/>
<path d="M38.8731 49.4891C35.2274 49.4891 34.8274 42.8169 34.8274 39.9475C34.8274 38.5992 36.8617 38 38.8731 38C40.8845 38 42.9188 38.5992 42.9188 39.9475C42.9188 42.8169 42.5188 49.4891 38.8731 49.4891ZM38.8731 38.7951C37.0788 38.7951 35.616 39.3137 35.616 39.9475C35.616 41.9987 35.856 48.694 38.8731 48.694C41.8902 48.694 42.1302 41.9987 42.1302 39.9475C42.1302 39.3137 40.6674 38.7951 38.8731 38.7951Z" fill="#BCBCBC"/>
<path d="M49.8559 40.5698C49.8559 38.3803 42.5188 38.3803 42.5188 40.5698C42.5188 44.3611 44.0616 50.2727 46.8959 50.2727C49.5245 50.2727 49.8559 44.3495 49.8559 40.5698Z" fill="white"/>
<path d="M46.8959 50.6645C45.4445 50.6645 44.1988 49.3854 43.2845 46.977C42.576 45.0986 42.1302 42.644 42.1302 40.5698C42.1302 39.1639 44.1645 38.5301 46.1874 38.5301C48.2102 38.5301 50.2445 39.1639 50.2445 40.5698C50.2445 47.3688 49.1588 50.6645 46.8959 50.6645ZM46.1874 39.3252C44.3474 39.3252 42.9074 39.8668 42.9074 40.5698C42.9074 44.3611 44.4617 49.8809 46.8959 49.8809C48.5531 49.8809 49.4673 46.5736 49.4673 40.5698C49.4673 39.8668 48.0273 39.3252 46.1874 39.3252Z" fill="#BCBCBC"/>
<path d="M27.9246 39.9475C27.9246 37.8848 35.2159 37.8848 35.2159 39.9475C35.2159 43.5199 34.6217 49.0973 31.5702 49.0973C28.5188 49.0973 27.9246 43.5199 27.9246 39.9475Z" fill="white"/>
<path d="M31.5817 49.4891C27.936 49.4891 27.536 42.8169 27.536 39.9475C27.536 38.5992 29.5703 38 31.5817 38C33.5931 38 35.6274 38.5992 35.6274 39.9475C35.616 42.8169 35.2274 49.4891 31.5817 49.4891ZM31.5817 38.7951C29.7874 38.7951 28.3246 39.3137 28.3246 39.9475C28.3246 41.9987 28.5646 48.694 31.5817 48.694C34.5988 48.694 34.8388 41.9987 34.8388 39.9475C34.8274 39.3137 33.376 38.7951 31.5817 38.7951Z" fill="#BCBCBC"/>
<path d="M20.5875 40.5698C20.5875 38.3803 27.9246 38.3803 27.9246 40.5698C27.9246 44.3611 26.3818 50.2727 23.5475 50.2727C20.9304 50.2727 20.5875 44.3495 20.5875 40.5698Z" fill="white"/>
<path d="M23.5474 50.6645C21.296 50.6645 20.1989 47.3572 20.1989 40.5698C20.1989 39.1639 22.2331 38.5301 24.256 38.5301C26.2788 38.5301 28.3131 39.1639 28.3131 40.5698C28.3131 42.644 27.8674 45.1101 27.1588 46.977C26.256 49.3969 24.9988 50.6645 23.5474 50.6645ZM24.256 39.3252C22.416 39.3252 20.976 39.8668 20.976 40.5698C20.976 46.5736 21.8903 49.8809 23.5474 49.8809C25.9817 49.8809 27.5359 44.3726 27.5359 40.5698C27.5359 39.8668 26.096 39.3252 24.256 39.3252Z" fill="#BCBCBC"/>
<path d="M67.7508 26.8073C67.8423 25.8381 69.7762 25.4126 69.6389 22.0086C69.5016 18.6047 68.9752 15.1298 68.9752 15.1298C46.0085 4.97697 35.0229 14.3024 35.0229 14.3024C35.0229 14.3024 24.0373 4.97697 1.07055 15.1298C1.07055 15.1298 0.544161 18.6047 0.406841 22.0086C0.269522 25.4126 2.21489 25.8263 2.29499 26.8073L7.76489 33.3079H63.471L67.7508 26.8073Z" fill="#FFE9E2"/>
<path d="M63.4709 33.7096H7.76487C7.65043 33.7096 7.54745 33.6623 7.46734 33.5677L1.99744 27.0671C1.94022 27.008 1.90589 26.9253 1.90589 26.8425C1.89445 26.6534 1.69991 26.4407 1.44816 26.1688C0.841662 25.4833 -0.0852476 24.4432 0.00629895 21.9966C0.143619 18.6045 0.670012 15.106 0.670012 15.0705C0.692898 14.9287 0.784445 14.8105 0.898878 14.7632C8.06239 11.5956 14.7911 10 20.9132 10C29.3126 10 33.9128 12.9903 35 13.8058C36.0871 12.9903 40.6873 10 49.0867 10C55.2089 10 61.949 11.6074 69.1011 14.7632C69.2269 14.8223 69.3185 14.9405 69.3299 15.0705C69.3299 15.106 69.8678 18.6163 69.9936 21.9966C70.0852 24.4432 69.1697 25.4833 68.5518 26.1688C68.3115 26.4407 68.1169 26.6653 68.094 26.8425C68.0826 26.9135 68.0597 26.9726 68.0254 27.0317L63.7456 33.5323C63.7227 33.6387 63.5968 33.7096 63.4709 33.7096ZM7.94796 32.894H63.265L67.3731 26.6534C67.4532 26.2516 67.7279 25.9443 68.0139 25.6133C68.5747 24.9869 69.3299 24.1359 69.2498 22.0203C69.1354 19.16 68.7349 16.217 68.6204 15.4014C61.6286 12.3402 55.0715 10.7919 49.1096 10.7919C39.8977 10.7919 35.3089 14.5741 35.2632 14.6095C35.1144 14.7277 34.9084 14.7277 34.7597 14.6095C34.7139 14.5741 30.1251 10.7919 20.9132 10.7919C14.9513 10.7919 8.39425 12.3402 1.40238 15.4014C1.28795 16.217 0.887434 19.16 0.773001 22.0203C0.692898 24.1241 1.44816 24.9869 2.00888 25.6133C2.29496 25.9325 2.55816 26.2398 2.64971 26.618L7.94796 32.894Z" fill="#BCBCBC"/>
<path d="M63.2421 29.443C63.2421 29.443 65.176 27.1501 66.4577 26.11C67.7393 25.0699 67.8766 26.4409 67.6592 27.7765C67.4303 29.1121 66.9841 31.8778 66.4004 34.3244C65.8168 36.771 64.4436 38.6739 62.6013 36.8774C60.7589 35.0808 60.2668 32.587 63.2421 29.443Z" fill="white"/>
<path d="M64.0202 38C63.4595 38 62.8987 37.7282 62.338 37.1727C61.2852 36.1444 60.7474 35.0097 60.7245 33.7923C60.7016 32.3149 61.4454 30.7548 62.956 29.171C63.1162 28.9819 64.9471 26.8189 66.2173 25.7907C66.5949 25.4834 66.9153 25.3415 67.2129 25.3415C67.4646 25.3415 67.6706 25.4479 67.8308 25.637C68.2313 26.1334 68.1627 27.1144 68.0482 27.8472L67.991 28.19C67.7622 29.5728 67.3273 32.1613 66.7895 34.4306C66.2402 36.6999 65.2332 38 64.0202 38ZM67.2129 26.1571C67.1785 26.1571 67.0183 26.1807 66.7094 26.4407C65.4735 27.4454 63.5625 29.7029 63.551 29.7265C63.551 29.7383 63.5396 29.7383 63.5396 29.7501C62.1778 31.1803 61.5027 32.5395 61.5255 33.7923C61.5484 34.7852 62.0062 35.7307 62.8873 36.6053C63.2993 37.0072 63.6769 37.2081 64.0202 37.2081C64.8212 37.2081 65.5879 36.0735 66.0228 34.2533C66.5606 32.0076 66.984 29.4428 67.2129 28.0718L67.2701 27.729C67.4417 26.6889 67.293 26.228 67.2243 26.1689C67.2243 26.1571 67.2129 26.1571 67.2129 26.1571Z" fill="#BCBCBC"/>
<path d="M55.6551 28.3442C55.6551 28.3442 58.1727 24.5738 59.3055 23.3328C60.427 22.0918 62.3266 21.3826 63.0132 22.7891C63.6998 24.2074 63.4137 31.1808 62.5326 33.592C61.6514 36.0031 59.8319 37.8469 57.8637 36.3222C55.8726 34.8094 53.0575 32.5282 55.6551 28.3442Z" fill="white"/>
<path d="M59.3056 37.2912C58.7334 37.2912 58.1613 37.0785 57.612 36.653C56.6622 35.9202 55.3691 34.9274 54.6825 33.5209C53.8929 31.9016 54.0989 30.0933 55.3233 28.1313C55.3233 28.1313 55.3233 28.1194 55.3348 28.1194C55.4377 27.9658 57.8866 24.3136 59.0195 23.0608C59.8205 22.1861 60.8962 21.607 61.7773 21.607C62.4868 21.607 63.0476 21.9616 63.368 22.6116C64.1232 24.16 63.8257 31.2398 62.8988 33.7454C62.0749 35.9675 60.736 37.2912 59.3056 37.2912ZM55.9756 28.5686C53.7327 32.1853 55.6895 34.1473 58.0812 35.9911C58.4931 36.3102 58.8936 36.4639 59.2941 36.4639C60.5758 36.4639 61.6057 34.9037 62.1435 33.4381C63.0361 31.0034 63.2535 24.2072 62.647 22.9544C62.4639 22.5762 62.1779 22.3989 61.7659 22.3989C61.1022 22.3989 60.2325 22.8717 59.5802 23.5926C58.516 24.7982 56.09 28.4031 55.9756 28.5686Z" fill="#BCBCBC"/>
<path d="M55.9182 33.0837C55.9182 36.003 46.8551 36.003 46.8551 33.0837C46.8551 28.0486 48.6631 21.7607 51.3867 21.7607C55.1858 21.7607 55.9182 28.0486 55.9182 33.0837Z" fill="white"/>
<path d="M51.3982 35.6837C48.9493 35.6837 46.4775 34.88 46.4775 33.0953C46.4775 30.4832 46.9467 27.6111 47.7478 25.4009C48.6975 22.7652 49.9678 21.3587 51.3982 21.3587C53.2863 21.3587 54.6595 22.7297 55.4605 25.4127C56.0327 27.3156 56.3188 29.9041 56.3188 33.0835C56.3188 34.88 53.847 35.6837 51.3982 35.6837ZM51.3982 22.1742C49.0637 22.1742 47.2557 28.0484 47.2557 33.0953C47.2557 34.2536 49.3841 34.88 51.3982 34.88C53.4007 34.88 55.5406 34.2536 55.5406 33.0953C55.5292 28.1075 54.8083 22.1742 51.3982 22.1742Z" fill="#BCBCBC"/>
<path d="M6.80358 29.443C6.80358 29.443 4.86966 27.1501 3.58801 26.11C2.30635 25.0699 2.16903 26.4409 2.38646 27.7765C2.61532 29.1121 3.06161 31.8778 3.64522 34.3244C4.22883 36.771 5.60203 38.6739 7.4444 36.8774C9.28678 35.0808 9.77884 32.587 6.80358 29.443Z" fill="white"/>
<path d="M6.02542 38C4.81243 38 3.79398 36.6999 3.25614 34.4306C2.70686 32.1613 2.28346 29.5728 2.05459 28.19L1.99737 27.8472C1.8715 27.1144 1.81428 26.1334 2.2148 25.637C2.37501 25.4361 2.59243 25.3415 2.83274 25.3415C3.13026 25.3415 3.45068 25.4834 3.82831 25.7907C5.09851 26.8189 6.94089 28.9819 7.08965 29.171C8.60017 30.7548 9.34399 32.3149 9.3211 33.7923C9.29821 35.0097 8.76038 36.1444 7.70759 37.1727C7.14687 37.7164 6.58615 38 6.02542 38ZM2.83274 26.1571C2.82129 26.1571 2.8213 26.1571 2.8213 26.1571C2.75264 26.2043 2.59243 26.6653 2.77552 27.7172L2.83274 28.06C3.0616 29.431 3.48501 31.9958 4.02284 34.2415C4.45769 36.0617 5.22439 37.1963 6.02542 37.1963C6.36872 37.1963 6.7578 36.9954 7.15831 36.5935C8.05089 35.7189 8.50862 34.7852 8.52007 33.7805C8.54295 32.5277 7.8678 31.1685 6.50604 29.7383C6.50604 29.7383 6.4946 29.7265 6.4946 29.7147C6.47171 29.691 4.57212 27.4335 3.33624 26.4289C3.02727 26.1689 2.87851 26.1571 2.83274 26.1571Z" fill="#BCBCBC"/>
<path d="M14.3905 28.3442C14.3905 28.3442 11.873 24.5738 10.7401 23.3328C9.61866 22.0918 7.71907 21.3826 7.03247 22.7891C6.34587 24.2074 6.63196 31.1808 7.51309 33.592C8.39423 36.0031 10.2137 37.8469 12.182 36.3222C14.1731 34.8094 16.9882 32.5282 14.3905 28.3442Z" fill="white"/>
<path d="M10.7401 37.2912C9.30967 37.2912 7.9708 35.9675 7.15833 33.7454C6.24286 31.2398 5.94533 24.16 6.68915 22.6116C6.99812 21.9616 7.57029 21.607 8.27977 21.607C9.16091 21.607 10.2366 22.1743 11.0376 23.0608C12.1705 24.3136 14.6194 27.9658 14.7224 28.1194C14.7224 28.1194 14.7224 28.1313 14.7338 28.1313C15.9468 30.0933 16.1642 31.9016 15.3746 33.5209C14.688 34.9274 13.3949 35.9202 12.4451 36.653C11.8844 37.0785 11.3123 37.2912 10.7401 37.2912ZM8.27977 22.4225C7.86781 22.4225 7.58173 22.5998 7.39864 22.978C6.79214 24.2309 6.99812 31.027 7.90214 33.4618C8.43998 34.9274 9.46988 36.4875 10.7515 36.4875C11.152 36.4875 11.564 36.3339 11.9645 36.0148C14.3562 34.1709 16.313 32.2089 14.0701 28.5922C13.9557 28.4267 11.5411 24.8219 10.4654 23.6281C9.81318 22.8953 8.94348 22.4225 8.27977 22.4225Z" fill="#BCBCBC"/>
<path d="M14.1273 33.0837C14.1273 36.003 23.1904 36.003 23.1904 33.0837C23.1904 28.0486 21.3824 21.7607 18.6589 21.7607C14.8597 21.7607 14.1273 28.0486 14.1273 33.0837Z" fill="white"/>
<path d="M18.6474 35.6837C16.1986 35.6837 13.7268 34.88 13.7268 33.0953C13.7268 29.9159 14.0129 27.3275 14.5851 25.4245C15.3861 22.7297 16.7593 21.3705 18.6474 21.3705C20.0893 21.3705 21.3481 22.7652 22.2979 25.4127C23.0874 27.6229 23.5681 30.495 23.5681 33.1071C23.5795 34.88 21.1077 35.6837 18.6474 35.6837ZM18.6474 22.1742C15.2259 22.1742 14.505 28.1075 14.505 33.0953C14.505 34.2536 16.6334 34.88 18.6474 34.88C20.65 34.88 22.7899 34.2536 22.7899 33.0953C22.7899 28.0366 20.9819 22.1742 18.6474 22.1742Z" fill="#BCBCBC"/>
<path d="M46.8667 34.1234C46.8667 37.0665 35.0228 37.0665 35.0228 34.1234C35.0228 29.0411 35.9841 21.0985 40.939 21.0985C45.894 21.0985 46.8667 29.0411 46.8667 34.1234Z" fill="white"/>
<path d="M40.939 36.7353C38.021 36.7353 34.6223 36.0498 34.6223 34.1233C34.6223 30.081 35.2403 20.6965 40.939 20.6965C46.6378 20.6965 47.2557 30.0929 47.2557 34.1233C47.2557 36.0498 43.8571 36.7353 40.939 36.7353ZM40.939 21.5002C38.9364 21.5002 37.4374 22.954 36.4876 25.8261C35.5492 28.6864 35.4119 32.244 35.4119 34.1114C35.4119 35.1161 37.8379 35.908 40.939 35.908C44.0402 35.908 46.4661 35.1161 46.4661 34.1114C46.4661 32.244 46.3288 28.6864 45.3905 25.8261C44.4521 22.9658 42.9531 21.5002 40.939 21.5002Z" fill="#BCBCBC"/>
<path d="M23.179 34.1234C23.179 37.0665 35.0228 37.0665 35.0228 34.1234C35.0228 29.0411 34.0615 21.0985 29.1066 21.0985C24.1516 21.0985 23.179 29.0411 23.179 34.1234Z" fill="white"/>
<path d="M29.1066 36.7353C26.2 36.7353 22.7899 36.0498 22.7899 34.1233C22.7899 30.081 23.4079 20.6965 29.1066 20.6965C34.8054 20.6965 35.4233 30.0929 35.4233 34.1233C35.4119 36.0498 32.0132 36.7353 29.1066 36.7353ZM29.1066 21.5002C27.104 21.5002 25.605 22.954 24.6552 25.8261C23.7168 28.6864 23.5795 32.244 23.5795 34.1114C23.5795 35.1161 26.0055 35.908 29.1066 35.908C32.2078 35.908 34.6338 35.1161 34.6338 34.1114C34.6338 32.244 34.4964 28.6864 33.5581 25.8261C32.6083 22.9658 31.1092 21.5002 29.1066 21.5002Z" fill="#BCBCBC"/>
</svg>
