<svg width="90" height="38" viewBox="0 0 90 38" fill="none" xmlns="http://www.w3.org/2000/svg">
<path d="M3.15028 16.3969C3.03951 17.7269 0.55513 18.3107 0.729195 22.9817C0.90326 27.6526 0.539307 30.9612 0.539307 30.9612C29.9721 44.8929 45.084 32.0965 45.084 32.0965C45.084 32.0965 59.8637 44.8929 89.2965 30.9612C89.2965 30.9612 89.2648 27.6526 89.4389 22.9817C89.6129 18.3107 87.1286 17.7431 87.0178 16.3969L81.1787 5.54674L81.511 5.02776H7.78672L3.15028 16.3969Z" fill="#F8C8B9"/>
<path d="M63.6457 38C52.7113 38 46.5715 33.9129 45.0841 32.7776C43.5808 33.8967 37.3303 38 26.2851 38C18.2306 38 9.49577 35.7943 0.317811 31.4477C0.112098 31.3504 -0.0144943 31.1233 0.00132973 30.8801C0.00132973 30.8476 0.349459 27.5553 0.191218 22.9816C0.0646255 19.6406 1.25143 18.2134 2.04263 17.2727C2.37494 16.8835 2.59648 16.5915 2.62812 16.332C2.62812 16.2672 2.64395 16.2185 2.6756 16.1699L7.29622 4.80068C7.37534 4.58984 7.58106 4.4601 7.80259 4.4601H81.5269C81.7326 4.4601 81.9067 4.57363 82.0016 4.75203C82.0966 4.93043 82.0807 5.15749 81.97 5.31968L81.8117 5.54673L87.4926 16.0888C87.5242 16.1536 87.5559 16.2347 87.5559 16.3158C87.5717 16.5753 87.809 16.8673 88.1413 17.2565C88.9167 18.1972 90.1035 19.6244 89.9928 22.9654C89.8187 27.5715 89.8503 30.8801 89.8503 30.9125C89.8503 31.1233 89.7238 31.3342 89.5339 31.4153C80.3243 35.7943 71.621 38 63.6457 38ZM45.0841 31.5126C45.2107 31.5126 45.3373 31.5612 45.4322 31.6423C45.4955 31.691 51.6511 36.8809 63.6457 36.8809C71.3837 36.8809 79.8337 34.7563 88.7427 30.5881C88.7427 29.5988 88.7585 26.6957 88.8851 22.9492C88.9958 20.0461 88.0148 18.8621 87.3027 18.0026C86.9229 17.5484 86.5748 17.1268 86.4798 16.5591L80.6882 5.80623C80.6566 5.74136 80.6249 5.66026 80.6249 5.57917H8.15072L3.68834 16.5429C3.60922 17.1105 3.24526 17.5484 2.86549 18.0188C2.1534 18.8784 1.17231 20.0623 1.28308 22.9654C1.4255 26.7443 1.21978 29.5988 1.12484 30.6206C10.0338 34.7887 18.4997 36.8971 26.2851 36.8971C38.3747 36.8971 44.6727 31.7072 44.7359 31.6586C44.8309 31.5612 44.9575 31.5126 45.0841 31.5126Z" fill="#595757"/>
<path d="M83.3467 4.76821C83.3467 4.76821 84.5968 5.88729 85.7045 8.612C86.8122 11.3367 87.1129 16.4293 86.559 16.1212C86.0052 15.813 82.7454 13.1856 80.5459 9.53646C78.3305 5.88729 76.5266 -0.210878 83.3467 4.76821Z" fill="white"/>
<path d="M86.6065 16.6889C86.4958 16.6889 86.4008 16.6564 86.3059 16.6078C85.6571 16.2347 82.3182 13.51 80.087 9.82843C79.011 8.04439 77.4127 4.62228 78.2514 3.08152C78.5046 2.61119 78.9793 2.33546 79.5648 2.33546C80.4984 2.33546 81.8435 2.98421 83.6633 4.31413C83.6791 4.33035 83.6949 4.33035 83.7107 4.34657C83.7582 4.39522 85.0716 5.57917 86.2109 8.4012C87.1604 10.7367 87.7142 15.5049 87.1445 16.3807C87.018 16.5753 86.8122 16.6889 86.6065 16.6889ZM79.5648 3.45455C79.2958 3.45455 79.2325 3.56808 79.2009 3.61673C78.7894 4.36278 79.6281 6.94153 81.0048 9.24456C82.7296 12.099 85.1665 14.3534 86.29 15.2454C86.3375 13.9155 85.9894 10.7529 85.214 8.82288C84.2487 6.43875 83.1569 5.33589 83.0145 5.20615C80.9099 3.6816 79.9446 3.45455 79.5648 3.45455Z" fill="#595757"/>
<path d="M78.4413 2.56256C78.4413 2.56256 82.3657 6.30904 82.3657 9.74736C82.3657 13.1857 82.6505 17.0457 82.0492 17.0457C81.4479 17.0457 75.9253 12.9262 73.8207 10.8827C71.7161 8.82291 74.9759 -1.58938 78.4413 2.56256Z" fill="white"/>
<path d="M82.0491 17.5971C81.8593 17.5971 81.4162 17.5971 78.1881 15.1805C76.669 14.0452 74.6277 12.4234 73.4567 11.2719C72.1908 10.0393 72.5072 6.82801 73.4408 4.42766C74.2795 2.2706 75.498 1.02177 76.7797 1.02177C77.5076 1.02177 78.1881 1.41102 78.8369 2.15707C79.2008 2.51388 82.9036 6.19549 82.9036 9.73112C82.9036 10.6069 82.9195 11.5152 82.9353 12.391C82.9986 15.6995 82.9828 16.8997 82.5397 17.37C82.4131 17.516 82.239 17.5971 82.0491 17.5971ZM76.7797 2.15707C75.9885 2.15707 75.1024 3.19506 74.4536 4.86557C73.5674 7.11994 73.4567 9.74734 74.2004 10.4772C76.1151 12.3423 80.4826 15.6022 81.8118 16.3483C81.9225 15.6184 81.8909 13.8668 81.8592 12.4396C81.8434 11.5638 81.8276 10.6556 81.8276 9.76355C81.8276 6.61716 78.1089 3.01665 78.0773 2.98421C78.0615 2.96799 78.0456 2.95178 78.0298 2.93556C77.5868 2.41657 77.1753 2.15707 76.7797 2.15707Z" fill="#595757"/>
<path d="M72.4757 1.29748C73.2827 2.12462 75.3873 4.37899 75.3873 8.80665C75.3873 13.2343 75.3873 17.0294 73.6308 17.8079C71.8743 18.5864 68.124 16.2672 65.0858 8.72556C62.9496 3.40588 70.4344 -0.794713 72.4757 1.29748Z" fill="white"/>
<path d="M72.9029 18.4891C70.8458 18.4891 67.4278 15.9752 64.5794 8.92018C63.6775 6.6658 64.3896 4.81689 65.1491 3.64916C66.4467 1.6705 68.9311 0.178391 70.9407 0.178391C71.7477 0.178391 72.3965 0.421672 72.8554 0.89201C73.615 1.6705 75.9253 4.02218 75.9253 8.79042C75.9253 13.5911 75.9253 17.3862 73.8365 18.3107C73.5675 18.4242 73.251 18.4891 72.9029 18.4891ZM70.9407 1.29747C69.4849 1.29747 67.2695 2.41655 66.0511 4.26546C65.4339 5.20614 64.8643 6.69824 65.5922 8.48228C68.0449 14.5804 71.1148 17.37 72.9187 17.37C73.1086 17.37 73.2827 17.3376 73.4251 17.2727C74.8493 16.6402 74.8493 12.8288 74.8493 8.79042C74.8493 4.49251 72.7763 2.38411 72.0959 1.68671C71.7794 1.36234 71.2888 1.29747 70.9407 1.29747Z" fill="#595757"/>
<path d="M6.80591 4.76821C6.80591 4.76821 5.5558 5.88729 4.44812 8.612C3.34044 11.3367 3.03978 16.4293 3.59362 16.1212C4.14746 15.813 7.40722 13.1856 9.60676 9.53646C11.8221 5.88729 13.6261 -0.210878 6.80591 4.76821Z" fill="white"/>
<path d="M3.56185 16.6889C3.34031 16.6889 3.15043 16.5753 3.02383 16.3807C2.45417 15.5049 3.00801 10.7367 3.95745 8.4012C5.09678 5.59539 6.41018 4.39522 6.45765 4.34657C6.47348 4.33035 6.4893 4.33035 6.50512 4.31413C8.32489 2.98421 9.66994 2.33546 10.6036 2.33546C11.1891 2.33546 11.6638 2.59497 11.917 3.08152C12.7556 4.62228 11.1574 8.06061 10.0814 9.82843C7.85017 13.51 4.5113 16.2347 3.86251 16.6078C3.76756 16.6564 3.6568 16.6889 3.56185 16.6889ZM7.15391 5.20615C7.0115 5.33589 5.91964 6.43875 4.95437 8.82288C4.17899 10.7529 3.83086 13.8993 3.87833 15.2454C5.00184 14.3534 7.43875 12.099 9.16357 9.24456C10.5561 6.94153 11.3789 4.379 10.9675 3.61673C10.9359 3.55186 10.8726 3.45455 10.6036 3.45455C10.208 3.45455 9.24269 3.6816 7.15391 5.20615Z" fill="#595757"/>
<path d="M11.727 2.56256C11.727 2.56256 7.80264 6.30904 7.80264 9.74736C7.80264 13.1857 7.51781 17.0457 8.11912 17.0457C8.72044 17.0457 14.243 12.9262 16.3476 10.8827C18.4522 8.82291 15.1925 -1.58938 11.727 2.56256Z" fill="white"/>
<path d="M8.11913 17.5971C7.92924 17.5971 7.75517 17.516 7.61276 17.37C7.16968 16.8997 7.15386 15.6995 7.21716 12.391C7.23298 11.5152 7.24881 10.6069 7.24881 9.73112C7.24881 6.19549 10.9675 2.51388 11.3156 2.15707C11.9486 1.3948 12.6448 1.02177 13.3727 1.02177C14.6545 1.02177 15.8729 2.25438 16.7116 4.42766C17.6452 6.82801 17.9617 10.0393 16.6958 11.2719C15.5248 12.4234 13.4835 14.029 11.9644 15.1805C8.75209 17.5971 8.30902 17.5971 8.11913 17.5971ZM13.3885 2.15707C12.9929 2.15707 12.5657 2.41657 12.1384 2.93556C12.1226 2.95178 12.1068 2.96799 12.091 2.98421C12.0593 3.01665 8.34067 6.60094 8.34067 9.76355C8.34067 10.6556 8.32484 11.5638 8.30902 12.4396C8.27737 13.8831 8.24572 15.6184 8.35649 16.3483C9.68571 15.6022 14.0532 12.3423 15.9679 10.4772C16.7116 9.74734 16.6008 7.11994 15.7147 4.86557C15.0659 3.17884 14.1797 2.15707 13.3885 2.15707Z" fill="#595757"/>
<path d="M17.6928 1.29748C16.8857 2.12462 14.7811 4.37899 14.7811 8.80665C14.7811 13.2343 14.7811 17.0294 16.5376 17.8079C18.2941 18.5864 22.0444 16.2672 25.0826 8.72556C27.2188 3.40588 19.7341 -0.794713 17.6928 1.29748Z" fill="white"/>
<path d="M17.2497 18.4896C16.9174 18.4896 16.6009 18.4247 16.3161 18.295C14.2273 17.3705 14.2273 13.5754 14.2273 8.77469C14.2273 4.00645 16.5376 1.65476 17.2972 0.876268C17.7561 0.422149 18.4048 0.162659 19.2119 0.162659C21.2215 0.162659 23.7217 1.65476 25.0035 3.63342C25.763 4.80115 26.4751 6.65006 25.5731 8.90444C22.7406 15.9919 19.3226 18.4896 17.2497 18.4896ZM19.2277 1.29796C18.8796 1.29796 18.389 1.36282 18.0725 1.68719C17.3921 2.38459 15.3192 4.493 15.3192 8.79091C15.3192 12.8293 15.3192 16.6407 16.7433 17.2732C16.8857 17.3381 17.0598 17.3705 17.2497 17.3705C19.0536 17.3705 22.1077 14.5971 24.5762 8.48276C25.3041 6.6825 24.7186 5.1904 24.1173 4.26594C22.8989 2.41703 20.6677 1.29796 19.2277 1.29796Z" fill="#595757"/>
<path d="M55.1799 2.74094C55.1799 -0.16218 45.0841 -0.16218 45.0841 2.74094C45.0841 7.76868 45.907 15.6185 50.132 15.6185C54.357 15.6185 55.1799 7.76868 55.1799 2.74094Z" fill="white"/>
<path d="M50.132 16.1699C45.0841 16.1699 44.5303 6.77934 44.5303 2.74093C44.5303 0.843358 47.347 0 50.132 0C52.917 0 55.7337 0.843358 55.7337 2.74093C55.7337 6.77934 55.1799 16.1699 50.132 16.1699ZM50.132 1.11907C47.6476 1.11907 45.6221 1.84891 45.6221 2.74093C45.6221 5.62782 45.9544 15.0508 50.132 15.0508C54.3095 15.0508 54.6418 5.62782 54.6418 2.74093C54.6418 1.84891 52.6164 1.11907 50.132 1.11907Z" fill="#595757"/>
<path d="M65.339 3.61674C65.339 0.535223 55.1799 0.535223 55.1799 3.61674C55.1799 8.95264 57.3162 17.2727 61.2405 17.2727C64.8801 17.2727 65.339 8.93642 65.339 3.61674Z" fill="white"/>
<path d="M61.2407 17.8242C59.2311 17.8242 57.5062 16.0239 56.2403 12.6342C55.2592 9.99062 54.6421 6.53608 54.6421 3.61674C54.6421 1.63808 57.4588 0.746063 60.2596 0.746063C63.0605 0.746063 65.8772 1.63808 65.8772 3.61674C65.8772 13.1857 64.3739 17.8242 61.2407 17.8242ZM60.2596 1.86515C57.712 1.86515 55.7181 2.62741 55.7181 3.61674C55.7181 8.95264 57.8702 16.7213 61.2407 16.7213C63.5352 16.7213 64.8011 12.0666 64.8011 3.61674C64.8011 2.62741 62.8073 1.86515 60.2596 1.86515Z" fill="#595757"/>
<path d="M34.9725 2.74094C34.9725 -0.16218 45.0683 -0.16218 45.0683 2.74094C45.0683 7.76868 44.2454 15.6185 40.0204 15.6185C35.7954 15.6185 34.9725 7.76868 34.9725 2.74094Z" fill="white"/>
<path d="M40.0362 16.1699C34.9883 16.1699 34.4344 6.77934 34.4344 2.74093C34.4344 0.843358 37.2511 0 40.0362 0C42.8212 0 45.6379 0.843358 45.6379 2.74093C45.6221 6.77934 45.084 16.1699 40.0362 16.1699ZM40.0362 1.11907C37.5518 1.11907 35.5263 1.84891 35.5263 2.74093C35.5263 5.62782 35.8586 15.0508 40.0362 15.0508C44.2137 15.0508 44.546 5.62782 44.546 2.74093C44.5302 1.84891 42.5205 1.11907 40.0362 1.11907Z" fill="#595757"/>
<path d="M24.8136 3.61674C24.8136 0.535223 34.9726 0.535223 34.9726 3.61674C34.9726 8.95264 32.8364 17.2727 28.912 17.2727C25.2883 17.2727 24.8136 8.93642 24.8136 3.61674Z" fill="white"/>
<path d="M28.9118 17.8242C25.7945 17.8242 24.2754 13.1695 24.2754 3.61674C24.2754 1.63808 27.0921 0.746063 29.8929 0.746063C32.6938 0.746063 35.5105 1.63808 35.5105 3.61674C35.5105 6.53608 34.8933 10.0068 33.9122 12.6342C32.6621 16.0401 30.9215 17.8242 28.9118 17.8242ZM29.8929 1.86515C27.3453 1.86515 25.3514 2.62741 25.3514 3.61674C25.3514 12.0666 26.6173 16.7213 28.9118 16.7213C32.2824 16.7213 34.4344 8.96886 34.4344 3.61674C34.4344 2.62741 32.4406 1.86515 29.8929 1.86515Z" fill="#595757"/>
</svg>
