<svg width="90" height="38" viewBox="0 0 90 38" fill="none" xmlns="http://www.w3.org/2000/svg">
<path d="M87.1081 22.8096C87.2258 21.4943 89.7123 20.9168 89.5358 16.2972C89.3592 11.6775 88.6824 6.9616 88.6824 6.9616C59.1538 -6.81721 45.0294 5.83876 45.0294 5.83876C45.0294 5.83876 30.9051 -6.81721 1.37643 6.9616C1.37643 6.9616 0.699636 11.6775 0.523082 16.2972C0.346528 20.9168 2.84771 21.4783 2.9507 22.8096L9.98344 31.6319H81.6055L87.1081 22.8096Z" fill="#F8C8B9"/>
<path d="M81.6055 32.1773H9.9834C9.83627 32.1773 9.70386 32.1131 9.60087 31.9848L2.56813 23.1625C2.49457 23.0823 2.45043 22.97 2.45043 22.8577C2.43572 22.6011 2.1856 22.3124 1.86192 21.9434C1.08214 21.0131 -0.109604 19.6015 0.00809865 16.2811C0.184653 11.6775 0.861444 6.9295 0.861444 6.88138C0.890869 6.6889 1.00857 6.52849 1.1557 6.46433C10.3659 2.16547 19.0171 0 26.8885 0C37.6877 0 43.6022 4.05825 45 5.16505C46.3977 4.05825 52.3122 0 63.1115 0C70.9828 0 79.6487 2.18151 88.8442 6.46433C89.0061 6.54453 89.1238 6.70494 89.1385 6.88138C89.1385 6.9295 89.83 11.6935 89.9918 16.2811C90.1095 19.6015 88.9325 21.0131 88.138 21.9434C87.829 22.3124 87.5789 22.6171 87.5495 22.8577C87.5348 22.954 87.5053 23.0342 87.4612 23.1144L81.9586 31.9367C81.9292 32.081 81.7673 32.1773 81.6055 32.1773ZM10.2188 31.0705H81.3407L86.6226 22.6011C86.7256 22.0557 87.0787 21.6387 87.4465 21.1895C88.1674 20.3394 89.1385 19.1845 89.0355 16.3132C88.8883 12.4314 88.3734 8.43731 88.2263 7.33052C79.2367 3.17602 70.8063 1.07471 63.1409 1.07471C51.297 1.07471 45.3972 6.20768 45.3384 6.2558C45.1471 6.41621 44.8823 6.41621 44.691 6.2558C44.6321 6.20768 38.7323 1.07471 26.8885 1.07471C19.2231 1.07471 10.7926 3.17602 1.80306 7.33052C1.65594 8.43731 1.14099 12.4314 0.993858 16.3132C0.890868 19.1684 1.86192 20.3394 2.58285 21.1895C2.95067 21.6226 3.28906 22.0397 3.40676 22.553L10.2188 31.0705Z" fill="#595757"/>
<path d="M81.3112 26.3867C81.3112 26.3867 83.7976 23.2748 85.4455 21.8633C87.0933 20.4517 87.2699 22.3124 86.9903 24.125C86.6961 25.9376 86.1223 29.691 85.3719 33.0114C84.6216 36.3318 82.856 38.9143 80.4873 36.4762C78.1185 34.038 77.4858 30.6535 81.3112 26.3867Z" fill="white"/>
<path d="M82.3116 38C81.5907 38 80.8698 37.6311 80.1488 36.8772C78.7953 35.4817 78.1038 33.9418 78.0743 32.2896C78.0449 30.2845 79.0012 28.1672 80.9433 26.0178C81.1493 25.7611 83.5034 22.8257 85.1365 21.4302C85.622 21.0131 86.034 20.8206 86.4165 20.8206C86.7402 20.8206 87.005 20.965 87.211 21.2216C87.726 21.8953 87.6377 23.2267 87.4905 24.2212L87.417 24.6864C87.1227 26.5631 86.5636 30.076 85.8721 33.1558C85.1659 36.2356 83.8712 38 82.3116 38ZM86.4165 21.9274C86.3724 21.9274 86.1664 21.9595 85.7692 22.3124C84.1802 23.6758 81.7231 26.7396 81.7084 26.7717C81.7084 26.7877 81.6937 26.7877 81.6937 26.8037C79.9429 28.7446 79.0748 30.5893 79.1042 32.2896C79.1337 33.637 79.7222 34.9202 80.8551 36.1072C81.3847 36.6526 81.8702 36.9253 82.3116 36.9253C83.3415 36.9253 84.3273 35.3854 84.8864 32.9152C85.5779 29.8675 86.1223 26.3867 86.4165 24.526L86.4901 24.0608C86.7108 22.6492 86.5195 22.0237 86.4312 21.9435C86.4312 21.9274 86.4165 21.9274 86.4165 21.9274Z" fill="#595757"/>
<path d="M71.5565 24.8949C71.5565 24.8949 74.7934 19.778 76.2499 18.0937C77.6918 16.4095 80.1341 15.4471 81.0169 17.3559C81.8997 19.2807 81.5319 28.7446 80.399 32.0169C79.2661 35.2892 76.9267 37.7915 74.3961 35.7223C71.8361 33.6691 68.2167 30.5733 71.5565 24.8949Z" fill="white"/>
<path d="M76.25 37.0376C75.5144 37.0376 74.7787 36.7489 74.0725 36.1714C72.8513 35.1769 71.1888 33.8295 70.306 31.9207C69.2908 29.7231 69.5557 27.2689 71.1299 24.6062C71.1299 24.6062 71.1299 24.5901 71.1446 24.5901C71.2771 24.3816 74.4256 19.4251 75.8822 17.7248C76.9121 16.5378 78.2951 15.7518 79.428 15.7518C80.3402 15.7518 81.0611 16.233 81.4731 17.1153C82.4441 19.2166 82.0616 28.8248 80.8698 32.2254C79.8105 35.241 78.0891 37.0376 76.25 37.0376ZM71.9686 25.1997C69.0848 30.1081 71.6007 32.7708 74.6757 35.2731C75.2054 35.7062 75.7203 35.9147 76.2353 35.9147C77.8831 35.9147 79.2073 33.7974 79.8988 31.8084C81.0464 28.504 81.3259 19.2807 80.5462 17.5804C80.3108 17.0671 79.9429 16.8265 79.4133 16.8265C78.5599 16.8265 77.4417 17.4681 76.6031 18.4466C75.2348 20.0828 72.1157 24.9751 71.9686 25.1997Z" fill="#595757"/>
<path d="M71.8947 31.3272C71.8947 35.2892 60.2422 35.2892 60.2422 31.3272C60.2422 24.4939 62.5668 15.9604 66.0685 15.9604C70.9531 15.9604 71.8947 24.4939 71.8947 31.3272Z" fill="white"/>
<path d="M66.0833 34.8561C62.9347 34.8561 59.7568 33.7653 59.7568 31.3432C59.7568 27.7982 60.36 23.9004 61.3899 20.9008C62.6111 17.3238 64.2442 15.415 66.0833 15.415C68.5109 15.415 70.2765 17.2757 71.3064 20.9169C72.042 23.4994 72.4098 27.0123 72.4098 31.3272C72.4098 33.7653 69.2318 34.8561 66.0833 34.8561ZM66.0833 16.5218C63.0819 16.5218 60.7573 24.4939 60.7573 31.3432C60.7573 32.9152 63.4938 33.7653 66.0833 33.7653C68.658 33.7653 71.4093 32.9152 71.4093 31.3432C71.3946 24.5741 70.4677 16.5218 66.0833 16.5218Z" fill="#595757"/>
<path d="M8.74742 26.3867C8.74742 26.3867 6.26095 23.2748 4.61312 21.8633C2.96528 20.4517 2.78872 22.3124 3.06827 24.125C3.36252 25.9376 3.93633 29.691 4.68668 33.0114C5.43703 36.3318 7.20257 38.9143 9.57134 36.4762C11.9401 34.038 12.5728 30.6535 8.74742 26.3867Z" fill="white"/>
<path d="M7.74694 38C6.18738 38 4.87793 36.2356 4.18643 33.1558C3.48021 30.076 2.93584 26.5631 2.64158 24.6864L2.56802 24.2212C2.40618 23.2267 2.33261 21.8953 2.84756 21.2216C3.05354 20.949 3.33309 20.8206 3.64206 20.8206C4.02459 20.8206 4.43655 21.0131 4.92207 21.4302C6.5552 22.8257 8.92396 25.7611 9.11523 26.0178C11.0573 28.1672 12.0137 30.2845 11.9842 32.2896C11.9548 33.9418 11.2633 35.4817 9.90972 36.8772C9.1888 37.6151 8.46787 38 7.74694 38ZM3.64206 21.9274C3.62734 21.9274 3.62734 21.9274 3.62734 21.9274C3.53907 21.9916 3.33309 22.6172 3.56849 24.0448L3.64206 24.51C3.93631 26.3707 4.48069 29.8514 5.17219 32.8991C5.73128 35.3694 6.71704 36.9093 7.74694 36.9093C8.18832 36.9093 8.68856 36.6366 9.20351 36.0912C10.3511 34.9042 10.9396 33.637 10.9543 32.2736C10.9838 30.5733 10.1157 28.7286 8.36488 26.7877C8.36488 26.7877 8.35016 26.7717 8.35016 26.7556C8.32074 26.7235 5.87841 23.6598 4.28942 22.2964C3.89218 21.9435 3.70091 21.9274 3.64206 21.9274Z" fill="#595757"/>
<path d="M18.502 24.8949C18.502 24.8949 15.2652 19.778 13.8086 18.0937C12.3668 16.4095 9.92443 15.4471 9.04166 17.3559C8.15889 19.2807 8.52671 28.7446 9.6596 32.0169C10.7925 35.2892 13.1318 37.7915 15.6624 35.7223C18.2225 33.6691 21.8418 30.5733 18.502 24.8949Z" fill="white"/>
<path d="M13.8086 37.0376C11.9695 37.0376 10.2481 35.241 9.20352 32.2254C8.02649 28.8248 7.64396 19.2166 8.60029 17.1153C8.99754 16.233 9.73318 15.7518 10.6454 15.7518C11.7783 15.7518 13.1613 16.5218 14.1912 17.7248C15.6477 19.4251 18.7963 24.3816 18.9287 24.5901C18.9287 24.5901 18.9287 24.6062 18.9434 24.6062C20.503 27.2689 20.7825 29.7231 19.7673 31.9207C18.8846 33.8295 17.222 35.1769 16.0009 36.1714C15.2799 36.7489 14.5443 37.0376 13.8086 37.0376ZM10.6454 16.8586C10.1157 16.8586 9.7479 17.0992 9.51249 17.6125C8.73271 19.3128 8.99754 28.5361 10.1599 31.8405C10.8514 33.8295 12.1755 35.9468 13.8234 35.9468C14.3383 35.9468 14.868 35.7383 15.3829 35.3052C18.4579 32.8029 20.9738 30.1402 18.0901 25.2318C17.9429 25.0072 14.8385 20.1148 13.4555 18.4947C12.6169 17.5002 11.4987 16.8586 10.6454 16.8586Z" fill="#595757"/>
<path d="M18.1636 31.3272C18.1636 35.2892 29.8162 35.2892 29.8162 31.3272C29.8162 24.4939 27.4916 15.9604 23.9899 15.9604C19.1053 15.9604 18.1636 24.4939 18.1636 31.3272Z" fill="white"/>
<path d="M23.9753 34.8561C20.8267 34.8561 17.6487 33.7653 17.6487 31.3432C17.6487 27.0283 18.0166 23.5154 18.7522 20.9329C19.7821 17.2757 21.5476 15.431 23.9753 15.431C25.8291 15.431 27.4475 17.3238 28.6687 20.9169C29.6838 23.9165 30.3018 27.8143 30.3018 31.3593C30.3165 33.7653 27.1385 34.8561 23.9753 34.8561ZM23.9753 16.5218C19.5761 16.5218 18.6492 24.5741 18.6492 31.3432C18.6492 32.9152 21.3858 33.7653 23.9753 33.7653C26.55 33.7653 29.3013 32.9152 29.3013 31.3432C29.3013 24.4779 26.9767 16.5218 23.9753 16.5218Z" fill="#595757"/>
<path d="M60.2571 32.7387C60.2571 36.7328 45.0293 36.7328 45.0293 32.7387C45.0293 25.8413 46.2652 15.0621 52.6358 15.0621C59.0065 15.0621 60.2571 25.8413 60.2571 32.7387Z" fill="white"/>
<path d="M52.6359 36.2837C48.8841 36.2837 44.5144 35.3533 44.5144 32.7387C44.5144 27.2528 45.3089 14.5167 52.6359 14.5167C59.9629 14.5167 60.7574 27.2689 60.7574 32.7387C60.7574 35.3533 56.3877 36.2837 52.6359 36.2837ZM52.6359 15.6074C50.0611 15.6074 48.1338 17.5804 46.9126 21.4783C45.7061 25.3601 45.5296 30.1883 45.5296 32.7227C45.5296 34.0861 48.6487 35.1608 52.6359 35.1608C56.6231 35.1608 59.7422 34.0861 59.7422 32.7227C59.7422 30.1883 59.5656 25.3601 58.3592 21.4783C57.1527 17.5965 55.2254 15.6074 52.6359 15.6074Z" fill="#595757"/>
<path d="M29.8015 32.7387C29.8015 36.7328 45.0293 36.7328 45.0293 32.7387C45.0293 25.8413 43.7934 15.0621 37.4228 15.0621C31.0521 15.0621 29.8015 25.8413 29.8015 32.7387Z" fill="white"/>
<path d="M37.4228 36.2837C33.6857 36.2837 29.3013 35.3533 29.3013 32.7387C29.3013 27.2528 30.0958 14.5167 37.4228 14.5167C44.7497 14.5167 45.5442 27.2689 45.5442 32.7387C45.5295 35.3533 41.1598 36.2837 37.4228 36.2837ZM37.4228 15.6074C34.848 15.6074 32.9206 17.5804 31.6995 21.4783C30.493 25.3601 30.3165 30.1883 30.3165 32.7227C30.3165 34.0861 33.4356 35.1608 37.4228 35.1608C41.4099 35.1608 44.5291 34.0861 44.5291 32.7227C44.5291 30.1883 44.3525 25.3601 43.1461 21.4783C41.9249 17.5965 39.9975 15.6074 37.4228 15.6074Z" fill="#595757"/>
</svg>
