<svg width="38" height="38" viewBox="0 0 38 38" fill="none" xmlns="http://www.w3.org/2000/svg">
<path d="M29.3245 24.5373V16.2077C29.3245 15.7345 28.9633 15.3558 28.5118 15.3558H16.4717" stroke="#242F35" stroke-width="1.5" stroke-miterlimit="10" stroke-linecap="round" stroke-linejoin="round"/>
<path d="M8.67554 15.3558V24.5373" stroke="#242F35" stroke-width="1.5" stroke-miterlimit="10" stroke-linecap="round" stroke-linejoin="round"/>
<path d="M16.4715 15.3559H8.67554V12.5479H14.515C15.1772 12.5479 15.7792 12.9896 15.9598 13.6521L16.4715 15.3559Z" stroke="#242F35" stroke-width="1.5" stroke-miterlimit="10" stroke-linecap="round" stroke-linejoin="round"/>
<path d="M37 7.97284H1L4.85284 1H33.1472L37 7.97284Z" stroke="#242F35" stroke-width="1.5" stroke-miterlimit="10" stroke-linecap="round" stroke-linejoin="round"/>
<path d="M1 7.9729V31.1947C1 32.4252 1.96321 33.4348 3.13712 33.4348H5.03344" stroke="#242F35" stroke-width="1.5" stroke-miterlimit="10" stroke-linecap="round" stroke-linejoin="round"/>
<path d="M37 7.9729V31.1947C37 32.4252 36.0368 33.4348 34.8629 33.4348H32.9666" stroke="#242F35" stroke-width="1.5" stroke-miterlimit="10" stroke-linecap="round" stroke-linejoin="round"/>
<path d="M32.9967 24.5372H5.03345V37H32.9967V24.5372Z" stroke="#242F35" stroke-width="1.5" stroke-miterlimit="10" stroke-linecap="round" stroke-linejoin="round"/>
<path d="M24.1473 29.3961V30.7528C24.1473 31.5101 23.5453 32.1411 22.8229 32.1411H15.1774C14.455 32.1411 13.853 31.5101 13.853 30.7528V29.3961" stroke="#242F35" stroke-width="1.5" stroke-miterlimit="10" stroke-linecap="round" stroke-linejoin="round"/>
<path d="M17.6152 17.249C17.9764 17.9116 18.458 18.448 19.1203 18.795C20.836 19.6785 23.0634 18.7635 24.7791 19.7416C25.6219 20.2148 26.1938 21.0667 26.8861 21.7293C27.0968 21.9186 27.3075 22.0764 27.5483 22.2341V17.249H17.6152Z" fill="#CAE1EF"/>
</svg>
