<svg width="46" height="37" viewBox="0 0 46 37" fill="none" xmlns="http://www.w3.org/2000/svg">
<path d="M34.4341 8.68629C35.9161 7.00389 35.8197 4.37748 34.2188 2.82003C32.618 1.26258 30.1189 1.36388 28.6369 3.04628C27.155 4.72868 27.2514 7.35509 28.8522 8.91254C30.4531 10.47 32.9522 10.3687 34.4341 8.68629Z" stroke="#242F35" stroke-width="1.5" stroke-miterlimit="10" stroke-linecap="round"/>
<path d="M31.5357 7.77365C30.5314 7.77365 29.728 6.92931 29.728 5.87389C29.728 4.81846 30.5314 3.97412 31.5357 3.97412C32.54 3.97412 33.3434 4.81846 33.3434 5.87389C33.3434 6.92931 32.5177 7.77365 31.5357 7.77365Z" fill="#CAE1EF"/>
<path d="M43.2068 18.8063C44.7494 17.1851 44.7494 14.5566 43.2068 12.9354C41.6642 11.3143 39.1631 11.3143 37.6205 12.9354C36.0779 14.5566 36.0779 17.1851 37.6205 18.8063C39.1631 20.4274 41.6642 20.4274 43.2068 18.8063Z" stroke="#242F35" stroke-width="1.5" stroke-miterlimit="10" stroke-linecap="round"/>
<path d="M40.4127 17.7674C39.4084 17.7674 38.605 16.9231 38.605 15.8677C38.605 14.8122 39.4084 13.9679 40.4127 13.9679C41.4169 13.9679 42.2203 14.8122 42.2203 15.8677C42.2203 16.9231 41.4169 17.7674 40.4127 17.7674Z" fill="#CAE1EF"/>
<path d="M34.8274 9L37.7269 12" stroke="#242F35" stroke-width="1.5" stroke-miterlimit="10" stroke-linecap="round"/>
<path d="M20.3498 19.9217C22.4721 19.391 23.7831 17.1526 23.278 14.9223C22.773 12.6919 20.6431 11.3141 18.5209 11.8449C16.3986 12.3756 15.0876 14.614 15.5927 16.8443C16.0977 19.0747 18.2276 20.4525 20.3498 19.9217Z" stroke="#242F35" stroke-width="1.5" stroke-miterlimit="10" stroke-linecap="round"/>
<path d="M19.4356 17.7845C18.4313 17.7845 17.6279 16.9402 17.6279 15.8848C17.6279 14.8293 18.4313 13.985 19.4356 13.985C20.4399 13.985 21.2433 14.8293 21.2433 15.8848C21.2433 16.9402 20.4176 17.7845 19.4356 17.7845Z" fill="#CAE1EF"/>
<path d="M28.1541 8.3723L22.7167 13.1195" stroke="#242F35" stroke-width="1.5" stroke-miterlimit="10" stroke-linecap="round"/>
<path d="M24.2532 3.39294C21.3498 3.39294 18.7949 4.81688 17.1302 7.01381C15.4656 4.81688 12.8719 3.39294 10.0073 3.39294C8.03297 3.39294 6.25222 4.04389 4.74246 5.14235C1.64552 7.46133 0.368027 11.5704 1.29711 15.4354C1.64552 16.8186 2.22619 18.5273 3.2327 19.7478C3.77467 20.3988 4.04565 21.2531 4.00694 22.1075C3.8908 24.7113 4.23921 30.2443 8.26524 35.3298C9.1169 36.4282 10.8202 36.0621 11.1686 34.6788C11.7106 32.6039 12.5235 29.6747 13.6462 26.6641C14.885 23.328 19.3755 23.328 20.6143 26.6641C21.737 29.6747 22.5499 32.6039 23.0919 34.6788C23.4403 36.0621 25.1436 36.4689 25.9952 35.3704C30.0213 30.2443 30.4084 24.752 30.2923 22.1482C30.2535 21.2938 30.5245 20.4395 31.0665 19.7885C32.073 18.5273 32.6537 16.8186 33.0021 15.4354" stroke="#242F35" stroke-width="1.5" stroke-miterlimit="10" stroke-linecap="round"/>
</svg>
