<svg width="38" height="42" viewBox="0 0 38 42" fill="none" xmlns="http://www.w3.org/2000/svg">
<path d="M30.8944 32.549H37C35.9344 27.4098 31.5856 20.1292 24.8464 18.5018C27.208 16.7316 28.7632 13.9051 28.7632 10.7074C28.7632 5.33977 24.3856 1 18.9712 1C13.5568 1 9.1792 5.33977 9.1792 10.7074C9.1792 13.9051 10.7344 16.7316 13.1248 18.5018C6.3568 20.1292 1.8352 27.2956 1 32.549H6.9904" stroke="#242F35" stroke-width="1.5" stroke-miterlimit="10" stroke-linecap="round" stroke-linejoin="round"/>
<path d="M23.6081 32.2919C23.6081 34.833 21.5345 36.8601 19.0001 36.8601C16.4369 36.8601 14.3921 34.8044 14.3921 32.2919C14.3921 29.7794 16.4657 27.7238 19.0001 27.7238C21.5633 27.7238 23.6081 29.7794 23.6081 32.2919Z" stroke="#242F35" stroke-width="1.5" stroke-miterlimit="10" stroke-linecap="round" stroke-linejoin="round"/>
<path d="M18.9999 29.0371C18.5967 29.0371 18.1935 29.1228 17.8191 29.2655C19.0575 29.7223 19.9215 30.9215 19.9215 32.2919C19.9215 33.6624 19.0575 34.8615 17.8191 35.3183C18.1935 35.4611 18.5679 35.5468 18.9999 35.5468C20.8143 35.5468 22.2831 34.0907 22.2831 32.2919C22.2831 30.4932 20.8143 29.0371 18.9999 29.0371Z" fill="#CAE1EF"/>
<path d="M27.6977 32.349C27.6977 31.5495 27.0353 30.8929 26.2289 30.8929H26.0849C25.8833 29.9792 25.5377 29.1513 25.0481 28.3804L25.1633 28.2662C25.7393 27.6952 25.7393 26.7815 25.1633 26.2105C24.5873 25.6395 23.6657 25.6395 23.0897 26.2105L22.9745 26.3247C22.2257 25.8393 21.3617 25.4682 20.4401 25.2969V25.1541C20.4401 24.3547 19.7777 23.698 18.9713 23.698C18.1649 23.698 17.5025 24.3547 17.5025 25.1541V25.2969C16.5809 25.4967 15.7457 25.8393 14.9681 26.3247L14.8529 26.2105C14.2769 25.6395 13.3553 25.6395 12.7793 26.2105C12.2033 26.7815 12.2033 27.6952 12.7793 28.2662L12.8945 28.3804C12.4049 29.1227 12.0305 29.9792 11.8577 30.8929H11.7137C10.9073 30.8929 10.2449 31.5495 10.2449 32.349C10.2449 33.1484 10.9073 33.8051 11.7137 33.8051H11.8577C12.0593 34.7187 12.4049 35.5467 12.8945 36.3176L12.7793 36.4318C12.2033 37.0028 12.2033 37.9164 12.7793 38.4875C13.3553 39.0585 14.2769 39.0585 14.8529 38.4875L14.9681 38.3733C15.7169 38.8586 16.5809 39.2298 17.5025 39.4011V39.5439C17.5025 40.3433 18.1649 41 18.9713 41C19.7777 41 20.4401 40.3433 20.4401 39.5439V39.4011C21.3617 39.2012 22.1969 38.8586 22.9745 38.3733L23.0897 38.4875C23.6657 39.0585 24.5873 39.0585 25.1633 38.4875C25.7393 37.9164 25.7393 37.0028 25.1633 36.4318L25.0481 36.3176C25.5377 35.5752 25.9121 34.7187 26.0849 33.8051H26.2289C27.0641 33.8051 27.6977 33.1484 27.6977 32.349Z" stroke="#242F35" stroke-width="1.5" stroke-miterlimit="10" stroke-linecap="round" stroke-linejoin="round"/>
</svg>
