<svg width="50" height="50" viewBox="0 0 50 50" fill="none" xmlns="http://www.w3.org/2000/svg">
<path d="M25 50C11.2 50 0 38.8 0 25C0 11.2 11.2 0 25 0C38.8 0 50 11.2 50 25C50 38.8 38.8 50 25 50ZM25 4C13.4 4 4 13.4 4 25C4 36.6 13.4 46 25 46C36.6 46 46 36.6 46 25C46 13.4 36.6 4 25 4Z" fill="#5A509A"/>
<path d="M39 16.5L37.1 14.6C36.6 14.1 35.7 14.1 35.2 14.6L21 28.7L14.8 22.5C14.3 22 13.4 22 12.9 22.5L11 24.5C10.5 25 10.5 25.9 11 26.4L20 35.4C20.3 35.7 20.6 35.8 21 35.8C21.4 35.8 21.7 35.7 22 35.4L39 18.4C39.5 17.9 39.5 17 39 16.5Z" fill="#5A509A"/>
</svg>
