<svg width="31" height="35" viewBox="0 0 31 35" fill="none" xmlns="http://www.w3.org/2000/svg">
<path d="M25.2 12.6H20V14.7H25.2C27 14.7 28.5 15.6 28.5 16.7V30.5C28.5 31.6 27 32.5 25.2 32.5H5.4C3.6 32.5 2.1 31.6 2.1 30.5V16.7C2.1 15.6 3.6 14.7 5.4 14.7H10.6V12.6H5.4C2.4 12.6 0 14.4 0 16.7V30.5C0 32.8 2.4 34.6 5.4 34.6H25.2C28.2 34.6 30.6 32.8 30.6 30.5V16.7C30.6 14.4 28.2 12.6 25.2 12.6Z" fill="white"/>
<path d="M10.7 7.8C11.1 7.8 11.5 7.6 11.8 7.3L13.7 5.4V12.7V14.8V18.3C13.7 19.2 14.4 19.9 15.3 19.9C16.2 19.9 16.9 19.2 16.9 18.3V14.8V12.7V5.3L19 7.4C19.3 7.7 19.7 7.9 20.1 7.9C20.5 7.9 20.9 7.7 21.2 7.4C21.8 6.8 21.8 5.8 21.2 5.2L16.5 0.5C16.2 0.2 15.8 0 15.4 0C15 0 14.6 0.2 14.3 0.5L9.7 5.1C9.1 5.7 9.1 6.7 9.7 7.3C9.9 7.6 10.3 7.8 10.7 7.8Z" fill="white"/>
<path d="M9.3 26.6H7.8L9 24L9.3 26.6ZM6.7 29.1L7.1 28.2H9.4L9.5 29.1H12L10.7 21.9H8.3L4.5 29.1H6.7ZM18.8 29.1L19.1 27.4H15.9L16.9 21.9H14.5L13.2 29.1H18.8ZM25.9 29.1L26.2 27.4H23L24 21.9H21.6L20.3 29.1H25.9Z" fill="white"/>
</svg>
