<svg width="37" height="37" viewBox="0 0 37 37" fill="none" xmlns="http://www.w3.org/2000/svg">
<path opacity="0.7" d="M27.1714 35.5L36.3281 26.4V0.699951L27.1714 9.99995V35.5Z" fill="#726AA6"/>
<path d="M36.9254 0.6C36.8258 0.5 36.8258 0.4 36.7263 0.3C36.7263 0.3 36.7263 0.2 36.6268 0.2L36.5272 0.1L36.3282 0C36.2286 0 36.2286 0 36.2286 0H10.351H10.2515C10.152 0 10.152 0 10.0525 0H9.95292C9.8534 0 9.75387 0.1 9.65434 0.2L0.298588 9.6C0.199059 9.7 0.199059 9.8 0.0995293 9.9C0.0995293 10 0 10.1 0 10.2V36.1C0 36.2 2.22465e-08 36.3 0.0995293 36.4V36.5C0.0995293 36.6 0.199059 36.6 0.199059 36.7C0.199059 36.7 0.199059 36.8 0.298588 36.8C0.398117 36.9 0.398117 36.9 0.497646 36.9L0.597175 37C0.696705 37 0.796234 37 0.895763 37H26.6738C26.7734 37 26.8729 37 26.9724 36.9C27.072 36.9 27.1715 36.8 27.271 36.7L36.6268 27.3C36.7263 27.2 36.7263 27.1 36.8258 27C36.8258 26.9 36.9254 26.8 36.9254 26.7V0.9C37.0249 0.8 37.0249 0.7 36.9254 0.6ZM11.2468 9.4V1.8H33.9395L26.3752 9.4H11.2468V9.4ZM11.2468 25.9V11.1H25.8776V25.8H11.2468V25.9ZM3.18494 35.2L10.7492 27.6H25.8776V35.2H3.18494ZM1.99058 34V11.1H9.55481V26.3L1.99058 34ZM3.18494 9.4L9.45528 3.1V9.4H3.18494ZM35.2334 3V25.8H27.6691V10.6L35.2334 3ZM34.039 27.6L27.7687 33.9V27.6H34.039V27.6Z" fill="#726AA6"/>
</svg>
