<svg width="35" height="30" viewBox="0 0 35 30" fill="none" xmlns="http://www.w3.org/2000/svg">
<path d="M2.47093 22.4648C2.43093 22.9286 1.5338 23.1323 1.59665 24.7615C1.65951 26.3908 1.52808 27.5448 1.52808 27.5448C12.1566 32.4043 17.6137 27.9408 17.6137 27.9408C17.6137 27.9408 22.9508 32.4043 33.5793 27.5448C33.5793 27.5448 33.5679 26.3908 33.6307 24.7615C33.6936 23.1323 32.7964 22.9343 32.7564 22.4648L30.6479 18.6802L30.7679 18.4991H4.14521L2.47093 22.4648Z" fill="white"/>
<path d="M24.3165 30C20.3679 30 18.1508 28.5744 17.6137 28.1784C17.0708 28.5688 14.8137 30 10.8251 30C7.91659 30 4.76233 29.2306 1.44807 27.7145C1.37379 27.6806 1.32807 27.6014 1.33379 27.5165C1.33379 27.5052 1.4595 26.3568 1.40236 24.7615C1.35664 23.5962 1.78521 23.0984 2.07092 22.7702C2.19092 22.6345 2.27092 22.5326 2.28235 22.4421C2.28235 22.4195 2.28806 22.4025 2.29949 22.3856L3.96805 18.4199C3.99662 18.3464 4.07091 18.3011 4.15091 18.3011H30.7736C30.8479 18.3011 30.9107 18.3407 30.945 18.403C30.9793 18.4652 30.9736 18.5444 30.9336 18.601L30.8764 18.6802L32.9278 22.3573C32.9393 22.3799 32.9507 22.4082 32.9507 22.4365C32.9564 22.527 33.0421 22.6288 33.1621 22.7646C33.4421 23.0927 33.8707 23.5905 33.8307 24.7559C33.7678 26.3625 33.7793 27.5165 33.7793 27.5278C33.7793 27.6014 33.7335 27.6749 33.665 27.7032C30.3393 29.2306 27.1965 30 24.3165 30ZM17.6137 27.7372C17.6594 27.7372 17.7051 27.7541 17.7394 27.7824C17.7622 27.7994 19.9851 29.6097 24.3165 29.6097C27.1107 29.6097 30.1621 28.8686 33.3793 27.4147C33.3793 27.0696 33.385 26.057 33.4307 24.7502C33.4707 23.7376 33.1164 23.3246 32.8593 23.0248C32.7221 22.8664 32.5964 22.7193 32.5621 22.5213L30.4707 18.7707C30.4593 18.7481 30.4479 18.7198 30.4479 18.6915H4.27662L2.6652 22.5157C2.63663 22.7137 2.50521 22.8664 2.36806 23.0305C2.11092 23.3303 1.75664 23.7433 1.79664 24.7559C1.84807 26.074 1.77378 27.0696 1.7395 27.426C4.95662 28.8799 8.01374 29.6153 10.8251 29.6153C15.1908 29.6153 17.4651 27.805 17.488 27.7881C17.5222 27.7541 17.568 27.7372 17.6137 27.7372Z" fill="#595757"/>
<path d="M31.4307 18.4086C31.4307 18.4086 31.8822 18.799 32.2822 19.7494C32.6822 20.6998 32.7907 22.4761 32.5907 22.3686C32.3907 22.2611 31.2136 21.3447 30.4193 20.0718C29.6193 18.799 28.9679 16.6719 31.4307 18.4086Z" fill="white"/>
<path d="M32.6079 22.5666C32.5679 22.5666 32.5336 22.5553 32.4993 22.5383C32.265 22.4082 31.0593 21.4578 30.2536 20.1736C29.865 19.5514 29.2879 18.3577 29.5908 17.8203C29.6822 17.6562 29.8536 17.5601 30.065 17.5601C30.4022 17.5601 30.8879 17.7863 31.545 18.2502C31.5507 18.2559 31.5565 18.2559 31.5622 18.2615C31.5793 18.2785 32.0536 18.6915 32.465 19.6758C32.8079 20.4904 33.0079 22.1536 32.8022 22.4591C32.7565 22.527 32.6822 22.5666 32.6079 22.5666ZM30.065 17.9504C29.9679 17.9504 29.945 17.99 29.9336 18.007C29.785 18.2672 30.0879 19.1667 30.585 19.97C31.2079 20.9656 32.0879 21.752 32.4936 22.0631C32.5107 21.5992 32.385 20.4961 32.105 19.8229C31.7565 18.9913 31.3622 18.6066 31.3107 18.5614C30.5508 18.0296 30.2022 17.9504 30.065 17.9504Z" fill="#595757"/>
<path d="M29.6593 17.6393C29.6593 17.6393 31.0765 18.9461 31.0765 20.1454C31.0765 21.3447 31.1793 22.691 30.9622 22.691C30.745 22.691 28.7508 21.2541 27.9908 20.5414C27.2308 19.8229 28.4079 16.1911 29.6593 17.6393Z" fill="white"/>
<path d="M30.9622 22.8834C30.8936 22.8834 30.7336 22.8834 29.5679 22.0405C29.0193 21.6445 28.2822 21.0788 27.8593 20.6771C27.4022 20.2472 27.5165 19.1271 27.8536 18.2899C28.1565 17.5375 28.5965 17.1019 29.0593 17.1019C29.3222 17.1019 29.5679 17.2376 29.8022 17.4979C29.9336 17.6223 31.2707 18.9065 31.2707 20.1397C31.2707 20.4452 31.2765 20.762 31.2822 21.0675C31.305 22.2215 31.2993 22.6402 31.1393 22.8042C31.0936 22.8551 31.0307 22.8834 30.9622 22.8834ZM29.0593 17.4979C28.7736 17.4979 28.4536 17.8599 28.2193 18.4426C27.8993 19.2289 27.8593 20.1454 28.1279 20.3999C28.8193 21.0505 30.3965 22.1876 30.8765 22.4478C30.9165 22.1932 30.905 21.5823 30.8936 21.0845C30.8879 20.779 30.8822 20.4622 30.8822 20.151C30.8822 19.0536 29.5393 17.7977 29.5279 17.7864C29.5222 17.7807 29.5165 17.7751 29.5108 17.7694C29.3508 17.5884 29.2022 17.4979 29.0593 17.4979Z" fill="#595757"/>
<path d="M27.5051 17.198C27.7965 17.4865 28.5565 18.2729 28.5565 19.8173C28.5565 21.3616 28.5565 22.6854 27.9222 22.9569C27.2879 23.2285 25.9336 22.4195 24.8365 19.789C24.0651 17.9334 26.7679 16.4683 27.5051 17.198Z" fill="white"/>
<path d="M27.6594 23.1946C26.9165 23.1946 25.6822 22.3177 24.6537 19.8569C24.3279 19.0706 24.5851 18.4257 24.8594 18.0184C25.3279 17.3282 26.2251 16.8077 26.9508 16.8077C27.2422 16.8077 27.4765 16.8926 27.6422 17.0567C27.9165 17.3282 28.7508 18.1485 28.7508 19.8116C28.7508 21.4861 28.7508 22.8099 27.9965 23.1324C27.8994 23.172 27.7851 23.1946 27.6594 23.1946ZM26.9508 17.1981C26.4251 17.1981 25.6251 17.5884 25.1851 18.2333C24.9622 18.5614 24.7565 19.0819 25.0194 19.7042C25.9051 21.8312 27.0136 22.8042 27.6651 22.8042C27.7336 22.8042 27.7965 22.7929 27.8479 22.7703C28.3622 22.5497 28.3622 21.2203 28.3622 19.8116C28.3622 18.3125 27.6136 17.5771 27.3679 17.3338C27.2536 17.2207 27.0765 17.1981 26.9508 17.1981Z" fill="#595757"/>
<path d="M3.79095 18.4086C3.79095 18.4086 3.33952 18.799 2.93952 19.7494C2.53953 20.6998 2.43096 22.4761 2.63095 22.3686C2.83095 22.2611 4.00809 21.3447 4.80237 20.0718C5.60236 18.799 6.25379 16.6719 3.79095 18.4086Z" fill="white"/>
<path d="M2.61953 22.5666C2.53953 22.5666 2.47096 22.527 2.42525 22.4591C2.21954 22.1536 2.41953 20.4904 2.76239 19.6758C3.17382 18.6971 3.6481 18.2785 3.66524 18.2615C3.67095 18.2559 3.67667 18.2559 3.68238 18.2502C4.33952 17.7863 4.82523 17.5601 5.16237 17.5601C5.3738 17.5601 5.54523 17.6506 5.63665 17.8203C5.93951 18.3577 5.36237 19.557 4.9738 20.1736C4.16809 21.4578 2.96239 22.4082 2.7281 22.5383C2.69382 22.5553 2.65382 22.5666 2.61953 22.5666ZM3.91667 18.5614C3.86524 18.6066 3.47096 18.9913 3.12239 19.8229C2.84239 20.4961 2.71668 21.5936 2.73382 22.0631C3.13953 21.752 4.01952 20.9656 4.64238 19.97C5.14523 19.1667 5.44237 18.2729 5.2938 18.007C5.28237 17.9843 5.25952 17.9504 5.16237 17.9504C5.01952 17.9504 4.67095 18.0296 3.91667 18.5614Z" fill="#595757"/>
<path d="M5.56806 17.6393C5.56806 17.6393 4.15093 18.9461 4.15093 20.1454C4.15093 21.3447 4.04807 22.691 4.26521 22.691C4.48236 22.691 6.47663 21.2541 7.23662 20.5414C7.99662 19.8229 6.81948 16.1911 5.56806 17.6393Z" fill="white"/>
<path d="M4.26523 22.8834C4.19666 22.8834 4.1338 22.8551 4.08237 22.8042C3.92237 22.6402 3.91666 22.2215 3.93952 21.0675C3.94523 20.762 3.95094 20.4452 3.95094 20.1397C3.95094 18.9065 5.29379 17.6223 5.41951 17.4979C5.64808 17.232 5.8995 17.1019 6.16236 17.1019C6.62521 17.1019 7.06521 17.5318 7.36806 18.2899C7.7052 19.1271 7.81949 20.2472 7.36235 20.6771C6.93949 21.0788 6.20236 21.6388 5.65379 22.0405C4.4938 22.8834 4.3338 22.8834 4.26523 22.8834ZM6.16807 17.4979C6.02521 17.4979 5.87093 17.5884 5.71665 17.7694C5.71093 17.7751 5.70522 17.7807 5.6995 17.7864C5.68808 17.7977 4.34523 19.0479 4.34523 20.151C4.34523 20.4622 4.33951 20.779 4.3338 21.0845C4.32237 21.5879 4.31094 22.1932 4.35094 22.4478C4.83094 22.1876 6.40807 21.0505 7.09949 20.3999C7.36806 20.1454 7.32806 19.2289 7.00807 18.4426C6.77378 17.8543 6.45378 17.4979 6.16807 17.4979Z" fill="#595757"/>
<path d="M7.72237 17.198C7.43095 17.4865 6.67095 18.2729 6.67095 19.8173C6.67095 21.3616 6.67095 22.6854 7.30523 22.9569C7.93951 23.2285 9.29379 22.4195 10.3909 19.789C11.1623 17.9334 8.45951 16.4683 7.72237 17.198Z" fill="white"/>
<path d="M7.56237 23.1947C7.44237 23.1947 7.32808 23.1721 7.22523 23.1268C6.47095 22.8044 6.47095 21.4806 6.47095 19.8061C6.47095 18.1429 7.30523 17.3226 7.57951 17.0511C7.74522 16.8927 7.97951 16.8022 8.27093 16.8022C8.99664 16.8022 9.89949 17.3226 10.3623 18.0128C10.6366 18.4201 10.8938 19.065 10.5681 19.8514C9.54521 22.3235 8.31093 23.1947 7.56237 23.1947ZM8.27665 17.1982C8.15094 17.1982 7.97379 17.2208 7.85951 17.3339C7.6138 17.5772 6.86523 18.3126 6.86523 19.8118C6.86523 21.2204 6.86523 22.5498 7.37951 22.7704C7.43094 22.793 7.4938 22.8043 7.56237 22.8043C8.21379 22.8043 9.31664 21.837 10.2081 19.7043C10.4709 19.0763 10.2595 18.5559 10.0423 18.2334C9.60235 17.5885 8.79664 17.1982 8.27665 17.1982Z" fill="#595757"/>
<path d="M21.2594 17.7015C21.2594 16.6889 17.6137 16.6889 17.6137 17.7015C17.6137 19.4552 17.9108 22.1933 19.4365 22.1933C20.9622 22.1933 21.2594 19.4552 21.2594 17.7015Z" fill="white"/>
<path d="M19.4365 22.3855C17.6137 22.3855 17.4137 19.1101 17.4137 17.7015C17.4137 17.0396 18.4308 16.7454 19.4365 16.7454C20.4422 16.7454 21.4594 17.0396 21.4594 17.7015C21.4594 19.1101 21.2594 22.3855 19.4365 22.3855ZM19.4365 17.1358C18.5394 17.1358 17.808 17.3903 17.808 17.7015C17.808 18.7084 17.928 21.9952 19.4365 21.9952C20.9451 21.9952 21.0651 18.7084 21.0651 17.7015C21.0651 17.3903 20.3337 17.1358 19.4365 17.1358Z" fill="#595757"/>
<path d="M24.9279 18.0069C24.9279 16.9321 21.2594 16.9321 21.2594 18.0069C21.2594 19.8681 22.0308 22.7702 23.448 22.7702C24.7622 22.7702 24.9279 19.8625 24.9279 18.0069Z" fill="white"/>
<path d="M23.448 22.9626C22.7222 22.9626 22.0994 22.3346 21.6423 21.1523C21.288 20.2302 21.0651 19.0253 21.0651 18.007C21.0651 17.3168 22.0823 17.0057 23.0937 17.0057C24.1051 17.0057 25.1222 17.3168 25.1222 18.007C25.1222 21.3447 24.5794 22.9626 23.448 22.9626ZM23.0937 17.396C22.1737 17.396 21.4537 17.6619 21.4537 18.007C21.4537 19.8682 22.2308 22.5779 23.448 22.5779C24.2765 22.5779 24.7337 20.9543 24.7337 18.007C24.7337 17.6619 24.0137 17.396 23.0937 17.396Z" fill="#595757"/>
<path d="M13.9623 17.7015C13.9623 16.6889 17.608 16.6889 17.608 17.7015C17.608 19.4552 17.3108 22.1933 15.7851 22.1933C14.2594 22.1933 13.9623 19.4552 13.9623 17.7015Z" fill="white"/>
<path d="M15.7908 22.3855C13.968 22.3855 13.768 19.1101 13.768 17.7015C13.768 17.0396 14.7851 16.7454 15.7908 16.7454C16.7965 16.7454 17.8137 17.0396 17.8137 17.7015C17.808 19.1101 17.6137 22.3855 15.7908 22.3855ZM15.7908 17.1358C14.8937 17.1358 14.1623 17.3903 14.1623 17.7015C14.1623 18.7084 14.2823 21.9952 15.7908 21.9952C17.2994 21.9952 17.4194 18.7084 17.4194 17.7015C17.4137 17.3903 16.688 17.1358 15.7908 17.1358Z" fill="#595757"/>
<path d="M10.2938 18.0069C10.2938 16.9321 13.9623 16.9321 13.9623 18.0069C13.9623 19.8681 13.1909 22.7702 11.7738 22.7702C10.4652 22.7702 10.2938 19.8625 10.2938 18.0069Z" fill="white"/>
<path d="M11.7737 22.9626C10.648 22.9626 10.0994 21.339 10.0994 18.007C10.0994 17.3168 11.1166 17.0057 12.128 17.0057C13.1394 17.0057 14.1565 17.3168 14.1565 18.007C14.1565 19.0253 13.9337 20.2359 13.5794 21.1523C13.128 22.3403 12.4994 22.9626 11.7737 22.9626ZM12.128 17.396C11.208 17.396 10.488 17.6619 10.488 18.007C10.488 20.9543 10.9451 22.5779 11.7737 22.5779C12.9908 22.5779 13.768 19.8738 13.768 18.007C13.768 17.6619 13.048 17.396 12.128 17.396Z" fill="#595757"/>
<path d="M33.8754 8.25081C33.9212 7.77503 34.8881 7.56615 34.8195 5.89511C34.7508 4.22407 34.4876 2.51822 34.4876 2.51822C23.0042 -2.46589 17.5114 2.11206 17.5114 2.11206C17.5114 2.11206 12.0186 -2.46589 0.535277 2.51822C0.535277 2.51822 0.272081 4.22407 0.203421 5.89511C0.134761 7.56615 1.10744 7.76923 1.14749 8.25081L3.88245 11.442H31.7355L33.8754 8.25081Z" fill="white"/>
<path d="M31.7355 11.6392H3.88243C3.82522 11.6392 3.77372 11.616 3.73367 11.5696L0.998718 8.3784C0.970109 8.34939 0.952945 8.30877 0.952945 8.26816C0.947223 8.17532 0.849955 8.07088 0.724079 7.93743C0.420831 7.6009 -0.0426238 7.09031 0.00314947 5.88925C0.0718094 4.22401 0.335006 2.50656 0.335006 2.48915C0.346449 2.41952 0.392222 2.3615 0.449439 2.33829C4.0312 0.783299 7.39553 0 10.4566 0C14.6563 0 16.9564 1.46796 17.5 1.86831C18.0435 1.46796 20.3436 0 24.5433 0C27.6044 0 30.9745 0.789102 34.5505 2.33829C34.6135 2.3673 34.6592 2.42533 34.665 2.48915C34.665 2.50656 34.9339 4.22982 34.9968 5.88925C35.0426 7.09031 34.5849 7.6009 34.2759 7.93743C34.1557 8.07088 34.0585 8.18112 34.047 8.26816C34.0413 8.30297 34.0299 8.33198 34.0127 8.36099L31.8728 11.5522C31.8613 11.6044 31.7984 11.6392 31.7355 11.6392ZM3.97398 11.2389H31.6325L33.6866 8.17532C33.7266 7.97805 33.8639 7.82719 34.007 7.66473C34.2873 7.35721 34.665 6.93945 34.6249 5.90085C34.5677 4.49672 34.3674 3.05197 34.3102 2.65161C30.8143 1.14884 27.5358 0.388748 24.5548 0.388748C19.9489 0.388748 17.6545 2.24546 17.6316 2.26286C17.5572 2.32089 17.4542 2.32089 17.3798 2.26286C17.3569 2.24546 15.0626 0.388748 10.4566 0.388748C7.47564 0.388748 4.19713 1.14884 0.701192 2.65161C0.643975 3.05197 0.443717 4.49672 0.3865 5.90085C0.346449 6.93365 0.724078 7.35721 1.00444 7.66473C1.14748 7.82139 1.27908 7.97225 1.32485 8.15792L3.97398 11.2389Z" fill="#595757"/>
<path d="M31.621 9.54473C31.621 9.54473 32.588 8.4191 33.2288 7.90851C33.8696 7.39791 33.9383 8.07097 33.8296 8.72662C33.7152 9.38227 33.492 10.74 33.2002 11.941C32.9084 13.1421 32.2218 14.0763 31.3006 13.1943C30.3794 12.3124 30.1334 11.0881 31.621 9.54473Z" fill="white"/>
<path d="M32.0101 13.7455C31.7297 13.7455 31.4494 13.612 31.169 13.3393C30.6426 12.8345 30.3737 12.2775 30.3623 11.6799C30.3508 10.9546 30.7227 10.1887 31.478 9.41123C31.5581 9.31839 32.4735 8.25659 33.1087 7.75179C33.2975 7.60094 33.4577 7.53131 33.6064 7.53131C33.7323 7.53131 33.8353 7.58353 33.9154 7.67637C34.1157 7.92006 34.0813 8.40164 34.0241 8.76138L33.9955 8.92965C33.8811 9.60851 33.6637 10.8792 33.3947 11.9932C33.1201 13.1072 32.6166 13.7455 32.0101 13.7455ZM33.6064 7.93166C33.5893 7.93166 33.5092 7.94327 33.3547 8.07092C32.7367 8.56411 31.7812 9.67233 31.7755 9.68393C31.7755 9.68974 31.7698 9.68974 31.7698 9.69554C31.0889 10.3976 30.7513 11.0649 30.7628 11.6799C30.7742 12.1673 31.0031 12.6315 31.4437 13.0608C31.6496 13.2581 31.8384 13.3567 32.0101 13.3567C32.4106 13.3567 32.794 12.7997 33.0114 11.9062C33.2803 10.8038 33.492 9.54468 33.6064 8.87162L33.635 8.70336C33.7209 8.19276 33.6465 7.96648 33.6122 7.93747C33.6122 7.93166 33.6064 7.93166 33.6064 7.93166Z" fill="#595757"/>
<path d="M27.8276 9.00541C27.8276 9.00541 29.0863 7.1545 29.6528 6.54527C30.2135 5.93604 31.1633 5.5879 31.5066 6.27837C31.8499 6.97463 31.7069 10.3979 31.2663 11.5816C30.8257 12.7652 29.916 13.6704 28.9319 12.9219C27.9363 12.1792 26.5288 11.0594 27.8276 9.00541Z" fill="white"/>
<path d="M29.6528 13.3975C29.3667 13.3975 29.0806 13.2931 28.806 13.0842C28.3311 12.7245 27.6845 12.2371 27.3412 11.5466C26.9464 10.7517 27.0494 9.86399 27.6617 8.90082C27.6617 8.90082 27.6617 8.89502 27.6674 8.89502C27.7189 8.81959 28.9433 7.0267 29.5098 6.41167C29.9103 5.98231 30.4481 5.698 30.8887 5.698C31.2434 5.698 31.5238 5.87206 31.684 6.19119C32.0616 6.95128 31.9128 10.4268 31.4494 11.6569C31.0374 12.7477 30.368 13.3975 29.6528 13.3975ZM27.9878 9.1155C26.8663 10.891 27.8447 11.8542 29.0406 12.7593C29.2466 12.916 29.4468 12.9914 29.6471 12.9914C30.2879 12.9914 30.8028 12.2255 31.0718 11.506C31.5181 10.3108 31.6268 6.97449 31.3235 6.35945C31.232 6.17378 31.0889 6.08675 30.883 6.08675C30.5511 6.08675 30.1162 6.31883 29.7901 6.67277C29.258 7.2646 28.045 9.03427 27.9878 9.1155Z" fill="#595757"/>
<path d="M27.9591 11.332C27.9591 12.7651 23.4276 12.7651 23.4276 11.332C23.4276 8.86022 24.3316 5.77344 25.6933 5.77344C27.5929 5.77344 27.9591 8.86022 27.9591 11.332Z" fill="white"/>
<path d="M25.6991 12.6084C24.4746 12.6084 23.2388 12.2138 23.2388 11.3377C23.2388 10.0554 23.4734 8.64548 23.8739 7.56047C24.3488 6.26658 24.9839 5.57611 25.6991 5.57611C26.6432 5.57611 27.3298 6.24917 27.7303 7.56627C28.0164 8.50043 28.1594 9.77111 28.1594 11.3319C28.1594 12.2138 26.9235 12.6084 25.6991 12.6084ZM25.6991 5.97646C24.5319 5.97646 23.6278 8.86017 23.6278 11.3377C23.6278 11.9063 24.6921 12.2138 25.6991 12.2138C26.7004 12.2138 27.7703 11.9063 27.7703 11.3377C27.7646 8.88918 27.4041 5.97646 25.6991 5.97646Z" fill="#595757"/>
<path d="M3.40179 9.54473C3.40179 9.54473 2.43483 8.4191 1.794 7.90851C1.15318 7.39791 1.08452 8.07097 1.19323 8.72662C1.30766 9.38227 1.53081 10.74 1.82261 11.941C2.11442 13.1421 2.80101 14.0763 3.7222 13.1943C4.64339 12.3124 4.88942 11.0881 3.40179 9.54473Z" fill="white"/>
<path d="M3.01271 13.7455C2.40622 13.7455 1.89699 13.1072 1.62807 11.9932C1.35343 10.8792 1.14173 9.60851 1.0273 8.92965L0.998687 8.76138C0.935749 8.40164 0.907141 7.92006 1.1074 7.67637C1.1875 7.57773 1.29621 7.53131 1.41637 7.53131C1.56513 7.53131 1.72534 7.60094 1.91415 7.75179C2.54926 8.25659 3.47044 9.31839 3.54483 9.41123C4.30008 10.1887 4.67199 10.9546 4.66055 11.6799C4.64911 12.2775 4.38019 12.8345 3.85379 13.3393C3.57343 13.6062 3.29307 13.7455 3.01271 13.7455ZM1.41637 7.93166C1.41065 7.93166 1.41065 7.93166 1.41065 7.93166C1.37632 7.95487 1.29621 8.18116 1.38776 8.69756L1.41637 8.86582C1.5308 9.53888 1.7425 10.798 2.01142 11.9004C2.22884 12.7939 2.6122 13.3509 3.01271 13.3509C3.18436 13.3509 3.3789 13.2523 3.57916 13.055C4.02545 12.6257 4.25431 12.1673 4.26003 11.6741C4.27148 11.0591 3.9339 10.3918 3.25302 9.68973C3.25302 9.68973 3.2473 9.68393 3.2473 9.67813C3.23586 9.66653 2.28606 8.5583 1.66812 8.06511C1.51364 7.93747 1.43926 7.93166 1.41637 7.93166Z" fill="#595757"/>
<path d="M7.19526 9.00541C7.19526 9.00541 5.93649 7.1545 5.37005 6.54527C4.80932 5.93604 3.85953 5.5879 3.51623 6.27837C3.17293 6.97463 3.31597 10.3979 3.75654 11.5816C4.19711 12.7652 5.10685 13.6704 6.09097 12.9219C7.08654 12.1792 8.49407 11.0594 7.19526 9.00541Z" fill="white"/>
<path d="M5.37004 13.3975C4.65483 13.3975 3.9854 12.7477 3.57916 11.6569C3.12143 10.4268 2.97267 6.95128 3.34458 6.19119C3.49906 5.87206 3.78514 5.698 4.13989 5.698C4.58045 5.698 5.11829 5.9765 5.51881 6.41167C6.08525 7.0267 7.30969 8.81959 7.36118 8.89502C7.36118 8.89502 7.36118 8.90082 7.3669 8.90082C7.9734 9.86399 8.08211 10.7517 7.68731 11.5466C7.34401 12.2371 6.69747 12.7245 6.22257 13.0842C5.94221 13.2931 5.65613 13.3975 5.37004 13.3975ZM4.13989 6.09835C3.93391 6.09835 3.79087 6.18538 3.69932 6.37106C3.39607 6.98609 3.49906 10.3224 3.95107 11.5176C4.21999 12.2371 4.73494 13.003 5.37576 13.003C5.57602 13.003 5.782 12.9276 5.98226 12.7709C7.17809 11.8658 8.15649 10.9026 7.03505 9.12711C6.97783 9.04588 5.77056 7.2762 5.23272 6.69018C4.90659 6.33044 4.47174 6.09835 4.13989 6.09835Z" fill="#595757"/>
<path d="M7.06367 11.332C7.06367 12.7651 11.5952 12.7651 11.5952 11.332C11.5952 8.86022 10.6912 5.77344 9.32945 5.77344C7.42986 5.77344 7.06367 8.86022 7.06367 11.332Z" fill="white"/>
<path d="M9.32372 12.6084C8.09928 12.6084 6.8634 12.2138 6.8634 11.3377C6.8634 9.77691 7.00644 8.50623 7.29253 7.57207C7.69304 6.24916 8.37964 5.58191 9.32372 5.58191C10.0446 5.58191 10.674 6.26657 11.1489 7.56627C11.5437 8.65128 11.784 10.0612 11.784 11.3435C11.7898 12.2138 10.5539 12.6084 9.32372 12.6084ZM9.32372 5.97646C7.61294 5.97646 7.25248 8.88917 7.25248 11.3377C7.25248 11.9063 8.3167 12.2138 9.32372 12.2138C10.325 12.2138 11.395 11.9063 11.395 11.3377C11.395 8.85436 10.4909 5.97646 9.32372 5.97646Z" fill="#595757"/>
<path d="M23.4333 11.8425C23.4333 13.2872 17.5114 13.2872 17.5114 11.8425C17.5114 9.34751 17.992 5.44843 20.4695 5.44843C22.947 5.44843 23.4333 9.34751 23.4333 11.8425Z" fill="white"/>
<path d="M20.4695 13.1246C19.0105 13.1246 17.3112 12.7881 17.3112 11.8424C17.3112 9.858 17.6201 5.25104 20.4695 5.25104C23.3189 5.25104 23.6279 9.8638 23.6279 11.8424C23.6279 12.7881 21.9285 13.1246 20.4695 13.1246ZM20.4695 5.64559C19.4682 5.64559 18.7187 6.35926 18.2438 7.7692C17.7746 9.17334 17.706 10.9198 17.706 11.8366C17.706 12.3297 18.9189 12.7185 20.4695 12.7185C22.0201 12.7185 23.2331 12.3297 23.2331 11.8366C23.2331 10.9198 23.1644 9.17334 22.6952 7.7692C22.2261 6.36506 21.4765 5.64559 20.4695 5.64559Z" fill="#595757"/>
<path d="M11.5895 11.8425C11.5895 13.2872 17.5114 13.2872 17.5114 11.8425C17.5114 9.34751 17.0308 5.44843 14.5533 5.44843C12.0758 5.44843 11.5895 9.34751 11.5895 11.8425Z" fill="white"/>
<path d="M14.5533 13.1246C13.1 13.1246 11.395 12.7881 11.395 11.8424C11.395 9.858 11.7039 5.25104 14.5533 5.25104C17.4027 5.25104 17.7117 9.8638 17.7117 11.8424C17.7059 12.7881 16.0066 13.1246 14.5533 13.1246ZM14.5533 5.64559C13.552 5.64559 12.8025 6.35926 12.3276 7.7692C11.8584 9.17334 11.7898 10.9198 11.7898 11.8366C11.7898 12.3297 13.0027 12.7185 14.5533 12.7185C16.1039 12.7185 17.3169 12.3297 17.3169 11.8366C17.3169 10.9198 17.2482 9.17334 16.779 7.7692C16.3041 6.36506 15.5546 5.64559 14.5533 5.64559Z" fill="#595757"/>
</svg>
