<svg width="37" height="37" viewBox="0 0 37 37" fill="none" xmlns="http://www.w3.org/2000/svg">
<path opacity="0.7" d="M1.29077 35.7001L10.028 26.7001L9.92874 1.30005L1.29077 10.1V35.7001Z" fill="#726AA6"/>
<path d="M36.9348 0.6C36.8355 0.4 36.8355 0.4 36.7362 0.3C36.7362 0.3 36.7362 0.2 36.6369 0.2C36.5376 0.1 36.5376 0.1 36.4383 0.1L36.2398 0C36.1405 0 36.1405 0 36.1405 0H10.3259H10.2266C10.1273 0 10.1273 0 10.028 0H9.92871C9.82942 0 9.73013 0.1 9.63084 0.2L0.297861 9.6C0.198574 9.7 0.198574 9.8 0.099287 9.9C0.099287 10 0 10.1 0 10.2V36.1C0 36.2 -9.6167e-08 36.3 0.099287 36.4V36.5C0.099287 36.6 0.198574 36.6 0.198574 36.7C0.198574 36.7 0.198574 36.8 0.297861 36.8C0.397148 36.9 0.397148 36.9 0.496435 36.9L0.595722 37C0.695009 37 0.794296 37 0.893583 37H26.6089C26.7082 37 26.8075 37 26.9068 36.9C27.0061 36.9 27.1054 36.8 27.2047 36.7L36.5376 27.3C36.6369 27.2 36.6369 27.1 36.7362 27C36.7362 26.9 36.8355 26.8 36.8355 26.7V0.9C37.0341 0.8 37.0341 0.7 36.9348 0.6ZM11.3187 25.9V11.1H25.9139V25.8H11.3187V25.9ZM26.0132 27.6V35.2H3.27647L10.8223 27.6H26.0132ZM3.27647 9.4L9.53156 3.1V9.4H3.27647ZM9.63084 11.1V26.3L2.08503 33.9V11.1H9.63084ZM34.0555 1.8L26.5096 9.4H11.3187V1.8H34.0555ZM35.2469 3V25.8H27.7011V10.6L35.2469 3ZM34.0555 27.6L27.8004 33.9V27.6H34.0555V27.6Z" fill="#726AA6"/>
</svg>
