<svg width="31" height="35" viewBox="0 0 31 35" fill="none" xmlns="http://www.w3.org/2000/svg">
<path d="M24.9972 12.4986H19.8391V14.5817H24.9972C26.7828 14.5817 28.2707 15.4745 28.2707 16.5656V30.2546C28.2707 31.3457 26.7828 32.2385 24.9972 32.2385H5.35655C3.57104 32.2385 2.0831 31.3457 2.0831 30.2546V16.5656C2.0831 15.4745 3.57104 14.5817 5.35655 14.5817H10.5147V12.4986H5.35655C2.38069 12.4986 0 14.2841 0 16.5656V30.2546C0 32.5361 2.38069 34.3216 5.35655 34.3216H24.9972C27.9731 34.3216 30.3538 32.5361 30.3538 30.2546V16.5656C30.3538 14.2841 27.9731 12.4986 24.9972 12.4986Z" fill="white"/>
<path d="M10.6139 7.63805C11.0107 7.63805 11.4075 7.43966 11.7051 7.14207L13.5898 5.25736V12.4986V14.5817V21.0294C13.5898 21.9222 14.2841 22.6166 15.1769 22.6166C16.0697 22.6166 16.764 21.9222 16.764 21.0294V14.5817V12.4986V5.15816L18.8471 7.24127C19.1447 7.53885 19.5415 7.73724 19.9383 7.73724C20.3351 7.73724 20.7318 7.53885 21.0294 7.24127C21.6246 6.64609 21.6246 5.65414 21.0294 5.05897L16.4664 0.495977C16.1689 0.198391 15.7721 0 15.3753 0C14.9785 0 14.5817 0.198391 14.2841 0.495977L9.72115 5.05897C9.12598 5.65414 9.12598 6.64609 9.72115 7.24127C9.82035 7.53885 10.2171 7.63805 10.6139 7.63805Z" fill="white"/>
</svg>
