<svg width="37" height="37" viewBox="0 0 37 37" fill="none" xmlns="http://www.w3.org/2000/svg">
<path opacity="0.7" d="M26.7082 10.1001H0.893616V36.1001H26.7082V10.1001Z" fill="#726AA6"/>
<path d="M36.9348 0.6C36.8355 0.4 36.8355 0.4 36.7362 0.3C36.7362 0.3 36.7362 0.2 36.6369 0.2C36.5376 0.1 36.5376 0.1 36.4383 0.1L36.2398 0C36.1405 0 36.1405 0 36.1405 0H10.3259H10.2266C10.1273 0 10.1273 0 10.028 0H9.92871C9.82942 0 9.73013 0.1 9.63084 0.2L0.297861 9.6C0.198574 9.7 0.198574 9.8 0.099287 9.9C0.099287 10 0 10.1 0 10.2V36.1C0 36.2 -9.6167e-08 36.3 0.099287 36.4V36.5C0.099287 36.6 0.198574 36.6 0.198574 36.7C0.198574 36.7 0.198574 36.8 0.297861 36.8C0.397148 36.9 0.397148 36.9 0.496435 36.9L0.595722 37C0.695009 37 0.794296 37 0.893583 37H26.6089C26.7082 37 26.8075 37 26.9068 36.9C27.0061 36.9 27.1054 36.8 27.2047 36.7L36.5376 27.3C36.6369 27.2 36.6369 27.1 36.7362 27C36.7362 26.9 36.8355 26.8 36.8355 26.7V0.9C37.0341 0.8 37.0341 0.7 36.9348 0.6ZM9.63084 3V9.3H3.27647L9.63084 3ZM2.08503 11.1H9.63084V26.3L2.08503 33.9V11.1V11.1ZM26.0132 35.2H3.27647L10.8223 27.6H25.9139V35.2H26.0132ZM26.0132 25.9H11.3187V11.1H25.9139V25.9H26.0132ZM26.5096 9.4H11.3187V1.8H33.9562L26.5096 9.4ZM27.7011 34V27.7H33.9562L27.7011 34ZM35.2469 25.9H27.7011V10.6L35.2469 3V25.9Z" fill="#726AA6"/>
</svg>
