<svg width="37" height="37" viewBox="0 0 37 37" fill="none" xmlns="http://www.w3.org/2000/svg">
<path opacity="0.7" d="M1.38971 10L10.5218 0.800049H35.933L26.7016 10H1.38971Z" fill="#726AA6"/>
<path d="M36.9256 0.6C36.8263 0.4 36.8263 0.4 36.727 0.3C36.727 0.3 36.727 0.2 36.6278 0.2C36.5285 0.1 36.5285 0.1 36.4292 0.1L36.2307 0C36.1315 0 36.1315 0 36.1315 0H10.3233H10.224C10.1247 0 10.1247 0 10.0255 0H9.92622C9.82696 0 9.7277 0.1 9.62844 0.2L0.297787 9.6C0.198524 9.7 0.198524 9.8 0.0992621 9.9C-9.6143e-08 10 0 10.1 0 10.2V36.1C0 36.2 -9.6143e-08 36.3 0.0992621 36.4V36.5C0.0992621 36.6 0.198524 36.6 0.198524 36.7C0.198524 36.7 0.198524 36.8 0.297787 36.8C0.397049 36.9 0.397049 36.9 0.496311 36.9L0.694836 37C0.794098 37 0.89336 37 0.992622 37H26.7015C26.8008 37 26.9001 37 26.9993 36.9C27.0986 36.9 27.1979 36.8 27.2971 36.7L36.6278 27.3C36.727 27.2 36.727 27.1 36.8263 27C36.8263 26.9 36.9256 26.8 36.9256 26.7V0.9C37.0248 0.8 37.0248 0.7 36.9256 0.6ZM11.3159 25.9V11.1H25.9074V25.8H11.3159V25.9ZM26.0067 27.6V35.2H3.27565L10.8196 27.6H26.0067ZM3.27565 9.4L9.52918 3.1V9.4H3.27565ZM9.62844 11.1V26.3L2.08451 33.9V11.1H9.62844ZM34.0469 1.8L26.503 9.4H11.3159V1.8H34.0469ZM35.2381 3V25.8H27.6942V10.6L35.2381 3ZM34.0469 27.6L27.7934 33.9V27.6H34.0469V27.6Z" fill="#726AA6"/>
</svg>
