<svg width="34" height="38" viewBox="0 0 34 38" fill="none" xmlns="http://www.w3.org/2000/svg">
<path d="M2.42857 34.4375C2.42857 35.3823 2.81237 36.2885 3.49554 36.9566C4.17871 37.6247 5.10528 38 6.07143 38H27.9286C28.8947 38 29.8213 37.6247 30.5045 36.9566C31.1876 36.2885 31.5714 35.3823 31.5714 34.4375V9.50001H2.42857V34.4375ZM23.0714 15.4375C23.0714 15.1226 23.1994 14.8205 23.4271 14.5978C23.6548 14.3751 23.9637 14.25 24.2857 14.25C24.6078 14.25 24.9166 14.3751 25.1443 14.5978C25.3721 14.8205 25.5 15.1226 25.5 15.4375V32.0625C25.5 32.3774 25.3721 32.6795 25.1443 32.9022C24.9166 33.1249 24.6078 33.25 24.2857 33.25C23.9637 33.25 23.6548 33.1249 23.4271 32.9022C23.1994 32.6795 23.0714 32.3774 23.0714 32.0625V15.4375ZM15.7857 15.4375C15.7857 15.1226 15.9136 14.8205 16.1414 14.5978C16.3691 14.3751 16.678 14.25 17 14.25C17.322 14.25 17.6309 14.3751 17.8586 14.5978C18.0864 14.8205 18.2143 15.1226 18.2143 15.4375V32.0625C18.2143 32.3774 18.0864 32.6795 17.8586 32.9022C17.6309 33.1249 17.322 33.25 17 33.25C16.678 33.25 16.3691 33.1249 16.1414 32.9022C15.9136 32.6795 15.7857 32.3774 15.7857 32.0625V15.4375ZM8.5 15.4375C8.5 15.1226 8.62793 14.8205 8.85566 14.5978C9.08338 14.3751 9.39224 14.25 9.71429 14.25C10.0363 14.25 10.3452 14.3751 10.5729 14.5978C10.8006 14.8205 10.9286 15.1226 10.9286 15.4375V32.0625C10.9286 32.3774 10.8006 32.6795 10.5729 32.9022C10.3452 33.1249 10.0363 33.25 9.71429 33.25C9.39224 33.25 9.08338 33.1249 8.85566 32.9022C8.62793 32.6795 8.5 32.3774 8.5 32.0625V15.4375ZM32.7857 2.37501H23.6786L22.9652 0.987122C22.8141 0.690406 22.5813 0.440815 22.293 0.266427C22.0047 0.09204 21.6724 -0.000224732 21.3335 1.30126e-05H12.6589C12.3207 -0.00125839 11.989 0.0906623 11.7018 0.265244C11.4145 0.439825 11.1834 0.690006 11.0348 0.987122L10.3214 2.37501H1.21429C0.892237 2.37501 0.583379 2.50012 0.355656 2.72282C0.127933 2.94552 0 3.24757 0 3.56251L0 5.93751C0 6.25245 0.127933 6.5545 0.355656 6.7772C0.583379 6.9999 0.892237 7.12501 1.21429 7.12501H32.7857C33.1078 7.12501 33.4166 6.9999 33.6443 6.7772C33.8721 6.5545 34 6.25245 34 5.93751V3.56251C34 3.24757 33.8721 2.94552 33.6443 2.72282C33.4166 2.50012 33.1078 2.37501 32.7857 2.37501Z" fill="#726AA6"/>
</svg>
