<svg width="54" height="34" viewBox="0 0 54 34" fill="none" xmlns="http://www.w3.org/2000/svg">
<path d="M4 31.0446L14.1 22.8375H24.723L39.3827 10" stroke="#353147" stroke-miterlimit="10" stroke-linecap="round" stroke-dasharray="3 3"/>
<circle cx="4" cy="32" r="2" fill="#353147"/>
<circle cx="41" cy="9" r="2" fill="#353147"/>
<circle cx="15" cy="23" r="2" fill="#353147"/>
<path d="M24.3331 21.0899L35.7401 11.4137C35.1487 11.0937 34.5107 10.825 33.8415 10.633C32.3475 10.2234 30.7291 10.2362 29.1729 10.057C26.076 9.71143 23.1192 8.5979 20.7694 6.9084C18.9019 5.55169 17.4391 3.8622 15.6339 2.45428C13.8287 1.04637 11.4944 -0.118356 9.02 0.00963569C7.23037 0.0864309 5.56522 0.841584 4.24245 1.82712C1.05222 4.22057 -0.254989 7.99634 0.0406899 11.5545C0.336369 15.0999 2.07932 18.4661 4.1802 21.5635C5.25398 23.1506 6.46782 24.7121 7.89953 26.0816L14.2333 21.0899H24.3331Z" fill="#726AA6"/>
<path d="M39.7313 15.153C39.3049 14.7569 38.831 14.3872 38.3414 14.0439L26.2905 24.4477H16.0085L9.92773 29.3195C11.0017 30.2569 12.2021 31.0886 13.5604 31.7488C19.4358 34.627 30.7918 34.9438 37.8518 31.5375C41.2949 29.874 43.7272 27.3259 43.9799 23.7611C44.2169 20.5793 42.3216 17.4898 39.7313 15.153Z" fill="#726AA6"/>
<path d="M48.3738 18C48.2257 18 48.0911 17.9121 48.0322 17.7753L44.0306 8.52031C43.97 8.3802 44.0011 8.21696 44.1092 8.10925C44.217 8.00112 44.3798 7.96998 44.5203 8.03057L53.7753 12.0326C53.9183 12.0945 54.0075 12.2384 53.9995 12.3941C53.9911 12.5497 53.8872 12.6835 53.7386 12.7298L49.9234 13.9235L48.7298 17.7387C48.6831 17.8872 48.5493 17.9912 48.394 17.9996C48.3869 18 48.3806 18 48.3738 18Z" fill="#353147"/>
<circle cx="26" cy="23" r="2" fill="#353147"/>
</svg>
