<svg width="44" height="35" viewBox="0 0 44 35" fill="none" xmlns="http://www.w3.org/2000/svg">
<path d="M12.5476 10.5492C10.5488 10.8305 8.51085 10.634 6.50321 10.8356C4.49557 11.0373 2.3996 11.731 1.17179 13.3624C0.289745 14.5353 -0.0370803 16.0678 0.00329969 17.5464C0.100464 21.1163 2.22546 24.4087 5.03313 26.5462C5.59214 26.9714 6.17512 27.3542 6.7783 27.7037L14 10.2537C13.5218 10.3809 13.0372 10.4798 12.5476 10.5492Z" fill="#726AA6"/>
<path d="M41.0695 6.18287C38.646 3.82239 35.0799 2.95693 31.7054 3.07977C30.1252 3.137 28.5114 3.40362 27.1521 4.20766C25.9326 4.92935 24.997 6.0349 23.9356 6.97295C22.2435 8.46796 20.1905 9.54979 18.0034 10.1151L10 29.0771C12.6892 30.6056 15.7323 31.5116 18.7767 32.1369C22.4435 32.8907 26.3256 33.262 29.8665 32.0601C35.5764 30.1212 42.4022 22.7397 43.7587 15.6625C44.4216 12.2062 43.7797 8.82392 41.0695 6.18287Z" fill="#726AA6"/>
<line x1="1" y1="-1" x2="35.8082" y2="-1" transform="matrix(-0.383102 0.923706 -0.916329 -0.400426 19.0251 0)" stroke="#353147" stroke-width="2" stroke-linecap="round" stroke-linejoin="round" stroke-dasharray="3 3"/>
<path d="M26.3738 11C26.2257 11 26.0911 10.9121 26.0322 10.7753L22.0306 1.52031C21.97 1.3802 22.0011 1.21696 22.1092 1.10925C22.217 1.00112 22.3798 0.969982 22.5203 1.03057L31.7753 5.03265C31.9183 5.0945 32.0075 5.23839 31.9995 5.39406C31.9911 5.54973 31.8872 5.68353 31.7386 5.72981L27.9234 6.92345L26.7298 10.7387C26.6831 10.8872 26.5493 10.9912 26.394 10.9996C26.3869 11 26.3806 11 26.3738 11Z" fill="#353147"/>
</svg>
