<svg width="26" height="26" viewBox="0 0 26 26" fill="none" xmlns="http://www.w3.org/2000/svg">
<path d="M15.286 13L25.8642 2.40094C26.0453 2.21987 26.0453 1.92563 25.8642 1.74455C24.7766 0.656964 23.0123 0.656964 21.9247 1.74455L12.9896 10.6989L10.4882 8.1929C10.9061 7.41174 11.1429 6.51915 11.1429 5.57143C11.1429 2.49437 8.64848 0 5.57143 0C2.49437 0 0 2.49437 0 5.57143C0 8.64848 2.49437 11.1429 5.57143 11.1429C6.51799 11.1429 7.40884 10.9067 8.18942 10.4905L10.6937 13L8.18942 15.5095C7.40884 15.0933 6.51799 14.8571 5.57143 14.8571C2.49437 14.8571 0 17.3515 0 20.4286C0 23.5056 2.49437 26 5.57143 26C8.64848 26 11.1429 23.5056 11.1429 20.4286C11.1429 19.4808 10.9061 18.5883 10.4882 17.8071L12.9896 15.3011L21.9242 24.2554C23.0117 25.343 24.776 25.343 25.8636 24.2554C26.0447 24.0744 26.0447 23.7801 25.8636 23.5991L15.286 13ZM5.57143 8.35714C4.03522 8.35714 2.78571 7.10763 2.78571 5.57143C2.78571 4.03522 4.03522 2.78571 5.57143 2.78571C7.10763 2.78571 8.35714 4.03522 8.35714 5.57143C8.35714 7.10763 7.10763 8.35714 5.57143 8.35714ZM5.57143 23.2143C4.03522 23.2143 2.78571 21.9648 2.78571 20.4286C2.78571 18.8924 4.03522 17.6429 5.57143 17.6429C7.10763 17.6429 8.35714 18.8924 8.35714 20.4286C8.35714 21.9648 7.10763 23.2143 5.57143 23.2143Z" fill="#726AA6"/>
</svg>
