<svg width="50" height="34" viewBox="0 0 50 34" fill="none" xmlns="http://www.w3.org/2000/svg">
<path d="M13.7663 19.7571C15.1159 19.6398 16.4503 19.731 17.7392 19.8092C18.7249 19.8744 19.6499 19.9265 20.59 19.9135C22.3794 19.8744 24.199 19.4313 26.0035 18.5843C29.1273 17.1247 31.8871 14.6878 33.7522 11.7427L33.7977 11.6645C33.9645 11.4039 34.1162 11.1432 34.2678 10.8826C33.8432 10.6871 33.4186 10.5308 32.9637 10.4005C31.4928 10.0095 29.9309 10.0486 28.3994 9.90525C25.3666 9.60553 22.4552 8.53694 20.1351 6.84284C18.2851 5.50059 16.8294 3.79346 15.0249 2.39908C13.2204 1.00471 10.9458 -0.142068 8.53477 0.0143108C6.79092 0.131595 5.18356 0.926519 3.92496 1.95601C0.861861 4.45807 -0.320918 8.32844 0.0733418 11.9251C0.452438 15.5349 2.22661 18.9231 4.36471 22.0376C4.577 22.3373 4.7893 22.6501 5.00159 22.9498C6.01757 22.2201 7.13969 21.5945 8.3528 21.0863C10.0815 20.3696 11.9011 19.9135 13.7663 19.7571Z" fill="#726AA6"/>
<path d="M39.0946 14.0389C38.5703 13.6012 37.9997 13.1779 37.3993 12.8084C37.2655 13.0502 37.1316 13.292 36.9974 13.5206L36.9376 13.6149C34.9519 16.8839 31.9728 19.6208 28.5629 21.308C26.5198 22.3124 24.4346 22.8805 22.3528 22.9714C21.3121 23.0234 20.269 22.9828 19.2726 22.941C17.9494 22.894 16.704 22.8451 15.4632 22.9816C13.7416 23.1697 12.0578 23.6219 10.4585 24.3371C9.28959 24.8561 8.20146 25.4924 7.24036 26.2317C9.11691 28.4781 11.3456 30.504 14.1927 31.7725C20.1077 34.4233 31.3014 34.2543 38.0818 30.5494C41.3955 28.7452 43.6454 26.0792 43.7258 22.4992C43.7687 19.2779 41.7639 16.2659 39.0946 14.0389Z" fill="#726AA6"/>
<path d="M1.99787 29.245C3.51557 26.416 6.19527 24.0929 9.43465 22.7196C11.0468 22.0394 12.78 21.5935 14.5741 21.434C16.8205 21.2345 19.0679 21.6342 21.3146 21.5781C23.3501 21.5353 25.2641 20.9979 27.0268 20.1612C30.4165 18.5662 33.1862 15.9564 35.0204 13.0487C35.0354 13.0226 35.0504 12.9966 35.0655 12.9705C36.1479 11.2364 36.9436 9.3725 37.5432 7.46992" stroke="#353147" stroke-width="2" stroke-miterlimit="10" stroke-linecap="round" stroke-dasharray="3 3"/>
<path d="M43.3635 17.2765C43.2158 17.2663 43.0875 17.1693 43.0381 17.0289L39.6807 7.52118C39.6299 7.37725 39.6721 7.21652 39.7874 7.11648C39.9023 7.01599 40.0669 6.9961 40.2029 7.06618L49.1615 11.6936C49.3 11.7652 49.3791 11.9148 49.3605 12.0696C49.3414 12.2243 49.2285 12.3507 49.0772 12.3867L45.1891 13.3158L43.7366 17.0402C43.6798 17.1852 43.5392 17.2797 43.3837 17.2774C43.3765 17.2773 43.3703 17.2769 43.3635 17.2765Z" fill="#353147"/>
</svg>
