<svg width="44" height="33" viewBox="0 0 44 33" fill="none" xmlns="http://www.w3.org/2000/svg">
<path d="M41.4087 3.0739C39.2651 0.744142 36.1111 -0.110056 33.1265 0.0111849C31.7288 0.0676722 30.3014 0.33082 29.0991 1.1244C28.0206 1.83669 27.1931 2.92786 26.2543 3.8537C24.3953 5.68747 22.0439 6.89161 19.5837 7.27049C17.6245 7.57221 15.6282 7.36142 13.6603 7.57773C11.6924 7.79403 9.63792 8.53801 8.43442 10.2877C7.99409 10.927 7.696 11.6682 7.51294 12.4494C8.34784 12.2 9.22603 12.0636 10.1327 12.0636C15.6492 12.0636 20.1206 16.9987 20.1206 23.0856C20.1206 24.8477 19.7445 26.5106 19.0779 27.9875C19.9412 28.2576 20.8157 28.489 21.6902 28.6888C24.9333 29.4328 28.3669 29.7993 31.4987 28.613C36.5489 26.6994 42.5862 19.4139 43.786 12.4287C44.3735 9.01884 43.8058 5.68058 41.4087 3.0739Z" fill="#726AA6"/>
<path d="M9.00061 14C8.18359 14 7.39214 14.1168 6.63965 14.3322C2.81391 15.4272 0 19.1159 0 23.5C0 28.7469 4.02909 33 9.00061 33C12.5329 33 15.5879 30.8514 17.0612 27.7245C17.6615 26.4517 18 25.0167 18 23.4987C18 18.2531 13.9709 14 9.00061 14Z" fill="#353147"/>
</svg>
