<svg width="44" height="34" viewBox="0 0 44 34" fill="none" xmlns="http://www.w3.org/2000/svg">
<path d="M41.3073 2.92968C39.0822 0.70923 35.8064 -0.104893 32.7052 0.0106601C31.2536 0.0644973 29.7711 0.3153 28.5224 1.07165C27.4022 1.75052 26.5427 2.7905 25.5677 3.6729C23.6368 5.42064 21.1947 6.56829 18.6395 6.92939C16.6046 7.21696 14.5312 7.01606 12.4873 7.22221C10.4434 7.42837 8.30962 8.13745 7.05965 9.80508C6.16168 11.0026 5.82895 12.5692 5.87006 14.0819C5.88547 14.6675 5.95613 15.2453 6.07303 15.8125H25.524V27.9824C27.3932 28.0611 29.2521 27.8852 31.0172 27.2706C36.2624 25.4467 42.5328 18.5031 43.7789 11.8456C44.3866 8.59572 43.7982 5.41407 41.3073 2.92968Z" fill="#726AA6"/>
<path d="M3.87207 18H0V34H23.4667V30.265V18H3.87207Z" fill="#353147"/>
</svg>
