<svg width="50" height="50" viewBox="0 0 50 50" fill="none" xmlns="http://www.w3.org/2000/svg">
<path d="M25 50.0001C11.2 50.0001 0 38.8001 0 25.0001C0 11.2001 11.2 6.10352e-05 25 6.10352e-05C38.8 6.10352e-05 50 11.2001 50 25.0001C50 38.8001 38.8 50.0001 25 50.0001ZM25 4.00006C13.4 4.00006 4 13.4001 4 25.0001C4 36.6001 13.4 46.0001 25 46.0001C36.6 46.0001 46 36.6001 46 25.0001C46 13.4001 36.6 4.00006 25 4.00006Z" fill="#5A509A"/>
<path d="M32.9 15.0001H17.1C15.9 15.0001 15 16.0001 15 17.1001V32.8001C15 34.0001 16 34.9001 17.1 34.9001H32.8C34 34.9001 34.9 33.9001 34.9 32.8001V17.1001C35 16.0001 34 15.0001 32.9 15.0001Z" fill="#5A509A"/>
</svg>
