<svg width="12" height="12" viewBox="0 0 12 12" fill="none" xmlns="http://www.w3.org/2000/svg">
<path d="M4.72702 6.00019L0.880903 2.15407L0.0877532 1.36092C-0.0292505 1.24391 -0.0292505 1.05378 0.0877532 0.93678L0.936405 0.0881278C1.05341 -0.0288758 1.24354 -0.0288758 1.36054 0.0881278L5.99981 4.7274L10.6391 0.0877527C10.7561 -0.0292509 10.9462 -0.0292509 11.0632 0.0877527L11.9122 0.936404C12.0293 1.05341 12.0293 1.24354 11.9122 1.36054L7.2726 6.00019L11.9122 10.6395C12.0293 10.7565 12.0293 10.9466 11.9122 11.0636L11.0636 11.9122C10.9466 12.0293 10.7565 12.0293 10.6395 11.9122L5.99981 7.27298L2.15369 11.1191L1.36054 11.9122C1.24354 12.0293 1.05341 12.0293 0.936405 11.9122L0.0877532 11.0636C-0.0292505 10.9466 -0.0292505 10.7565 0.0877532 10.6395L4.72702 6.00019Z" fill="#DDDDDD"/>
</svg>
