<svg width="12" height="12" viewBox="0 0 12 12" fill="none" xmlns="http://www.w3.org/2000/svg">
<mask id="path-1-inside-1" fill="white">
<path fill-rule="evenodd" clip-rule="evenodd" d="M3 1H11V9H10V2H3V1ZM2 2V1V0H3H11H12V1V9V10H11H10V12H0V2H2Z"/>
</mask>
<path d="M11 1H12V0H11V1ZM3 1V0H2V1H3ZM11 9V10H12V9H11ZM10 9H9V10H10V9ZM10 2H11V1H10V2ZM3 2H2V3H3V2ZM2 2V3H3V2H2ZM2 0V-1H1V0H2ZM12 0H13V-1H12V0ZM12 10V11H13V10H12ZM10 10V9H9V10H10ZM10 12V13H11V12H10ZM0 12H-1V13H0V12ZM0 2V1H-1V2H0ZM11 0H3V2H11V0ZM12 9V1H10V9H12ZM10 10H11V8H10V10ZM9 2V9H11V2H9ZM3 3H10V1H3V3ZM2 1V2H4V1H2ZM1 1V2H3V1H1ZM1 0V1H3V0H1ZM3 -1H2V1H3V-1ZM11 -1H3V1H11V-1ZM12 -1H11V1H12V-1ZM13 1V0H11V1H13ZM13 9V1H11V9H13ZM13 10V9H11V10H13ZM11 11H12V9H11V11ZM10 11H11V9H10V11ZM9 10V12H11V10H9ZM10 11H0V13H10V11ZM1 12V2H-1V12H1ZM0 3H2V1H0V3Z" fill="#DDDDDD" mask="url(#path-1-inside-1)"/>
</svg>
