<svg width="78" height="54" viewBox="0 0 78 54" fill="none" xmlns="http://www.w3.org/2000/svg">
<path d="M72.5901 41.2081C72.6882 40.1004 74.7603 39.6141 74.6131 35.7239C74.466 31.8336 73.902 27.8623 73.902 27.8623C49.2948 16.2591 37.5245 26.9168 37.5245 26.9168C37.5245 26.9168 25.7542 16.2591 1.14702 27.8623C1.14702 27.8623 0.58303 31.8336 0.435902 35.7239C0.288773 39.6141 2.37309 40.0869 2.45892 41.2081L8.31953 48.6374H68.0046L72.5901 41.2081Z" fill="#FFE9E2"/>
<path d="M68.0046 49.0967H8.3195C8.19689 49.0967 8.08655 49.0427 8.00073 48.9346L2.14011 41.5053C2.07881 41.4378 2.04203 41.3432 2.04203 41.2486C2.02976 41.0325 1.82133 40.7894 1.5516 40.4787C0.901781 39.6952 -0.0913367 38.5066 0.00674887 35.7104C0.153877 31.8337 0.71787 27.8354 0.71787 27.7949C0.742391 27.6328 0.840477 27.4977 0.963084 27.4437C8.63828 23.8236 15.8476 22 22.407 22C31.4064 22 36.3352 25.4175 37.5 26.3495C38.6647 25.4175 43.5935 22 52.5929 22C59.1524 22 66.3739 23.8371 74.0368 27.4437C74.1717 27.5112 74.2698 27.6463 74.2821 27.7949C74.2821 27.8354 74.8583 31.8472 74.9932 35.7104C75.0913 38.5066 74.1104 39.6952 73.4483 40.4787C73.1909 40.7894 72.9824 41.046 72.9579 41.2486C72.9456 41.3297 72.9211 41.3972 72.8843 41.4648L68.2988 48.8941C68.2743 49.0156 68.1394 49.0967 68.0046 49.0967ZM8.51567 48.1647H67.7839L72.1855 41.0325C72.2713 40.5733 72.5656 40.2221 72.8721 39.8438C73.4728 39.1279 74.2821 38.1554 74.1962 35.7375C74.0736 32.4686 73.6445 29.1051 73.5219 28.1731C66.0306 24.6745 59.0052 22.905 52.6174 22.905C42.7475 22.905 37.831 27.2275 37.782 27.2681C37.6226 27.4031 37.4019 27.4031 37.2425 27.2681C37.1934 27.2275 32.2769 22.905 22.407 22.905C16.0192 22.905 8.99384 24.6745 1.50255 28.1731C1.37995 29.1051 0.950822 32.4686 0.828215 35.7375C0.74239 38.1418 1.5516 39.1279 2.15237 39.8438C2.45889 40.2085 2.74089 40.5597 2.83897 40.992L8.51567 48.1647Z" fill="#BCBCBC"/>
<path d="M67.7593 44.2205C67.7593 44.2205 69.8313 41.6 71.2045 40.4113C72.5777 39.2226 72.7249 40.7895 72.4919 42.3159C72.2467 43.8423 71.7685 47.0031 71.1432 49.7992C70.5179 52.5953 69.0467 54.7701 67.0727 52.7169C65.0987 50.6637 64.5715 47.8136 67.7593 44.2205Z" fill="white"/>
<path d="M68.593 54.0001C67.9923 54.0001 67.3915 53.6894 66.7907 53.0545C65.6627 51.8794 65.0865 50.5826 65.062 49.1913C65.0374 47.5028 65.8344 45.7198 67.4528 43.9097C67.6244 43.6936 69.5861 41.2217 70.9471 40.0465C71.3517 39.6953 71.695 39.5332 72.0138 39.5332C72.2835 39.5332 72.5042 39.6548 72.6758 39.8709C73.105 40.4382 73.0314 41.5594 72.9088 42.3969L72.8475 42.7886C72.6023 44.369 72.1364 47.3272 71.5601 49.9207C70.9716 52.5142 69.8927 54.0001 68.593 54.0001ZM72.0138 40.4652C71.977 40.4652 71.8053 40.4923 71.4743 40.7894C70.1501 41.9376 68.1026 44.5176 68.0903 44.5446C68.0903 44.5581 68.0781 44.5581 68.0781 44.5716C66.6191 46.2061 65.8957 47.7595 65.9202 49.1913C65.9447 50.326 66.4352 51.4066 67.3792 52.4062C67.8206 52.8654 68.2252 53.0951 68.593 53.0951C69.4513 53.0951 70.2728 51.7983 70.7387 49.7181C71.3149 47.1516 71.7686 44.2204 72.0138 42.6535L72.0751 42.2618C72.259 41.0731 72.0996 40.5463 72.026 40.4788C72.026 40.4652 72.0138 40.4652 72.0138 40.4652Z" fill="#BCBCBC"/>
<path d="M59.6305 42.9642C59.6305 42.9642 62.3278 38.6552 63.5416 37.2369C64.7432 35.8185 66.7784 35.0081 67.5141 36.6155C68.2497 38.2364 67.9432 46.206 66.9991 48.9616C66.0551 51.7172 64.1056 53.8245 61.9968 52.0819C59.8634 50.3529 56.8473 47.7459 59.6305 42.9642Z" fill="white"/>
<path d="M63.5417 53.1895C62.9287 53.1895 62.3156 52.9464 61.7271 52.4601C60.7095 51.6226 59.324 50.488 58.5884 48.8805C57.7424 47.03 57.9631 44.9633 59.275 42.721C59.275 42.721 59.275 42.7075 59.2872 42.7075C59.3976 42.5319 62.0214 38.3579 63.2352 36.9261C64.0934 35.9265 65.2459 35.2646 66.19 35.2646C66.9502 35.2646 67.5509 35.6699 67.8942 36.4128C68.7034 38.1823 68.3847 46.2735 67.3915 49.1372C66.5088 51.6767 65.0743 53.1895 63.5417 53.1895ZM59.9738 43.2208C57.5707 47.3541 59.6673 49.5964 62.2298 51.7037C62.6712 52.0684 63.1003 52.244 63.5294 52.244C64.9026 52.244 66.0061 50.4609 66.5823 48.786C67.5387 46.0034 67.7716 38.2364 67.1218 36.8045C66.9256 36.3723 66.6191 36.1697 66.1777 36.1697C65.4666 36.1697 64.5348 36.71 63.8359 37.534C62.6957 38.9118 60.0964 43.0316 59.9738 43.2208Z" fill="#BCBCBC"/>
<path d="M59.9123 48.3807C59.9123 51.7171 50.2018 51.7171 50.2018 48.3807C50.2018 42.6263 52.139 35.4402 55.0571 35.4402C59.1276 35.4402 59.9123 42.6263 59.9123 48.3807Z" fill="white"/>
<path d="M55.0694 51.3524C52.4456 51.3524 49.7973 50.4339 49.7973 48.3942C49.7973 45.409 50.3 42.1266 51.1582 39.6006C52.1759 36.5884 53.5368 34.981 55.0694 34.981C57.0924 34.981 58.5637 36.5479 59.422 39.6141C60.035 41.7889 60.3415 44.7471 60.3415 48.3807C60.3415 50.4339 57.6932 51.3524 55.0694 51.3524ZM55.0694 35.913C52.5682 35.913 50.631 42.6264 50.631 48.3942C50.631 49.718 52.9115 50.4339 55.0694 50.4339C57.215 50.4339 59.5078 49.718 59.5078 48.3942C59.4955 42.6939 58.7231 35.913 55.0694 35.913Z" fill="#BCBCBC"/>
<path d="M7.28954 44.2205C7.28954 44.2205 5.21748 41.6 3.84428 40.4113C2.47109 39.2226 2.32396 40.7895 2.55691 42.3159C2.80212 43.8423 3.28029 47.0031 3.90559 49.7992C4.53088 52.5953 6.00217 54.7701 7.97614 52.7169C9.95011 50.6637 10.4773 47.8136 7.28954 44.2205Z" fill="white"/>
<path d="M6.4558 54.0001C5.15617 54.0001 4.06497 52.5142 3.48871 49.9207C2.9002 47.3272 2.44655 44.369 2.20134 42.7886L2.14004 42.3969C2.00517 41.5594 1.94387 40.4382 2.37299 39.8709C2.54464 39.6413 2.77759 39.5332 3.03507 39.5332C3.35385 39.5332 3.69714 39.6953 4.10175 40.0465C5.46268 41.2217 7.43666 43.6936 7.59605 43.9097C9.21446 45.7198 10.0114 47.5028 9.98688 49.1913C9.96236 50.5826 9.38611 51.8794 8.25812 53.0545C7.65735 53.6759 7.05658 54.0001 6.4558 54.0001ZM3.03507 40.4652C3.02281 40.4652 3.02281 40.4652 3.02281 40.4652C2.94924 40.5193 2.77759 41.0461 2.97376 42.2483L3.03507 42.64C3.28028 44.2069 3.73393 47.1381 4.31018 49.7046C4.77609 51.7848 5.59755 53.0815 6.4558 53.0815C6.82362 53.0815 7.24049 52.8519 7.66961 52.3926C8.62595 51.3931 9.11637 50.326 9.12863 49.1778C9.15316 47.746 8.42978 46.1926 6.97075 44.5581C6.97075 44.5581 6.95849 44.5446 6.95849 44.5311C6.93397 44.5041 4.89869 41.9241 3.57454 40.7759C3.2435 40.4787 3.08411 40.4652 3.03507 40.4652Z" fill="#BCBCBC"/>
<path d="M15.4184 42.9642C15.4184 42.9642 12.721 38.6552 11.5072 37.2369C10.3057 35.8185 8.27038 35.0081 7.53474 36.6155C6.7991 38.2364 7.10562 46.206 8.04969 48.9616C8.99376 51.7172 10.9432 53.8245 13.0521 52.0819C15.1854 50.3529 18.2015 47.7459 15.4184 42.9642Z" fill="white"/>
<path d="M11.5072 53.1895C9.97462 53.1895 8.54012 51.6767 7.66961 49.1372C6.68875 46.2735 6.36998 38.1823 7.16692 36.4128C7.49796 35.6699 8.11099 35.2646 8.87116 35.2646C9.81523 35.2646 10.9677 35.913 11.826 36.9261C13.0398 38.3579 15.6636 42.5319 15.7739 42.7075C15.7739 42.7075 15.7739 42.721 15.7862 42.721C17.0858 44.9633 17.3188 47.03 16.4728 48.8805C15.7371 50.488 14.3517 51.6226 13.3341 52.4601C12.7333 52.9464 12.1202 53.1895 11.5072 53.1895ZM8.87116 36.1967C8.42977 36.1967 8.12326 36.3993 7.92709 36.8316C7.27727 38.2634 7.49796 46.0304 8.46656 48.813C9.04281 50.488 10.1463 52.271 11.5195 52.271C11.9486 52.271 12.39 52.0954 12.8191 51.7307C15.3816 49.6235 17.4782 47.3812 15.0751 43.2478C14.9525 43.0587 12.3655 38.9388 11.213 37.5745C10.5141 36.737 9.58228 36.1967 8.87116 36.1967Z" fill="#BCBCBC"/>
<path d="M15.1364 48.3809C15.1364 51.7174 24.8468 51.7174 24.8468 48.3809C24.8468 42.6266 22.9096 35.4404 19.9916 35.4404C15.921 35.4404 15.1364 42.6266 15.1364 48.3809Z" fill="white"/>
<path d="M19.9794 51.3526C17.3556 51.3526 14.7073 50.4341 14.7073 48.3944C14.7073 44.7608 15.0138 41.8026 15.6268 39.6278C16.4851 36.548 17.9564 34.9946 19.9794 34.9946C21.5242 34.9946 22.8729 36.5886 23.8905 39.6143C24.7365 42.1403 25.2515 45.4227 25.2515 48.4079C25.2637 50.4341 22.6154 51.3526 19.9794 51.3526ZM19.9794 35.9132C16.3134 35.9132 15.541 42.6941 15.541 48.3944C15.541 49.7182 17.8215 50.4341 19.9794 50.4341C22.125 50.4341 24.4177 49.7182 24.4177 48.3944C24.4177 42.613 22.4806 35.9132 19.9794 35.9132Z" fill="#BCBCBC"/>
<path d="M50.2142 49.5695C50.2142 52.9329 37.5244 52.9329 37.5244 49.5695C37.5244 43.7611 38.5543 34.6838 43.8632 34.6838C49.1721 34.6838 50.2142 43.7611 50.2142 49.5695Z" fill="white"/>
<path d="M43.8632 52.5547C40.7368 52.5547 37.0953 51.7713 37.0953 49.5695C37.0953 44.9498 37.7574 34.2246 43.8632 34.2246C49.9691 34.2246 50.6312 44.9633 50.6312 49.5695C50.6312 51.7713 46.9897 52.5547 43.8632 52.5547ZM43.8632 35.1431C41.7176 35.1431 40.1115 36.8046 39.0938 40.087C38.0885 43.3559 37.9413 47.4217 37.9413 49.556C37.9413 50.7041 40.5406 51.6092 43.8632 51.6092C47.1859 51.6092 49.7852 50.7041 49.7852 49.556C49.7852 47.4217 49.638 43.3559 48.6327 40.087C47.6273 36.8181 46.0211 35.1431 43.8632 35.1431Z" fill="#BCBCBC"/>
<path d="M24.8346 49.5695C24.8346 52.9329 37.5244 52.9329 37.5244 49.5695C37.5244 43.7611 36.4945 34.6838 31.1856 34.6838C25.8768 34.6838 24.8346 43.7611 24.8346 49.5695Z" fill="white"/>
<path d="M31.1856 52.5547C28.0714 52.5547 24.4177 51.7713 24.4177 49.5695C24.4177 44.9498 25.0798 34.2246 31.1856 34.2246C37.2915 34.2246 37.9535 44.9633 37.9535 49.5695C37.9413 51.7713 34.2998 52.5547 31.1856 52.5547ZM31.1856 35.1431C29.04 35.1431 27.4339 36.8046 26.4162 40.087C25.4108 43.3559 25.2637 47.4217 25.2637 49.556C25.2637 50.7041 27.863 51.6092 31.1856 51.6092C34.5083 51.6092 37.1075 50.7041 37.1075 49.556C37.1075 47.4217 36.9604 43.3559 35.955 40.087C34.9374 36.8181 33.3313 35.1431 31.1856 35.1431Z" fill="#BCBCBC"/>
</svg>
